M48
INCH,LZ
;FILE_FORMAT=2:4
;TYPE=PLATED
;Layer: PTH_Through
;EasyEDA v6.5.22, 2022-11-07 08:41:36
;a0478566845a414f978cb9b688239593,4d8ab2db40884aeb91e54047068f32cb,10
;Gerber Generator version 0.2
;Holesize 1 = 0.0280 inch
T01C0.0280
;Holesize 2 = 0.0320 inch
T02C0.0320
;Holesize 3 = 0.0360 inch
T03C0.0360
;Holesize 4 = 0.0390 inch
T04C0.0390
;Holesize 5 = 0.0430 inch
T05C0.0430
;Holesize 6 = 0.0470 inch
T06C0.0470
;Holesize 7 = 0.0510 inch
T07C0.0510
%
G05
G90
T01
X005950Y-004058
X006934Y-005042
X004966Y-005042
X013050Y-004108
X014034Y-005092
X012066Y-005092
X019700Y-004158
X020684Y-005142
X018716Y-005142
X027050Y-004008
X028034Y-004992
X026066Y-004992
X034150Y-004108
X035134Y-005092
X033166Y-005092
X014556Y012850
X015344Y012850
X009356Y-001100
X010144Y-001100
T02
X009600Y001750
X010600Y001750
X012800Y-001450
X014800Y-001450
X028650Y005800
X026650Y005800
X031734Y009400
X029766Y009400
X020166Y009700
X022134Y009700
X017700Y003650
X018700Y003650
X021700Y003650
X022700Y003650
X019700Y003650
X020700Y003650
X023700Y003650
X024700Y003650
X024700Y006650
X023700Y006650
X022700Y006650
X021700Y006650
X020700Y006650
X019700Y006650
X018700Y006650
X017700Y006650
T03
X021926Y-000950
X018974Y-000950
T04
X028250Y013050
X029250Y013050
X033450Y013100
X034450Y013100
X026974Y002250
X029926Y002250
X024674Y009450
X027626Y009450
X007305Y013497G85X007305Y013891
X005140Y013497G85X005140Y013891
X004195Y012709G85X004195Y013103
X008655Y005250
X015545Y005250
T05
X016737Y009100
X008863Y009100
X025037Y013050
X017163Y013050
T06
X014281Y001000
X018219Y001000
X027731Y-000800
X031669Y-000800
X033950Y003232
X033950Y007168
T07
X005450Y006300
X005450Y008300
X005350Y000700
X005350Y002700
M30
