G04 Layer: TopSilkscreenLayer*
G04 EasyEDA v6.5.22, 2022-11-07 08:41:36*
G04 a0478566845a414f978cb9b688239593,4d8ab2db40884aeb91e54047068f32cb,10*
G04 Gerber Generator version 0.2*
G04 Scale: 100 percent, Rotated: No, Reflected: No *
G04 Dimensions in inches *
G04 leading zeros omitted , absolute positions ,3 integer and 6 decimal *
%FSLAX36Y36*%
%MOIN*%

%ADD10C,0.0080*%
%ADD11C,0.0060*%
%ADD12C,0.0100*%
%ADD13C,0.0047*%
%ADD14C,0.0118*%
%ADD15C,0.0168*%

%LPD*%
D10*
X1173599Y1655700D02*
G01*
X1137299Y1655700D01*
X1133599Y1623000D01*
X1137299Y1626599D01*
X1148199Y1630300D01*
X1159099Y1630300D01*
X1170000Y1626599D01*
X1177299Y1619400D01*
X1180900Y1608499D01*
X1180900Y1601199D01*
X1177299Y1590300D01*
X1170000Y1583000D01*
X1159099Y1579400D01*
X1148199Y1579400D01*
X1137299Y1583000D01*
X1133599Y1586599D01*
X1130000Y1593899D01*
X1260900Y1655700D02*
G01*
X1260900Y1579400D01*
X1260900Y1655700D02*
G01*
X1293599Y1655700D01*
X1304499Y1652100D01*
X1308199Y1648499D01*
X1311800Y1641199D01*
X1311800Y1633899D01*
X1308199Y1626599D01*
X1304499Y1623000D01*
X1293599Y1619400D01*
X1260900Y1619400D02*
G01*
X1293599Y1619400D01*
X1304499Y1615700D01*
X1308199Y1612100D01*
X1311800Y1604800D01*
X1311800Y1593899D01*
X1308199Y1586599D01*
X1304499Y1583000D01*
X1293599Y1579400D01*
X1260900Y1579400D01*
X1379499Y1630300D02*
G01*
X1379499Y1579400D01*
X1379499Y1619400D02*
G01*
X1372200Y1626599D01*
X1364899Y1630300D01*
X1353999Y1630300D01*
X1346700Y1626599D01*
X1339499Y1619400D01*
X1335799Y1608499D01*
X1335799Y1601199D01*
X1339499Y1590300D01*
X1346700Y1583000D01*
X1353999Y1579400D01*
X1364899Y1579400D01*
X1372200Y1583000D01*
X1379499Y1590300D01*
X1403500Y1630300D02*
G01*
X1403500Y1579400D01*
X1403500Y1615700D02*
G01*
X1414399Y1626599D01*
X1421599Y1630300D01*
X1432500Y1630300D01*
X1439799Y1626599D01*
X1443500Y1615700D01*
X1443500Y1579400D01*
X1511099Y1655700D02*
G01*
X1511099Y1579400D01*
X1511099Y1619400D02*
G01*
X1503800Y1626599D01*
X1496499Y1630300D01*
X1485600Y1630300D01*
X1478400Y1626599D01*
X1471099Y1619400D01*
X1467500Y1608499D01*
X1467500Y1601199D01*
X1471099Y1590300D01*
X1478400Y1583000D01*
X1485600Y1579400D01*
X1496499Y1579400D01*
X1503800Y1583000D01*
X1511099Y1590300D01*
X1620200Y1655700D02*
G01*
X1591099Y1579400D01*
X1620200Y1655700D02*
G01*
X1649300Y1579400D01*
X1601999Y1604800D02*
G01*
X1638400Y1604800D01*
X1673299Y1630300D02*
G01*
X1673299Y1593899D01*
X1676899Y1583000D01*
X1684200Y1579400D01*
X1695100Y1579400D01*
X1702399Y1583000D01*
X1713299Y1593899D01*
X1713299Y1630300D02*
G01*
X1713299Y1579400D01*
X1780900Y1655700D02*
G01*
X1780900Y1579400D01*
X1780900Y1619400D02*
G01*
X1773599Y1626599D01*
X1766400Y1630300D01*
X1755500Y1630300D01*
X1748199Y1626599D01*
X1740900Y1619400D01*
X1737299Y1608499D01*
X1737299Y1601199D01*
X1740900Y1590300D01*
X1748199Y1583000D01*
X1755500Y1579400D01*
X1766400Y1579400D01*
X1773599Y1583000D01*
X1780900Y1590300D01*
X1804899Y1655700D02*
G01*
X1808500Y1652100D01*
X1812200Y1655700D01*
X1808500Y1659400D01*
X1804899Y1655700D01*
X1808500Y1630300D02*
G01*
X1808500Y1579400D01*
X1854399Y1630300D02*
G01*
X1847100Y1626599D01*
X1839799Y1619400D01*
X1836199Y1608499D01*
X1836199Y1601199D01*
X1839799Y1590300D01*
X1847100Y1583000D01*
X1854399Y1579400D01*
X1865299Y1579400D01*
X1872500Y1583000D01*
X1879799Y1590300D01*
X1883500Y1601199D01*
X1883500Y1608499D01*
X1879799Y1619400D01*
X1872500Y1626599D01*
X1865299Y1630300D01*
X1854399Y1630300D01*
X2018000Y1637500D02*
G01*
X2014399Y1644800D01*
X2007100Y1652100D01*
X1999799Y1655700D01*
X1985299Y1655700D01*
X1978000Y1652100D01*
X1970699Y1644800D01*
X1967100Y1637500D01*
X1963500Y1626599D01*
X1963500Y1608499D01*
X1967100Y1597500D01*
X1970699Y1590300D01*
X1978000Y1583000D01*
X1985299Y1579400D01*
X1999799Y1579400D01*
X2007100Y1583000D01*
X2014399Y1590300D01*
X2018000Y1597500D01*
X2018000Y1608499D01*
X1999799Y1608499D02*
G01*
X2018000Y1608499D01*
X2041999Y1630300D02*
G01*
X2041999Y1579400D01*
X2041999Y1608499D02*
G01*
X2045600Y1619400D01*
X2052899Y1626599D01*
X2060200Y1630300D01*
X2071099Y1630300D01*
X2138699Y1630300D02*
G01*
X2138699Y1579400D01*
X2138699Y1619400D02*
G01*
X2131499Y1626599D01*
X2124200Y1630300D01*
X2113299Y1630300D01*
X2106000Y1626599D01*
X2098699Y1619400D01*
X2095100Y1608499D01*
X2095100Y1601199D01*
X2098699Y1590300D01*
X2106000Y1583000D01*
X2113299Y1579400D01*
X2124200Y1579400D01*
X2131499Y1583000D01*
X2138699Y1590300D01*
X2162700Y1630300D02*
G01*
X2162700Y1553899D01*
X2162700Y1619400D02*
G01*
X2170000Y1626599D01*
X2177299Y1630300D01*
X2188199Y1630300D01*
X2195500Y1626599D01*
X2202700Y1619400D01*
X2206400Y1608499D01*
X2206400Y1601199D01*
X2202700Y1590300D01*
X2195500Y1583000D01*
X2188199Y1579400D01*
X2177299Y1579400D01*
X2170000Y1583000D01*
X2162700Y1590300D01*
X2230399Y1655700D02*
G01*
X2230399Y1579400D01*
X2230399Y1615700D02*
G01*
X2241300Y1626599D01*
X2248500Y1630300D01*
X2259499Y1630300D01*
X2266700Y1626599D01*
X2270399Y1615700D01*
X2270399Y1579400D01*
X2294399Y1655700D02*
G01*
X2298000Y1652100D01*
X2301599Y1655700D01*
X2298000Y1659400D01*
X2294399Y1655700D01*
X2298000Y1630300D02*
G01*
X2298000Y1579400D01*
X2369300Y1619400D02*
G01*
X2361999Y1626599D01*
X2354700Y1630300D01*
X2343800Y1630300D01*
X2336499Y1626599D01*
X2329300Y1619400D01*
X2325600Y1608499D01*
X2325600Y1601199D01*
X2329300Y1590300D01*
X2336499Y1583000D01*
X2343800Y1579400D01*
X2354700Y1579400D01*
X2361999Y1583000D01*
X2369300Y1590300D01*
X2449300Y1655700D02*
G01*
X2449300Y1579400D01*
X2449300Y1655700D02*
G01*
X2496499Y1655700D01*
X2449300Y1619400D02*
G01*
X2478400Y1619400D01*
X2449300Y1579400D02*
G01*
X2496499Y1579400D01*
X2564200Y1630300D02*
G01*
X2564200Y1553899D01*
X2564200Y1619400D02*
G01*
X2556899Y1626599D01*
X2549600Y1630300D01*
X2538699Y1630300D01*
X2531499Y1626599D01*
X2524200Y1619400D01*
X2520500Y1608499D01*
X2520500Y1601199D01*
X2524200Y1590300D01*
X2531499Y1583000D01*
X2538699Y1579400D01*
X2549600Y1579400D01*
X2556899Y1583000D01*
X2564200Y1590300D01*
X2588199Y1630300D02*
G01*
X2588199Y1593899D01*
X2591800Y1583000D01*
X2599099Y1579400D01*
X2610000Y1579400D01*
X2617299Y1583000D01*
X2628199Y1593899D01*
X2628199Y1630300D02*
G01*
X2628199Y1579400D01*
X2695799Y1630300D02*
G01*
X2695799Y1579400D01*
X2695799Y1619400D02*
G01*
X2688500Y1626599D01*
X2681300Y1630300D01*
X2670399Y1630300D01*
X2663100Y1626599D01*
X2655799Y1619400D01*
X2652200Y1608499D01*
X2652200Y1601199D01*
X2655799Y1590300D01*
X2663100Y1583000D01*
X2670399Y1579400D01*
X2681300Y1579400D01*
X2688500Y1583000D01*
X2695799Y1590300D01*
X2719799Y1655700D02*
G01*
X2719799Y1579400D01*
X2743800Y1655700D02*
G01*
X2747500Y1652100D01*
X2751099Y1655700D01*
X2747500Y1659400D01*
X2743800Y1655700D01*
X2747500Y1630300D02*
G01*
X2747500Y1579400D01*
X2815100Y1630300D02*
G01*
X2775100Y1579400D01*
X2775100Y1630300D02*
G01*
X2815100Y1630300D01*
X2775100Y1579400D02*
G01*
X2815100Y1579400D01*
X2839099Y1608499D02*
G01*
X2882700Y1608499D01*
X2882700Y1615700D01*
X2879099Y1623000D01*
X2875500Y1626599D01*
X2868199Y1630300D01*
X2857299Y1630300D01*
X2850000Y1626599D01*
X2842700Y1619400D01*
X2839099Y1608499D01*
X2839099Y1601199D01*
X2842700Y1590300D01*
X2850000Y1583000D01*
X2857299Y1579400D01*
X2868199Y1579400D01*
X2875500Y1583000D01*
X2882700Y1590300D01*
X2906700Y1630300D02*
G01*
X2906700Y1579400D01*
X2906700Y1608499D02*
G01*
X2910399Y1619400D01*
X2917600Y1626599D01*
X2924899Y1630300D01*
X2935799Y1630300D01*
D11*
X2895699Y1480199D02*
G01*
X2893599Y1484299D01*
X2889499Y1488400D01*
X2885500Y1490399D01*
X2877299Y1490399D01*
X2873199Y1488400D01*
X2869099Y1484299D01*
X2866999Y1480199D01*
X2865000Y1474000D01*
X2865000Y1463800D01*
X2866999Y1457699D01*
X2869099Y1453600D01*
X2873199Y1449499D01*
X2877299Y1447500D01*
X2885500Y1447500D01*
X2889499Y1449499D01*
X2893599Y1453600D01*
X2895699Y1457699D01*
X2909200Y1482199D02*
G01*
X2913299Y1484299D01*
X2919399Y1490399D01*
X2919399Y1447500D01*
X3415699Y1485199D02*
G01*
X3413599Y1489299D01*
X3409499Y1493400D01*
X3405500Y1495399D01*
X3397299Y1495399D01*
X3393199Y1493400D01*
X3389099Y1489299D01*
X3386999Y1485199D01*
X3385000Y1479000D01*
X3385000Y1468800D01*
X3386999Y1462699D01*
X3389099Y1458600D01*
X3393199Y1454499D01*
X3397299Y1452500D01*
X3405500Y1452500D01*
X3409499Y1454499D01*
X3413599Y1458600D01*
X3415699Y1462699D01*
X3431199Y1485199D02*
G01*
X3431199Y1487199D01*
X3433299Y1491300D01*
X3435299Y1493400D01*
X3439399Y1495399D01*
X3447600Y1495399D01*
X3451700Y1493400D01*
X3453699Y1491300D01*
X3455799Y1487199D01*
X3455799Y1483099D01*
X3453699Y1479000D01*
X3449600Y1472899D01*
X3429200Y1452500D01*
X3457799Y1452500D01*
X1645699Y205199D02*
G01*
X1643599Y209299D01*
X1639499Y213400D01*
X1635500Y215399D01*
X1627299Y215399D01*
X1623199Y213400D01*
X1619099Y209299D01*
X1616999Y205199D01*
X1615000Y199000D01*
X1615000Y188800D01*
X1616999Y182699D01*
X1619099Y178600D01*
X1623199Y174499D01*
X1627299Y172500D01*
X1635500Y172500D01*
X1639499Y174499D01*
X1643599Y178600D01*
X1645699Y182699D01*
X1663299Y215399D02*
G01*
X1685799Y215399D01*
X1673500Y199000D01*
X1679600Y199000D01*
X1683699Y196999D01*
X1685799Y195000D01*
X1687799Y188800D01*
X1687799Y184699D01*
X1685799Y178600D01*
X1681700Y174499D01*
X1675500Y172500D01*
X1669399Y172500D01*
X1663299Y174499D01*
X1661199Y176500D01*
X1659200Y180599D01*
X2990699Y25199D02*
G01*
X2988599Y29299D01*
X2984499Y33400D01*
X2980500Y35399D01*
X2972299Y35399D01*
X2968199Y33400D01*
X2964099Y29299D01*
X2961999Y25199D01*
X2960000Y19000D01*
X2960000Y8800D01*
X2961999Y2699D01*
X2964099Y-1399D01*
X2968199Y-5500D01*
X2972299Y-7500D01*
X2980500Y-7500D01*
X2984499Y-5500D01*
X2988599Y-1399D01*
X2990699Y2699D01*
X3014399Y35399D02*
G01*
X3008299Y33400D01*
X3006199Y29299D01*
X3006199Y25199D01*
X3008299Y21100D01*
X3012399Y19000D01*
X3020500Y16999D01*
X3026700Y15000D01*
X3030799Y10900D01*
X3032799Y6799D01*
X3032799Y599D01*
X3030799Y-3499D01*
X3028699Y-5500D01*
X3022600Y-7500D01*
X3014399Y-7500D01*
X3008299Y-5500D01*
X3006199Y-3499D01*
X3004200Y599D01*
X3004200Y6799D01*
X3006199Y10900D01*
X3010299Y15000D01*
X3016499Y16999D01*
X3024600Y19000D01*
X3028699Y21100D01*
X3030799Y25199D01*
X3030799Y29299D01*
X3028699Y33400D01*
X3022600Y35399D01*
X3014399Y35399D01*
X1449399Y1036212D02*
G01*
X1445299Y1034113D01*
X1441199Y1030012D01*
X1439200Y1026012D01*
X1439200Y1017813D01*
X1441199Y1013712D01*
X1445299Y1009612D01*
X1449399Y1007512D01*
X1455600Y1005513D01*
X1465799Y1005513D01*
X1471899Y1007512D01*
X1476000Y1009612D01*
X1480100Y1013712D01*
X1482100Y1017813D01*
X1482100Y1026012D01*
X1480100Y1030012D01*
X1476000Y1034113D01*
X1471899Y1036212D01*
X1453500Y1076313D02*
G01*
X1459600Y1074212D01*
X1463699Y1070113D01*
X1465799Y1064013D01*
X1465799Y1062013D01*
X1463699Y1055812D01*
X1459600Y1051712D01*
X1453500Y1049713D01*
X1451499Y1049713D01*
X1445299Y1051712D01*
X1441199Y1055812D01*
X1439200Y1062013D01*
X1439200Y1064013D01*
X1441199Y1070113D01*
X1445299Y1074212D01*
X1453500Y1076313D01*
X1463699Y1076313D01*
X1473999Y1074212D01*
X1480100Y1070113D01*
X1482100Y1064013D01*
X1482100Y1059913D01*
X1480100Y1053813D01*
X1476000Y1051712D01*
X1030699Y290199D02*
G01*
X1028599Y294299D01*
X1024499Y298400D01*
X1020500Y300399D01*
X1012299Y300399D01*
X1008199Y298400D01*
X1004099Y294299D01*
X1001999Y290199D01*
X1000000Y284000D01*
X1000000Y273800D01*
X1001999Y267699D01*
X1004099Y263600D01*
X1008199Y259499D01*
X1012299Y257500D01*
X1020500Y257500D01*
X1024499Y259499D01*
X1028599Y263600D01*
X1030699Y267699D01*
X1064600Y300399D02*
G01*
X1044200Y271799D01*
X1074899Y271799D01*
X1064600Y300399D02*
G01*
X1064600Y257500D01*
X2875699Y370199D02*
G01*
X2873599Y374299D01*
X2869499Y378400D01*
X2865500Y380399D01*
X2857299Y380399D01*
X2853199Y378400D01*
X2849099Y374299D01*
X2846999Y370199D01*
X2845000Y364000D01*
X2845000Y353800D01*
X2846999Y347699D01*
X2849099Y343600D01*
X2853199Y339499D01*
X2857299Y337500D01*
X2865500Y337500D01*
X2869499Y339499D01*
X2873599Y343600D01*
X2875699Y347699D01*
X2913699Y380399D02*
G01*
X2893299Y380399D01*
X2891199Y361999D01*
X2893299Y364000D01*
X2899399Y366100D01*
X2905500Y366100D01*
X2911700Y364000D01*
X2915799Y360000D01*
X2917799Y353800D01*
X2917799Y349699D01*
X2915799Y343600D01*
X2911700Y339499D01*
X2905500Y337500D01*
X2899399Y337500D01*
X2893299Y339499D01*
X2891199Y341500D01*
X2889200Y345599D01*
X2645699Y1090199D02*
G01*
X2643599Y1094299D01*
X2639499Y1098400D01*
X2635500Y1100399D01*
X2627299Y1100399D01*
X2623199Y1098400D01*
X2619099Y1094299D01*
X2616999Y1090199D01*
X2615000Y1084000D01*
X2615000Y1073800D01*
X2616999Y1067699D01*
X2619099Y1063600D01*
X2623199Y1059499D01*
X2627299Y1057500D01*
X2635500Y1057500D01*
X2639499Y1059499D01*
X2643599Y1063600D01*
X2645699Y1067699D01*
X2659200Y1092199D02*
G01*
X2663299Y1094299D01*
X2669399Y1100399D01*
X2669399Y1057500D01*
X2682899Y1092199D02*
G01*
X2686999Y1094299D01*
X2693100Y1100399D01*
X2693100Y1057500D01*
X2016661Y-220199D02*
G01*
X2018761Y-224299D01*
X2022861Y-228400D01*
X2026862Y-230399D01*
X2035061Y-230399D01*
X2039161Y-228400D01*
X2043262Y-224299D01*
X2045361Y-220199D01*
X2047362Y-214000D01*
X2047362Y-203800D01*
X2045361Y-197699D01*
X2043262Y-193600D01*
X2039161Y-189499D01*
X2035061Y-187500D01*
X2026862Y-187500D01*
X2022861Y-189499D01*
X2018761Y-193600D01*
X2016661Y-197699D01*
X1978662Y-224299D02*
G01*
X1980662Y-228400D01*
X1986862Y-230399D01*
X1990861Y-230399D01*
X1997061Y-228400D01*
X2001162Y-222199D01*
X2003162Y-211999D01*
X2003162Y-201799D01*
X2001162Y-193600D01*
X1997061Y-189499D01*
X1990861Y-187500D01*
X1988861Y-187500D01*
X1982762Y-189499D01*
X1978662Y-193600D01*
X1976562Y-199699D01*
X1976562Y-201799D01*
X1978662Y-207899D01*
X1982762Y-211999D01*
X1988861Y-214000D01*
X1990861Y-214000D01*
X1997061Y-211999D01*
X2001162Y-207899D01*
X2003162Y-201799D01*
X1410699Y-29800D02*
G01*
X1408599Y-25700D01*
X1404499Y-21599D01*
X1400500Y-19600D01*
X1392299Y-19600D01*
X1388199Y-21599D01*
X1384099Y-25700D01*
X1381999Y-29800D01*
X1380000Y-35999D01*
X1380000Y-46199D01*
X1381999Y-52300D01*
X1384099Y-56399D01*
X1388199Y-60500D01*
X1392299Y-62500D01*
X1400500Y-62500D01*
X1404499Y-60500D01*
X1408599Y-56399D01*
X1410699Y-52300D01*
X1452799Y-19600D02*
G01*
X1432399Y-62500D01*
X1424200Y-19600D02*
G01*
X1452799Y-19600D01*
X2734300Y464800D02*
G01*
X2736400Y460700D01*
X2740500Y456599D01*
X2744499Y454600D01*
X2752700Y454600D01*
X2756800Y456599D01*
X2760900Y460700D01*
X2763000Y464800D01*
X2765000Y470999D01*
X2765000Y481199D01*
X2763000Y487300D01*
X2760900Y491399D01*
X2756800Y495500D01*
X2752700Y497500D01*
X2744499Y497500D01*
X2740500Y495500D01*
X2736400Y491399D01*
X2734300Y487300D01*
X2720799Y462800D02*
G01*
X2716700Y460700D01*
X2710600Y454600D01*
X2710600Y497500D01*
X2684799Y454600D02*
G01*
X2691000Y456599D01*
X2695000Y462800D01*
X2697100Y473000D01*
X2697100Y479099D01*
X2695000Y489400D01*
X2691000Y495500D01*
X2684799Y497500D01*
X2680699Y497500D01*
X2674600Y495500D01*
X2670500Y489400D01*
X2668500Y479099D01*
X2668500Y473000D01*
X2670500Y462800D01*
X2674600Y456599D01*
X2680699Y454600D01*
X2684799Y454600D01*
X3105694Y1075199D02*
G01*
X3103594Y1079299D01*
X3099494Y1083400D01*
X3095495Y1085399D01*
X3087295Y1085399D01*
X3083194Y1083400D01*
X3079094Y1079299D01*
X3076994Y1075199D01*
X3074994Y1069000D01*
X3074994Y1058800D01*
X3076994Y1052699D01*
X3079094Y1048600D01*
X3083194Y1044499D01*
X3087295Y1042500D01*
X3095495Y1042500D01*
X3099494Y1044499D01*
X3103594Y1048600D01*
X3105694Y1052699D01*
X3119194Y1077199D02*
G01*
X3123294Y1079299D01*
X3129395Y1085399D01*
X3129395Y1042500D01*
X3144994Y1075199D02*
G01*
X3144994Y1077199D01*
X3146994Y1081300D01*
X3148995Y1083400D01*
X3153095Y1085399D01*
X3161295Y1085399D01*
X3165394Y1083400D01*
X3167494Y1081300D01*
X3169494Y1077199D01*
X3169494Y1073099D01*
X3167494Y1069000D01*
X3163395Y1062899D01*
X3142894Y1042500D01*
X3171495Y1042500D01*
X2084305Y834800D02*
G01*
X2086405Y830700D01*
X2090505Y826599D01*
X2094504Y824600D01*
X2102704Y824600D01*
X2106805Y826599D01*
X2110905Y830700D01*
X2113005Y834800D01*
X2115005Y840999D01*
X2115005Y851199D01*
X2113005Y857300D01*
X2110905Y861399D01*
X2106805Y865500D01*
X2102704Y867500D01*
X2094504Y867500D01*
X2090505Y865500D01*
X2086405Y861399D01*
X2084305Y857300D01*
X2070805Y832800D02*
G01*
X2066705Y830700D01*
X2060604Y824600D01*
X2060604Y867500D01*
X2043005Y824600D02*
G01*
X2020505Y824600D01*
X2032804Y840999D01*
X2026604Y840999D01*
X2022505Y843000D01*
X2020505Y845000D01*
X2018504Y851199D01*
X2018504Y855300D01*
X2020505Y861399D01*
X2024605Y865500D01*
X2030704Y867500D01*
X2036904Y867500D01*
X2043005Y865500D01*
X2045005Y863499D01*
X2047105Y859400D01*
X578020Y1533470D02*
G01*
X578020Y1500770D01*
X575920Y1494569D01*
X573919Y1492570D01*
X569819Y1490569D01*
X565720Y1490569D01*
X561619Y1492570D01*
X559520Y1494569D01*
X557519Y1500770D01*
X557519Y1504870D01*
X591520Y1525270D02*
G01*
X595520Y1527370D01*
X601720Y1533470D01*
X601720Y1490569D01*
X1271298Y1100399D02*
G01*
X1271298Y1057500D01*
X1271298Y1100399D02*
G01*
X1289699Y1100399D01*
X1295798Y1098400D01*
X1297898Y1096300D01*
X1299898Y1092199D01*
X1299898Y1088099D01*
X1297898Y1084000D01*
X1295798Y1081999D01*
X1289699Y1080000D01*
X1271298Y1080000D01*
X1285599Y1080000D02*
G01*
X1299898Y1057500D01*
X1313398Y1092199D02*
G01*
X1317498Y1094299D01*
X1323698Y1100399D01*
X1323698Y1057500D01*
X2101298Y1495399D02*
G01*
X2101298Y1452500D01*
X2101298Y1495399D02*
G01*
X2119699Y1495399D01*
X2125798Y1493400D01*
X2127898Y1491300D01*
X2129898Y1487199D01*
X2129898Y1483099D01*
X2127898Y1479000D01*
X2125798Y1476999D01*
X2119699Y1475000D01*
X2101298Y1475000D01*
X2115599Y1475000D02*
G01*
X2129898Y1452500D01*
X2147498Y1495399D02*
G01*
X2169998Y1495399D01*
X2157799Y1479000D01*
X2163899Y1479000D01*
X2167999Y1476999D01*
X2169998Y1475000D01*
X2172098Y1468800D01*
X2172098Y1464699D01*
X2169998Y1458600D01*
X2165898Y1454499D01*
X2159799Y1452500D01*
X2153698Y1452500D01*
X2147498Y1454499D01*
X2145499Y1456500D01*
X2143398Y1460599D01*
X1205511Y690399D02*
G01*
X1205511Y647500D01*
X1205511Y690399D02*
G01*
X1223912Y690399D01*
X1230011Y688400D01*
X1232111Y686300D01*
X1234111Y682199D01*
X1234111Y678099D01*
X1232111Y674000D01*
X1230011Y671999D01*
X1223912Y670000D01*
X1205511Y670000D01*
X1219812Y670000D02*
G01*
X1234111Y647500D01*
X1249711Y680199D02*
G01*
X1249711Y682199D01*
X1251711Y686300D01*
X1253811Y688400D01*
X1257911Y690399D01*
X1266012Y690399D01*
X1270111Y688400D01*
X1272211Y686300D01*
X1274211Y682199D01*
X1274211Y678099D01*
X1272211Y674000D01*
X1268112Y667899D01*
X1247611Y647500D01*
X1276311Y647500D01*
X591574Y-258706D02*
G01*
X591574Y-301606D01*
X591574Y-258706D02*
G01*
X609974Y-258706D01*
X616075Y-260707D01*
X618175Y-262806D01*
X620174Y-266907D01*
X620174Y-271006D01*
X618175Y-275106D01*
X616075Y-277107D01*
X609974Y-279106D01*
X591574Y-279106D01*
X605875Y-279106D02*
G01*
X620174Y-301606D01*
X633674Y-258706D02*
G01*
X633674Y-301606D01*
X633674Y-258706D02*
G01*
X652074Y-258706D01*
X658274Y-260707D01*
X660275Y-262806D01*
X662375Y-266907D01*
X662375Y-273006D01*
X660275Y-277107D01*
X658274Y-279106D01*
X652074Y-281206D01*
X633674Y-281206D01*
X675875Y-266907D02*
G01*
X679974Y-264807D01*
X686075Y-258706D01*
X686075Y-301606D01*
X1301575Y-263706D02*
G01*
X1301575Y-306606D01*
X1301575Y-263706D02*
G01*
X1319975Y-263706D01*
X1326075Y-265707D01*
X1328175Y-267806D01*
X1330174Y-271907D01*
X1330174Y-276006D01*
X1328175Y-280106D01*
X1326075Y-282107D01*
X1319975Y-284106D01*
X1301575Y-284106D01*
X1315874Y-284106D02*
G01*
X1330174Y-306606D01*
X1343675Y-263706D02*
G01*
X1343675Y-306606D01*
X1343675Y-263706D02*
G01*
X1362075Y-263706D01*
X1368275Y-265707D01*
X1370275Y-267806D01*
X1372375Y-271907D01*
X1372375Y-278006D01*
X1370275Y-282107D01*
X1368275Y-284106D01*
X1362075Y-286206D01*
X1343675Y-286206D01*
X1387875Y-273906D02*
G01*
X1387875Y-271907D01*
X1389975Y-267806D01*
X1391975Y-265707D01*
X1396075Y-263706D01*
X1404274Y-263706D01*
X1408374Y-265707D01*
X1410375Y-267806D01*
X1412475Y-271907D01*
X1412475Y-276006D01*
X1410375Y-280106D01*
X1406274Y-286206D01*
X1385874Y-306606D01*
X1414475Y-306606D01*
X1966575Y-268706D02*
G01*
X1966575Y-311606D01*
X1966575Y-268706D02*
G01*
X1984975Y-268706D01*
X1991075Y-270707D01*
X1993175Y-272806D01*
X1995174Y-276907D01*
X1995174Y-281006D01*
X1993175Y-285106D01*
X1991075Y-287107D01*
X1984975Y-289106D01*
X1966575Y-289106D01*
X1980874Y-289106D02*
G01*
X1995174Y-311606D01*
X2008675Y-268706D02*
G01*
X2008675Y-311606D01*
X2008675Y-268706D02*
G01*
X2027075Y-268706D01*
X2033275Y-270707D01*
X2035275Y-272806D01*
X2037375Y-276907D01*
X2037375Y-283006D01*
X2035275Y-287107D01*
X2033275Y-289106D01*
X2027075Y-291206D01*
X2008675Y-291206D01*
X2054975Y-268706D02*
G01*
X2077475Y-268706D01*
X2065174Y-285106D01*
X2071274Y-285106D01*
X2075375Y-287107D01*
X2077475Y-289106D01*
X2079475Y-295306D01*
X2079475Y-299407D01*
X2077475Y-305506D01*
X2073374Y-309607D01*
X2067174Y-311606D01*
X2061075Y-311606D01*
X2054975Y-309607D01*
X2052875Y-307606D01*
X2050874Y-303506D01*
X2701575Y-253706D02*
G01*
X2701575Y-296606D01*
X2701575Y-253706D02*
G01*
X2719975Y-253706D01*
X2726075Y-255707D01*
X2728175Y-257806D01*
X2730174Y-261907D01*
X2730174Y-266006D01*
X2728175Y-270106D01*
X2726075Y-272107D01*
X2719975Y-274106D01*
X2701575Y-274106D01*
X2715874Y-274106D02*
G01*
X2730174Y-296606D01*
X2743675Y-253706D02*
G01*
X2743675Y-296606D01*
X2743675Y-253706D02*
G01*
X2762075Y-253706D01*
X2768275Y-255707D01*
X2770275Y-257806D01*
X2772375Y-261907D01*
X2772375Y-268006D01*
X2770275Y-272107D01*
X2768275Y-274106D01*
X2762075Y-276206D01*
X2743675Y-276206D01*
X2806274Y-253706D02*
G01*
X2785874Y-282307D01*
X2816575Y-282307D01*
X2806274Y-253706D02*
G01*
X2806274Y-296606D01*
X3411575Y-263706D02*
G01*
X3411575Y-306606D01*
X3411575Y-263706D02*
G01*
X3429975Y-263706D01*
X3436075Y-265707D01*
X3438175Y-267806D01*
X3440174Y-271907D01*
X3440174Y-276006D01*
X3438175Y-280106D01*
X3436075Y-282107D01*
X3429975Y-284106D01*
X3411575Y-284106D01*
X3425874Y-284106D02*
G01*
X3440174Y-306606D01*
X3453675Y-263706D02*
G01*
X3453675Y-306606D01*
X3453675Y-263706D02*
G01*
X3472075Y-263706D01*
X3478275Y-265707D01*
X3480275Y-267806D01*
X3482375Y-271907D01*
X3482375Y-278006D01*
X3480275Y-282107D01*
X3478275Y-284106D01*
X3472075Y-286206D01*
X3453675Y-286206D01*
X3520375Y-263706D02*
G01*
X3499975Y-263706D01*
X3497875Y-282107D01*
X3499975Y-280106D01*
X3506075Y-278006D01*
X3512174Y-278006D01*
X3518374Y-280106D01*
X3522475Y-284106D01*
X3524475Y-290306D01*
X3524475Y-294407D01*
X3522475Y-300506D01*
X3518374Y-304607D01*
X3512174Y-306606D01*
X3506075Y-306606D01*
X3499975Y-304607D01*
X3497875Y-302606D01*
X3495874Y-298506D01*
X2138599Y764299D02*
G01*
X2134499Y768400D01*
X2128400Y770399D01*
X2120200Y770399D01*
X2114099Y768400D01*
X2110000Y764299D01*
X2110000Y760199D01*
X2111999Y756100D01*
X2114099Y754000D01*
X2118199Y751999D01*
X2130500Y747899D01*
X2134499Y745900D01*
X2136599Y743800D01*
X2138599Y739699D01*
X2138599Y733600D01*
X2134499Y729499D01*
X2128400Y727500D01*
X2120200Y727500D01*
X2114099Y729499D01*
X2110000Y733600D01*
X2152100Y770399D02*
G01*
X2152100Y727500D01*
X2180799Y770399D02*
G01*
X2152100Y741799D01*
X2162399Y751999D02*
G01*
X2180799Y727500D01*
X2194300Y762199D02*
G01*
X2198400Y764299D01*
X2204499Y770399D01*
X2204499Y727500D01*
X1485000Y1440399D02*
G01*
X1485000Y1409699D01*
X1486999Y1403600D01*
X1491099Y1399499D01*
X1497299Y1397500D01*
X1501400Y1397500D01*
X1507500Y1399499D01*
X1511599Y1403600D01*
X1513599Y1409699D01*
X1513599Y1440399D01*
X1527100Y1432199D02*
G01*
X1531199Y1434299D01*
X1537399Y1440399D01*
X1537399Y1397500D01*
X965000Y45399D02*
G01*
X965000Y14699D01*
X966999Y8600D01*
X971099Y4499D01*
X977299Y2500D01*
X981400Y2500D01*
X987500Y4499D01*
X991599Y8600D01*
X993599Y14699D01*
X993599Y45399D01*
X1009200Y35199D02*
G01*
X1009200Y37199D01*
X1011199Y41300D01*
X1013299Y43400D01*
X1017399Y45399D01*
X1025500Y45399D01*
X1029600Y43400D01*
X1031700Y41300D01*
X1033699Y37199D01*
X1033699Y33099D01*
X1031700Y29000D01*
X1027600Y22899D01*
X1007100Y2500D01*
X1035799Y2500D01*
X776500Y741496D02*
G01*
X745801Y741496D01*
X739701Y739497D01*
X735601Y735396D01*
X733600Y729196D01*
X733600Y725097D01*
X735601Y718996D01*
X739701Y714897D01*
X745801Y712896D01*
X776500Y712896D01*
X776500Y695297D02*
G01*
X776500Y672797D01*
X760101Y684996D01*
X760101Y678897D01*
X758101Y674796D01*
X756100Y672797D01*
X749900Y670697D01*
X745801Y670697D01*
X739701Y672797D01*
X735601Y676896D01*
X733600Y682997D01*
X733600Y689097D01*
X735601Y695297D01*
X737600Y697296D01*
X741700Y699396D01*
X766500Y181496D02*
G01*
X735801Y181496D01*
X729701Y179497D01*
X725601Y175396D01*
X723600Y169196D01*
X723600Y165097D01*
X725601Y158996D01*
X729701Y154897D01*
X735801Y152896D01*
X766500Y152896D01*
X766500Y118897D02*
G01*
X737901Y139396D01*
X737901Y108697D01*
X766500Y118897D02*
G01*
X723600Y118897D01*
G36*
X2960000Y1395000D02*
G01*
X2960000Y1215000D01*
X2964520Y1219300D01*
X2968820Y1223820D01*
X2972880Y1228560D01*
X2976680Y1233520D01*
X2980240Y1238640D01*
X2983519Y1243960D01*
X2986520Y1249420D01*
X2989240Y1255040D01*
X2991660Y1260800D01*
X2993780Y1266660D01*
X2995600Y1272640D01*
X2997120Y1278680D01*
X2998300Y1284820D01*
X2999180Y1290980D01*
X2999740Y1297200D01*
X2999980Y1303440D01*
X2999900Y1309680D01*
X2999500Y1315900D01*
X2998780Y1322100D01*
X2997740Y1328260D01*
X2997120Y1331320D01*
X2995600Y1337360D01*
X2993780Y1343340D01*
X2991660Y1349199D01*
X2989240Y1354960D01*
X2986520Y1360580D01*
X2983519Y1366040D01*
X2980240Y1371360D01*
X2976680Y1376480D01*
X2972880Y1381440D01*
X2968820Y1386180D01*
X2964520Y1390700D01*
G37*
G36*
X3480000Y1400000D02*
G01*
X3480000Y1220000D01*
X3484520Y1224300D01*
X3488820Y1228820D01*
X3492880Y1233560D01*
X3496680Y1238520D01*
X3500240Y1243640D01*
X3503519Y1248960D01*
X3506520Y1254420D01*
X3509240Y1260040D01*
X3511660Y1265800D01*
X3513780Y1271660D01*
X3515600Y1277640D01*
X3517120Y1283680D01*
X3518300Y1289820D01*
X3519180Y1295980D01*
X3519740Y1302200D01*
X3519980Y1308440D01*
X3519900Y1314680D01*
X3519500Y1320900D01*
X3518780Y1327100D01*
X3517740Y1333260D01*
X3517120Y1336320D01*
X3515600Y1342360D01*
X3513780Y1348340D01*
X3511660Y1354199D01*
X3509240Y1359960D01*
X3506520Y1365580D01*
X3503519Y1371040D01*
X3500240Y1376360D01*
X3496680Y1381480D01*
X3492880Y1386440D01*
X3488820Y1391180D01*
X3484520Y1395700D01*
G37*
G36*
X1564600Y1354600D02*
G01*
X1564600Y1215400D01*
X1568460Y1219480D01*
X1572080Y1223800D01*
X1575440Y1228300D01*
X1578560Y1232980D01*
X1581380Y1237820D01*
X1583940Y1242840D01*
X1586200Y1247980D01*
X1588160Y1253260D01*
X1589040Y1255920D01*
X1590540Y1261340D01*
X1591740Y1266840D01*
X1592620Y1272380D01*
X1593180Y1277980D01*
X1593420Y1283600D01*
X1593340Y1289220D01*
X1592940Y1294820D01*
X1592220Y1300400D01*
X1591180Y1305920D01*
X1589820Y1311380D01*
X1589040Y1314079D01*
X1587220Y1319400D01*
X1585100Y1324600D01*
X1582700Y1329680D01*
X1580000Y1334620D01*
X1577040Y1339379D01*
X1573800Y1343980D01*
X1570300Y1348380D01*
X1566560Y1352580D01*
G37*
G36*
X1416260Y1320440D02*
G01*
X1416260Y1312560D01*
X1447760Y1312560D01*
X1447760Y1320440D01*
G37*
G36*
X1428080Y1332240D02*
G01*
X1428080Y1300740D01*
X1435940Y1300740D01*
X1435940Y1332240D01*
G37*
G36*
X1044599Y-40400D02*
G01*
X1044599Y-179600D01*
X1048460Y-175520D01*
X1052080Y-171200D01*
X1055440Y-166700D01*
X1058560Y-162020D01*
X1061380Y-157180D01*
X1063940Y-152160D01*
X1066200Y-147020D01*
X1068160Y-141740D01*
X1069040Y-139080D01*
X1070540Y-133660D01*
X1071740Y-128160D01*
X1072620Y-122620D01*
X1073180Y-117020D01*
X1073420Y-111400D01*
X1073340Y-105780D01*
X1072940Y-100180D01*
X1072220Y-94600D01*
X1071180Y-89080D01*
X1069820Y-83620D01*
X1069040Y-80920D01*
X1067220Y-75600D01*
X1065100Y-70400D01*
X1062700Y-65320D01*
X1060000Y-60380D01*
X1057040Y-55620D01*
X1053800Y-51020D01*
X1050300Y-46620D01*
X1046560Y-42420D01*
G37*
G36*
X896260Y-74560D02*
G01*
X896260Y-82440D01*
X927760Y-82440D01*
X927760Y-74560D01*
G37*
G36*
X908080Y-62760D02*
G01*
X908080Y-94260D01*
X915939Y-94260D01*
X915939Y-62760D01*
G37*
D12*
X2825000Y1385000D02*
G01*
X2825000Y1345000D01*
X2805000Y1365000D02*
G01*
X2845000Y1365000D01*
X3345000Y1390000D02*
G01*
X3345000Y1350000D01*
X3325000Y1370000D02*
G01*
X3365000Y1370000D01*
X1280511Y149211D02*
G01*
X1969486Y149211D01*
X1969486Y50788D02*
G01*
X1280511Y50785D01*
X1280511Y149211D02*
G01*
X1280511Y50785D01*
X1969486Y149211D02*
G01*
X1969486Y50788D01*
X2625511Y-30788D02*
G01*
X3314486Y-30788D01*
X3314486Y-129211D02*
G01*
X2625511Y-129214D01*
X2625511Y-30788D02*
G01*
X2625511Y-129214D01*
X3314486Y-30788D02*
G01*
X3314486Y-129211D01*
X3345789Y175511D02*
G01*
X3345789Y864486D01*
X3444210Y864486D02*
G01*
X3444214Y175511D01*
X3345789Y175511D02*
G01*
X3444214Y175511D01*
X3345789Y864486D02*
G01*
X3444210Y864486D01*
X910000Y240000D02*
G01*
X1105000Y240000D01*
X1105000Y115000D01*
X910000Y115000D01*
X910000Y240000D01*
X2671772Y323425D02*
G01*
X3018227Y323425D01*
X2671772Y126574D02*
G01*
X3018227Y126574D01*
X2671772Y323425D02*
G01*
X2671772Y261426D01*
X2671772Y188573D02*
G01*
X2671772Y126574D01*
X3018227Y323425D02*
G01*
X3018227Y261426D01*
X3018227Y188573D02*
G01*
X3018227Y126574D01*
X2441772Y1043425D02*
G01*
X2788227Y1043425D01*
X2441772Y846574D02*
G01*
X2788227Y846574D01*
X2441772Y1043425D02*
G01*
X2441772Y981426D01*
X2441772Y908573D02*
G01*
X2441772Y846574D01*
X2788227Y1043425D02*
G01*
X2788227Y981426D01*
X2788227Y908573D02*
G01*
X2788227Y846574D01*
X1769408Y-163897D02*
G01*
X1769408Y-26104D01*
X2320591Y-26104D02*
G01*
X1769408Y-26104D01*
X2320591Y-163897D02*
G01*
X2320591Y-26104D01*
X2320591Y-163897D02*
G01*
X1769408Y-163897D01*
X1280000Y-108341D02*
G01*
X1280000Y-82402D01*
X1479606Y-82402D01*
X1480000Y-181658D02*
G01*
X1480000Y-207597D01*
X1280000Y-207597D01*
X1280000Y-181658D01*
X1480000Y-82402D02*
G01*
X1480000Y-108341D01*
X1320000Y-145000D02*
G01*
X1360000Y-145000D01*
X1360000Y-105000D01*
X1360000Y-145000D02*
G01*
X1360000Y-185000D01*
X1440000Y-145000D02*
G01*
X1400000Y-145000D01*
X1400000Y-105000D02*
G01*
X1400000Y-185000D01*
X2865000Y543341D02*
G01*
X2865000Y517402D01*
X2665393Y517402D01*
X2665000Y616658D02*
G01*
X2665000Y642597D01*
X2865000Y642597D01*
X2865000Y616658D01*
X2665000Y517402D02*
G01*
X2665000Y543341D01*
X2825000Y580000D02*
G01*
X2785000Y580000D01*
X2785000Y540000D01*
X2785000Y580000D02*
G01*
X2785000Y620000D01*
X2705000Y580000D02*
G01*
X2745000Y580000D01*
X2745000Y540000D02*
G01*
X2745000Y620000D01*
X3089994Y939998D02*
G01*
X3109994Y939998D01*
X3059994Y940001D02*
G01*
X3039994Y940001D01*
X3064994Y970000D02*
G01*
X3064994Y910000D01*
X3089994Y970000D02*
G01*
X3089994Y910000D01*
X3189994Y910000D02*
G01*
X3189994Y860000D01*
X3189994Y855000D01*
X2959994Y855000D01*
X2959994Y911802D01*
X2959994Y970000D02*
G01*
X2959994Y1020000D01*
X2959994Y1025000D01*
X3189994Y1025000D01*
X3189994Y968197D01*
X2100005Y970001D02*
G01*
X2080005Y970001D01*
X2130005Y969998D02*
G01*
X2150005Y969998D01*
X2125005Y940000D02*
G01*
X2125005Y1000000D01*
X2100005Y940000D02*
G01*
X2100005Y1000000D01*
X2000005Y1000000D02*
G01*
X2000005Y1050000D01*
X2000005Y1055000D01*
X2230005Y1055000D01*
X2230005Y998197D01*
X2230005Y940000D02*
G01*
X2230005Y890000D01*
X2230005Y885000D01*
X2000005Y885000D01*
X2000005Y941802D01*
D13*
X210019Y1448870D02*
G01*
X367519Y1448870D01*
X367519Y1460670D01*
X925219Y1460670D01*
X925219Y1128470D01*
X367519Y1128470D01*
X367519Y1203969D01*
X210019Y1203969D01*
X210019Y1448870D01*
D12*
X1594368Y1035983D02*
G01*
X1594368Y784016D01*
X965038Y784016D02*
G01*
X1594960Y784016D01*
X965038Y1035983D02*
G01*
X1594960Y1035983D01*
X965038Y1035983D02*
G01*
X965038Y784016D01*
X2424368Y1430983D02*
G01*
X2424368Y1179016D01*
X1795038Y1179016D02*
G01*
X2424960Y1179016D01*
X1795038Y1430983D02*
G01*
X2424960Y1430983D01*
X1795038Y1430983D02*
G01*
X1795038Y1179016D01*
X1513891Y525000D02*
G01*
X1475000Y525000D01*
X906108Y525000D02*
G01*
X945000Y525000D01*
X945000Y416732D02*
G01*
X1475000Y416732D01*
X945000Y633267D02*
G01*
X1475000Y633267D01*
X945000Y633267D02*
G01*
X945000Y416732D01*
X1475000Y633267D02*
G01*
X1475000Y416732D01*
X405000Y-313306D02*
G01*
X405000Y-683306D01*
X780000Y-683306D01*
X780000Y-308306D01*
X765000Y-308306D01*
X765000Y-328306D01*
X430000Y-328306D01*
X430000Y-313306D01*
X405000Y-313306D01*
X648285Y-517988D02*
G01*
X541574Y-517988D01*
X1115000Y-318306D02*
G01*
X1115000Y-688306D01*
X1490000Y-688306D01*
X1490000Y-313306D01*
X1475000Y-313306D01*
X1475000Y-333306D01*
X1140000Y-333306D01*
X1140000Y-318306D01*
X1115000Y-318306D01*
X1358285Y-522988D02*
G01*
X1251575Y-522988D01*
X1780000Y-323306D02*
G01*
X1780000Y-693306D01*
X2155000Y-693306D01*
X2155000Y-318306D01*
X2140000Y-318306D01*
X2140000Y-338306D01*
X1805000Y-338306D01*
X1805000Y-323306D01*
X1780000Y-323306D01*
X2023285Y-527988D02*
G01*
X1916575Y-527988D01*
X2515000Y-308306D02*
G01*
X2515000Y-678306D01*
X2890000Y-678306D01*
X2890000Y-303306D01*
X2875000Y-303306D01*
X2875000Y-323306D01*
X2540000Y-323306D01*
X2540000Y-308306D01*
X2515000Y-308306D01*
X2758285Y-512988D02*
G01*
X2651575Y-512988D01*
X3225000Y-318306D02*
G01*
X3225000Y-688306D01*
X3600000Y-688306D01*
X3600000Y-313306D01*
X3585000Y-313306D01*
X3585000Y-333306D01*
X3250000Y-333306D01*
X3250000Y-318306D01*
X3225000Y-318306D01*
X3468285Y-522988D02*
G01*
X3361575Y-522988D01*
X2520000Y715000D02*
G01*
X1720000Y715000D01*
X1720000Y315000D02*
G01*
X2520000Y315000D01*
X2520000Y715000D02*
G01*
X2520000Y615000D01*
X1720000Y715000D02*
G01*
X1720000Y615000D01*
X1720000Y315000D02*
G01*
X1720000Y415000D01*
X1720000Y615000D02*
G01*
X2520000Y615000D01*
X1720000Y615000D02*
G01*
X1720000Y555000D01*
X2520000Y615000D02*
G01*
X2520000Y415000D01*
X1720000Y415000D02*
G01*
X2520000Y415000D01*
X1720000Y415000D02*
G01*
X1720000Y475000D01*
X2520000Y415000D02*
G01*
X2520000Y315000D01*
X387519Y677042D02*
G01*
X450219Y677042D01*
X465019Y662242D01*
X465019Y602242D01*
X450019Y587242D01*
X387519Y587242D01*
X387519Y930000D02*
G01*
X387519Y530000D01*
X387501Y879796D02*
G01*
X450201Y879796D01*
X465001Y864996D01*
X465001Y804996D01*
X450001Y789996D01*
X387501Y789996D01*
X710354Y530000D02*
G01*
X387519Y530000D01*
X710354Y930000D02*
G01*
X710354Y530000D01*
X710354Y930000D02*
G01*
X387519Y930000D01*
X442640Y950466D02*
G01*
X442640Y930776D01*
X407211Y930776D01*
X407211Y950466D01*
X442640Y950466D01*
X377519Y117042D02*
G01*
X440219Y117042D01*
X455019Y102242D01*
X455019Y42242D01*
X440019Y27242D01*
X377519Y27242D01*
X377519Y370000D02*
G01*
X377519Y-30000D01*
X377501Y319796D02*
G01*
X440201Y319796D01*
X455001Y304996D01*
X455001Y244996D01*
X440001Y229996D01*
X377501Y229996D01*
X700354Y-30000D02*
G01*
X377519Y-30000D01*
X700354Y370000D02*
G01*
X700354Y-30000D01*
X700354Y370000D02*
G01*
X377519Y370000D01*
X432640Y390466D02*
G01*
X432640Y370776D01*
X397211Y370776D01*
X397211Y390466D01*
X432640Y390466D01*
G75*
G01*
X594975Y-464689D02*
G03*
X595975Y-464689I500J-53284D01*
G75*
G01*
X1304975Y-469689D02*
G03*
X1305975Y-469689I500J-53284D01*
G75*
G01*
X1969975Y-474689D02*
G03*
X1970975Y-474689I500J-53284D01*
G75*
G01*
X2704975Y-459689D02*
G03*
X2705975Y-459689I500J-53284D01*
G75*
G01*
X3414975Y-469689D02*
G03*
X3415975Y-469689I500J-53284D01*
G75*
G01*
X1720001Y555000D02*
G02*
X1720001Y475000I0J-40000D01*
G75*
G01
X2999000Y1305000D02*
G03X2999000Y1305000I-124000J0D01*
G75*
G01
X3519000Y1310000D02*
G03X3519000Y1310000I-124000J0D01*
D14*
G75*
G01
X355910Y1185000D02*
G03X355910Y1185000I-5910J0D01*
D12*
G75*
G01
X1593430Y1285000D02*
G03X1593430Y1285000I-98430J0D01*
G75*
G01
X1073430Y-110000D02*
G03X1073430Y-110000I-98430J0D01*
M02*
