M48
INCH,LZ
;FILE_FORMAT=2:4
;TYPE=PLATED
;Layer: PTH_Through
;EasyEDA v6.5.22, 2022-11-10 10:58:02
;6b3d640ebf974b0b8646ff979dfa74d8,4d8ab2db40884aeb91e54047068f32cb,10
;Gerber Generator version 0.2
;Holesize 1 = 0.0300 inch
T01C0.0300
;Holesize 2 = 0.0390 inch
T02C0.0390
;Holesize 3 = 0.0430 inch
T03C0.0430
;Holesize 4 = 0.0630 inch
T04C0.0630
%
G05
G90
T01
X011350Y-001700
X011350Y-000700
X011350Y-002700
X011100Y004800
X011100Y005800
X011100Y003800
T02
X016666Y010050
X018634Y010050
X022266Y010050
X024234Y010050
T03
X022766Y-001350
X024734Y-001350
X022466Y005050
X024434Y005050
X015466Y-001150
X017434Y-001150
X015416Y005000
X017384Y005000
X016400Y013150
X017400Y013150
X018400Y013150
X019400Y013150
X020400Y013150
X021400Y013150
X022400Y013150
X023400Y013150
X024400Y013150
T04
X028900Y005450
X030900Y005450
X029050Y-000850
X031050Y-000850
X028700Y011550
X030700Y011550
M30
