G04 Layer: TopSilkscreenLayer*
G04 EasyEDA v6.5.22, 2022-11-10 10:58:02*
G04 6b3d640ebf974b0b8646ff979dfa74d8,4d8ab2db40884aeb91e54047068f32cb,10*
G04 Gerber Generator version 0.2*
G04 Scale: 100 percent, Rotated: No, Reflected: No *
G04 Dimensions in inches *
G04 leading zeros omitted , absolute positions ,3 integer and 6 decimal *
%FSLAX36Y36*%
%MOIN*%

%ADD10C,0.0060*%
%ADD11C,0.0100*%

%LPD*%
D10*
X1787875Y1110199D02*
G01*
X1785775Y1114299D01*
X1781674Y1118400D01*
X1777674Y1120399D01*
X1769475Y1120399D01*
X1765375Y1118400D01*
X1761274Y1114299D01*
X1759174Y1110199D01*
X1757174Y1104000D01*
X1757174Y1093800D01*
X1759174Y1087699D01*
X1761274Y1083600D01*
X1765375Y1079499D01*
X1769475Y1077500D01*
X1777674Y1077500D01*
X1781674Y1079499D01*
X1785775Y1083600D01*
X1787875Y1087699D01*
X1801374Y1112199D02*
G01*
X1805474Y1114299D01*
X1811575Y1120399D01*
X1811575Y1077500D01*
X2347875Y1110199D02*
G01*
X2345775Y1114299D01*
X2341674Y1118400D01*
X2337674Y1120399D01*
X2329475Y1120399D01*
X2325375Y1118400D01*
X2321274Y1114299D01*
X2319174Y1110199D01*
X2317174Y1104000D01*
X2317174Y1093800D01*
X2319174Y1087699D01*
X2321274Y1083600D01*
X2325375Y1079499D01*
X2329475Y1077500D01*
X2337674Y1077500D01*
X2341674Y1079499D01*
X2345775Y1083600D01*
X2347875Y1087699D01*
X2363374Y1110199D02*
G01*
X2363374Y1112199D01*
X2365474Y1116300D01*
X2367475Y1118400D01*
X2371575Y1120399D01*
X2379774Y1120399D01*
X2383874Y1118400D01*
X2385874Y1116300D01*
X2387974Y1112199D01*
X2387974Y1108099D01*
X2385874Y1104000D01*
X2381774Y1097899D01*
X2361374Y1077500D01*
X2389975Y1077500D01*
X2395694Y155199D02*
G01*
X2393594Y159299D01*
X2389494Y163400D01*
X2385495Y165399D01*
X2377295Y165399D01*
X2373194Y163400D01*
X2369094Y159299D01*
X2366994Y155199D01*
X2364994Y149000D01*
X2364994Y138800D01*
X2366994Y132699D01*
X2369094Y128600D01*
X2373194Y124499D01*
X2377295Y122500D01*
X2385495Y122500D01*
X2389494Y124499D01*
X2393594Y128600D01*
X2395694Y132699D01*
X2429594Y165399D02*
G01*
X2409194Y136799D01*
X2439894Y136799D01*
X2429594Y165399D02*
G01*
X2429594Y122500D01*
X2365694Y795199D02*
G01*
X2363594Y799299D01*
X2359494Y803400D01*
X2355495Y805399D01*
X2347295Y805399D01*
X2343194Y803400D01*
X2339094Y799299D01*
X2336994Y795199D01*
X2334994Y789000D01*
X2334994Y778800D01*
X2336994Y772699D01*
X2339094Y768600D01*
X2343194Y764499D01*
X2347295Y762500D01*
X2355495Y762500D01*
X2359494Y764499D01*
X2363594Y768600D01*
X2365694Y772699D01*
X2403694Y805399D02*
G01*
X2383294Y805399D01*
X2381194Y786999D01*
X2383294Y789000D01*
X2389395Y791100D01*
X2395495Y791100D01*
X2401694Y789000D01*
X2405794Y785000D01*
X2407794Y778800D01*
X2407794Y774699D01*
X2405794Y768600D01*
X2401694Y764499D01*
X2395495Y762500D01*
X2389395Y762500D01*
X2383294Y764499D01*
X2381194Y766500D01*
X2379194Y770599D01*
X1665694Y175199D02*
G01*
X1663594Y179299D01*
X1659494Y183400D01*
X1655495Y185399D01*
X1647295Y185399D01*
X1643194Y183400D01*
X1639094Y179299D01*
X1636994Y175199D01*
X1634994Y169000D01*
X1634994Y158800D01*
X1636994Y152699D01*
X1639094Y148600D01*
X1643194Y144499D01*
X1647295Y142500D01*
X1655495Y142500D01*
X1659494Y144499D01*
X1663594Y148600D01*
X1665694Y152699D01*
X1703694Y179299D02*
G01*
X1701694Y183400D01*
X1695495Y185399D01*
X1691495Y185399D01*
X1685294Y183400D01*
X1681194Y177199D01*
X1679194Y166999D01*
X1679194Y156799D01*
X1681194Y148600D01*
X1685294Y144499D01*
X1691495Y142500D01*
X1693495Y142500D01*
X1699594Y144499D01*
X1703694Y148600D01*
X1705794Y154699D01*
X1705794Y156799D01*
X1703694Y162899D01*
X1699594Y166999D01*
X1693495Y169000D01*
X1691495Y169000D01*
X1685294Y166999D01*
X1681194Y162899D01*
X1679194Y156799D01*
X1660694Y790199D02*
G01*
X1658594Y794299D01*
X1654494Y798400D01*
X1650495Y800399D01*
X1642295Y800399D01*
X1638194Y798400D01*
X1634094Y794299D01*
X1631994Y790199D01*
X1629994Y784000D01*
X1629994Y773800D01*
X1631994Y767699D01*
X1634094Y763600D01*
X1638194Y759499D01*
X1642295Y757500D01*
X1650495Y757500D01*
X1654494Y759499D01*
X1658594Y763600D01*
X1660694Y767699D01*
X1702794Y800399D02*
G01*
X1682394Y757500D01*
X1674194Y800399D02*
G01*
X1702794Y800399D01*
X2970000Y800399D02*
G01*
X2970000Y757500D01*
X2970000Y757500D02*
G01*
X2994499Y757500D01*
X3008000Y800399D02*
G01*
X3008000Y757500D01*
X3008000Y800399D02*
G01*
X3034600Y800399D01*
X3008000Y780000D02*
G01*
X3024399Y780000D01*
X3008000Y757500D02*
G01*
X3034600Y757500D01*
X3048100Y800399D02*
G01*
X3048100Y757500D01*
X3048100Y800399D02*
G01*
X3074700Y800399D01*
X3048100Y780000D02*
G01*
X3064499Y780000D01*
X3102500Y800399D02*
G01*
X3102500Y757500D01*
X3088199Y800399D02*
G01*
X3116899Y800399D01*
X2985000Y170399D02*
G01*
X2985000Y127500D01*
X2985000Y170399D02*
G01*
X3003400Y170399D01*
X3009499Y168400D01*
X3011599Y166300D01*
X3013599Y162199D01*
X3013599Y158099D01*
X3011599Y154000D01*
X3009499Y151999D01*
X3003400Y150000D01*
X2985000Y150000D01*
X2999300Y150000D02*
G01*
X3013599Y127500D01*
X3027100Y170399D02*
G01*
X3027100Y127500D01*
X3071300Y160199D02*
G01*
X3069300Y164299D01*
X3065200Y168400D01*
X3061099Y170399D01*
X3052899Y170399D01*
X3048800Y168400D01*
X3044700Y164299D01*
X3042700Y160199D01*
X3040600Y154000D01*
X3040600Y143800D01*
X3042700Y137699D01*
X3044700Y133600D01*
X3048800Y129499D01*
X3052899Y127500D01*
X3061099Y127500D01*
X3065200Y129499D01*
X3069300Y133600D01*
X3071300Y137699D01*
X3071300Y143800D01*
X3061099Y143800D02*
G01*
X3071300Y143800D01*
X3084799Y170399D02*
G01*
X3084799Y127500D01*
X3113500Y170399D02*
G01*
X3113500Y127500D01*
X3084799Y150000D02*
G01*
X3113500Y150000D01*
X3141300Y170399D02*
G01*
X3141300Y127500D01*
X3126999Y170399D02*
G01*
X3155600Y170399D01*
X2950000Y1410399D02*
G01*
X2950000Y1379699D01*
X2951999Y1373600D01*
X2956099Y1369499D01*
X2962299Y1367500D01*
X2966400Y1367500D01*
X2972500Y1369499D01*
X2976599Y1373600D01*
X2978599Y1379699D01*
X2978599Y1410399D01*
X2996199Y1410399D02*
G01*
X3018699Y1410399D01*
X3006499Y1394000D01*
X3012600Y1394000D01*
X3016700Y1391999D01*
X3018699Y1390000D01*
X3020799Y1383800D01*
X3020799Y1379699D01*
X3018699Y1373600D01*
X3014600Y1369499D01*
X3008500Y1367500D01*
X3002399Y1367500D01*
X2996199Y1369499D01*
X2994200Y1371500D01*
X2992100Y1375599D01*
X1132362Y65799D02*
G01*
X1132362Y22899D01*
X1132362Y65799D02*
G01*
X1150762Y65799D01*
X1156862Y63800D01*
X1158962Y61700D01*
X1160961Y57600D01*
X1160961Y53499D01*
X1158962Y49400D01*
X1156862Y47399D01*
X1150762Y45399D01*
X1132362Y45399D01*
X1146661Y45399D02*
G01*
X1160961Y22899D01*
X1174462Y57600D02*
G01*
X1178562Y59699D01*
X1184762Y65799D01*
X1184762Y22899D01*
X1107362Y715799D02*
G01*
X1107362Y672899D01*
X1107362Y715799D02*
G01*
X1125762Y715799D01*
X1131862Y713800D01*
X1133962Y711700D01*
X1135961Y707600D01*
X1135961Y703499D01*
X1133962Y699400D01*
X1131862Y697399D01*
X1125762Y695399D01*
X1107362Y695399D01*
X1121661Y695399D02*
G01*
X1135961Y672899D01*
X1151562Y705599D02*
G01*
X1151562Y707600D01*
X1153562Y711700D01*
X1155662Y713800D01*
X1159762Y715799D01*
X1167861Y715799D01*
X1171962Y713800D01*
X1174062Y711700D01*
X1176062Y707600D01*
X1176062Y703499D01*
X1174062Y699400D01*
X1169961Y693299D01*
X1149462Y672899D01*
X1178162Y672899D01*
X2030000Y1430399D02*
G01*
X2030000Y1399699D01*
X2031999Y1393600D01*
X2036099Y1389499D01*
X2042299Y1387500D01*
X2046400Y1387500D01*
X2052500Y1389499D01*
X2056599Y1393600D01*
X2058599Y1399699D01*
X2058599Y1430399D01*
X2072100Y1422199D02*
G01*
X2076199Y1424299D01*
X2082399Y1430399D01*
X2082399Y1387500D01*
X872865Y1105000D02*
G01*
X903564Y1105000D01*
X909665Y1106999D01*
X913765Y1111100D01*
X915765Y1117300D01*
X915765Y1121399D01*
X913765Y1127500D01*
X909665Y1131599D01*
X903564Y1133600D01*
X872865Y1133600D01*
X883064Y1149200D02*
G01*
X881064Y1149200D01*
X876965Y1151199D01*
X874864Y1153299D01*
X872865Y1157399D01*
X872865Y1165500D01*
X874864Y1169600D01*
X876965Y1171700D01*
X881064Y1173699D01*
X885164Y1173699D01*
X889264Y1171700D01*
X895365Y1167600D01*
X915765Y1147100D01*
X915765Y1175799D01*
G36*
X2522640Y61840D02*
G01*
X2522640Y-331840D01*
X2554580Y-299860D01*
X2560620Y-293340D01*
X2566420Y-286600D01*
X2571960Y-279660D01*
X2577240Y-272500D01*
X2582240Y-265160D01*
X2586960Y-257640D01*
X2591400Y-249940D01*
X2595560Y-242079D01*
X2599420Y-234080D01*
X2602980Y-225940D01*
X2606220Y-217659D01*
X2609160Y-209280D01*
X2611780Y-200780D01*
X2614080Y-192200D01*
X2616040Y-183540D01*
X2616920Y-179180D01*
X2618399Y-170420D01*
X2619560Y-161600D01*
X2620400Y-152760D01*
X2620899Y-143880D01*
X2621060Y-135000D01*
X2620899Y-126120D01*
X2620400Y-117240D01*
X2619560Y-108400D01*
X2618399Y-99580D01*
X2616920Y-90820D01*
X2615100Y-82120D01*
X2614080Y-77800D01*
X2611780Y-69220D01*
X2609160Y-60720D01*
X2606220Y-52340D01*
X2602980Y-44060D01*
X2599420Y-35920D01*
X2595560Y-27919D01*
X2591400Y-20059D01*
X2586960Y-12360D01*
X2582240Y-4840D01*
X2577240Y2500D01*
X2571960Y9660D01*
X2566420Y16600D01*
X2560620Y23340D01*
X2554580Y29860D01*
G37*
G36*
X2492640Y701840D02*
G01*
X2492640Y308160D01*
X2524580Y340140D01*
X2530620Y346659D01*
X2536420Y353400D01*
X2541960Y360340D01*
X2547240Y367500D01*
X2552240Y374840D01*
X2556960Y382360D01*
X2561400Y390060D01*
X2565560Y397920D01*
X2569420Y405920D01*
X2572980Y414060D01*
X2576220Y422340D01*
X2579160Y430720D01*
X2581780Y439219D01*
X2584080Y447800D01*
X2586040Y456460D01*
X2586920Y460820D01*
X2588399Y469580D01*
X2589560Y478400D01*
X2590400Y487239D01*
X2590899Y496120D01*
X2591060Y505000D01*
X2590899Y513880D01*
X2590400Y522760D01*
X2589560Y531600D01*
X2588399Y540420D01*
X2586920Y549180D01*
X2585100Y557880D01*
X2584080Y562200D01*
X2581780Y570780D01*
X2579160Y579280D01*
X2576220Y587660D01*
X2572980Y595940D01*
X2569420Y604080D01*
X2565560Y612080D01*
X2561400Y619940D01*
X2556960Y627640D01*
X2552240Y635160D01*
X2547240Y642500D01*
X2541960Y649659D01*
X2536420Y656600D01*
X2530620Y663340D01*
X2524580Y669860D01*
G37*
G36*
X1792640Y81840D02*
G01*
X1792640Y-311840D01*
X1824580Y-279860D01*
X1830620Y-273340D01*
X1836420Y-266600D01*
X1841960Y-259660D01*
X1847240Y-252500D01*
X1852240Y-245159D01*
X1856960Y-237640D01*
X1861399Y-229940D01*
X1865560Y-222079D01*
X1869420Y-214080D01*
X1872980Y-205940D01*
X1876220Y-197659D01*
X1879160Y-189280D01*
X1881780Y-180780D01*
X1884079Y-172200D01*
X1886040Y-163540D01*
X1886920Y-159180D01*
X1888400Y-150420D01*
X1889560Y-141600D01*
X1890400Y-132760D01*
X1890900Y-123880D01*
X1891060Y-115000D01*
X1890900Y-106120D01*
X1890400Y-97240D01*
X1889560Y-88400D01*
X1888400Y-79580D01*
X1886920Y-70820D01*
X1885100Y-62120D01*
X1884079Y-57800D01*
X1881780Y-49220D01*
X1879160Y-40720D01*
X1876220Y-32340D01*
X1872980Y-24060D01*
X1869420Y-15920D01*
X1865560Y-7920D01*
X1861399Y-60D01*
X1856960Y7640D01*
X1852240Y15160D01*
X1847240Y22500D01*
X1841960Y29660D01*
X1836420Y36600D01*
X1830620Y43339D01*
X1824580Y49860D01*
G37*
G36*
X1787640Y696840D02*
G01*
X1787640Y303160D01*
X1819580Y335140D01*
X1825620Y341659D01*
X1831420Y348400D01*
X1836960Y355340D01*
X1842240Y362500D01*
X1847240Y369840D01*
X1851960Y377360D01*
X1856399Y385060D01*
X1860560Y392920D01*
X1864420Y400920D01*
X1867980Y409060D01*
X1871220Y417340D01*
X1874160Y425720D01*
X1876780Y434219D01*
X1879079Y442800D01*
X1881040Y451460D01*
X1881920Y455820D01*
X1883400Y464580D01*
X1884560Y473400D01*
X1885400Y482239D01*
X1885900Y491120D01*
X1886060Y500000D01*
X1885900Y508880D01*
X1885400Y517760D01*
X1884560Y526600D01*
X1883400Y535420D01*
X1881920Y544180D01*
X1880100Y552880D01*
X1879079Y557200D01*
X1876780Y565780D01*
X1874160Y574280D01*
X1871220Y582660D01*
X1867980Y590940D01*
X1864420Y599080D01*
X1860560Y607080D01*
X1856399Y614940D01*
X1851960Y622640D01*
X1847240Y630160D01*
X1842240Y637500D01*
X1836960Y644659D01*
X1831420Y651600D01*
X1825620Y658340D01*
X1819580Y664860D01*
G37*
D11*
X1607514Y1054214D02*
G01*
X1922475Y1054212D01*
X1922475Y955785D02*
G01*
X1607514Y955787D01*
X1607514Y1054214D02*
G01*
X1607514Y955787D01*
X1922475Y1054212D02*
G01*
X1922475Y955785D01*
X2167514Y1054214D02*
G01*
X2482475Y1054212D01*
X2482475Y955785D02*
G01*
X2167514Y955787D01*
X2167514Y1054214D02*
G01*
X2167514Y955787D01*
X2482475Y1054212D02*
G01*
X2482475Y955785D01*
X2211994Y-128000D02*
G01*
X2145995Y-128000D01*
X2177995Y-160999D02*
G01*
X2177995Y-93000D01*
X2181994Y511999D02*
G01*
X2115995Y511999D01*
X2147995Y479000D02*
G01*
X2147995Y546999D01*
X1481994Y-108000D02*
G01*
X1415995Y-108000D01*
X1447995Y-140999D02*
G01*
X1447995Y-73000D01*
X1476994Y506999D02*
G01*
X1410995Y506999D01*
X1442995Y474000D02*
G01*
X1442995Y541999D01*
X2793541Y737912D02*
G01*
X3182912Y737912D01*
X2793541Y737912D02*
G01*
X2793542Y344214D01*
X2794723Y344214D02*
G01*
X3186457Y344214D01*
X3186458Y737912D02*
G01*
X3186457Y344214D01*
X2793541Y645000D02*
G01*
X3186457Y645000D01*
X2770000Y710050D02*
G01*
X2793622Y710050D01*
X2770000Y663236D02*
G01*
X2770000Y710050D01*
X2793622Y663236D02*
G01*
X2770000Y663236D01*
X2770000Y365000D02*
G01*
X2770000Y410050D01*
X2793622Y410050D01*
X2793622Y365000D02*
G01*
X2770000Y365000D01*
X3154856Y393892D02*
G01*
X3110622Y349659D01*
X3110622Y345787D01*
X3061621Y345787D02*
G01*
X3013515Y393892D01*
X3008621Y393892D01*
X2955622Y393892D02*
G01*
X2907622Y345893D01*
X2907622Y345787D01*
X2868621Y345787D02*
G01*
X2821621Y392786D01*
X2821621Y393892D01*
X2793541Y393894D02*
G01*
X3186457Y393894D01*
X2793541Y447808D02*
G01*
X2794877Y446471D01*
X3186457Y446471D01*
X2793541Y691806D02*
G01*
X3186457Y691806D01*
X2808541Y107912D02*
G01*
X3197912Y107912D01*
X2808541Y107912D02*
G01*
X2808542Y-285785D01*
X2809723Y-285785D02*
G01*
X3201457Y-285785D01*
X3201458Y107912D02*
G01*
X3201457Y-285785D01*
X2808541Y15000D02*
G01*
X3201457Y15000D01*
X2785000Y80050D02*
G01*
X2808622Y80050D01*
X2785000Y33236D02*
G01*
X2785000Y80050D01*
X2808622Y33236D02*
G01*
X2785000Y33236D01*
X2785000Y-265000D02*
G01*
X2785000Y-219949D01*
X2808622Y-219949D01*
X2808622Y-265000D02*
G01*
X2785000Y-265000D01*
X3169856Y-236107D02*
G01*
X3125622Y-280340D01*
X3125622Y-284212D01*
X3076621Y-284212D02*
G01*
X3028515Y-236107D01*
X3023621Y-236107D01*
X2970622Y-236107D02*
G01*
X2922622Y-284106D01*
X2922622Y-284212D01*
X2883621Y-284212D02*
G01*
X2836621Y-237213D01*
X2836621Y-236107D01*
X2808541Y-236105D02*
G01*
X3201457Y-236105D01*
X2808541Y-182192D02*
G01*
X2809877Y-183528D01*
X3201457Y-183528D01*
X2808541Y61806D02*
G01*
X3201457Y61806D01*
X2773541Y1347912D02*
G01*
X3162912Y1347912D01*
X2773541Y1347912D02*
G01*
X2773542Y954214D01*
X2774723Y954214D02*
G01*
X3166457Y954214D01*
X3166458Y1347912D02*
G01*
X3166457Y954214D01*
X2773541Y1255000D02*
G01*
X3166457Y1255000D01*
X2750000Y1320050D02*
G01*
X2773622Y1320050D01*
X2750000Y1273236D02*
G01*
X2750000Y1320050D01*
X2773622Y1273236D02*
G01*
X2750000Y1273236D01*
X2750000Y975000D02*
G01*
X2750000Y1020050D01*
X2773622Y1020050D01*
X2773622Y975000D02*
G01*
X2750000Y975000D01*
X3134856Y1003892D02*
G01*
X3090622Y959659D01*
X3090622Y955787D01*
X3041621Y955787D02*
G01*
X2993515Y1003892D01*
X2988621Y1003892D01*
X2935622Y1003892D02*
G01*
X2887622Y955893D01*
X2887622Y955787D01*
X2848621Y955787D02*
G01*
X2801621Y1002786D01*
X2801621Y1003892D01*
X2773541Y1003894D02*
G01*
X3166457Y1003894D01*
X2773541Y1057808D02*
G01*
X2774877Y1056471D01*
X3166457Y1056471D01*
X2773541Y1301806D02*
G01*
X3166457Y1301806D01*
X1187362Y-59600D02*
G01*
X1202362Y-59600D01*
X1217362Y-59600D01*
X1202362Y-59600D01*
X1027362Y20000D02*
G01*
X1237362Y20000D01*
X1237362Y-360000D01*
X1027362Y-360000D01*
X1027362Y20000D01*
X1033422Y17010D02*
G01*
X1041292Y17010D01*
X1041292Y-12989D01*
X1033422Y-12989D01*
X1033422Y17010D01*
X1033422Y-326999D02*
G01*
X1041292Y-326999D01*
X1041292Y-356999D01*
X1033422Y-356999D01*
X1033422Y-326999D01*
X1162362Y590399D02*
G01*
X1177362Y590399D01*
X1192362Y590399D01*
X1177362Y590399D01*
X1002362Y670000D02*
G01*
X1212362Y670000D01*
X1212362Y290000D01*
X1002362Y290000D01*
X1002362Y670000D01*
X1008422Y667010D02*
G01*
X1016292Y667010D01*
X1016292Y637010D01*
X1008422Y637010D01*
X1008422Y667010D01*
X1008422Y323000D02*
G01*
X1016292Y323000D01*
X1016292Y293000D01*
X1008422Y293000D01*
X1008422Y323000D01*
X1598999Y1299000D02*
G01*
X1598999Y1264000D01*
X1598999Y1264000D02*
G01*
X1603000Y1264000D01*
X1615000Y1365999D02*
G01*
X1598999Y1323000D01*
X1598999Y1323000D02*
G01*
X1598999Y1306999D01*
X1598999Y1306999D02*
G01*
X1598999Y1299000D01*
X1598999Y1299000D02*
G01*
X1603000Y1264000D01*
X2476999Y1264000D02*
G01*
X2481000Y1306999D01*
X2481000Y1306999D02*
G01*
X2481000Y1323000D01*
X2481000Y1323000D02*
G01*
X2465000Y1365999D01*
X1600000Y1325000D02*
G01*
X1601369Y1325000D01*
X1678630Y1325000D02*
G01*
X1701369Y1325000D01*
X1778630Y1325000D02*
G01*
X1801369Y1325000D01*
X1878630Y1325000D02*
G01*
X1901369Y1325000D01*
X1978630Y1325000D02*
G01*
X2001369Y1325000D01*
X2078630Y1325000D02*
G01*
X2101369Y1325000D01*
X2178630Y1325000D02*
G01*
X2201369Y1325000D01*
X2278630Y1325000D02*
G01*
X2301369Y1325000D01*
X2378630Y1325000D02*
G01*
X2401369Y1325000D01*
X2478630Y1325000D02*
G01*
X2481000Y1325000D01*
X1598999Y1306999D02*
G01*
X1601369Y1306999D01*
X1678630Y1306999D02*
G01*
X1701369Y1306999D01*
X1778630Y1306999D02*
G01*
X1801369Y1306999D01*
X1878630Y1306999D02*
G01*
X1901369Y1306999D01*
X1978630Y1306999D02*
G01*
X2001369Y1306999D01*
X2078630Y1306999D02*
G01*
X2101369Y1306999D01*
X2178630Y1306999D02*
G01*
X2201369Y1306999D01*
X2278630Y1306999D02*
G01*
X2301369Y1306999D01*
X2378630Y1306999D02*
G01*
X2401369Y1306999D01*
X2478630Y1306999D02*
G01*
X2480528Y1306999D01*
X1677146Y1365999D02*
G01*
X1702853Y1365999D01*
X1777146Y1365999D02*
G01*
X1802853Y1365999D01*
X1877146Y1365999D02*
G01*
X1902853Y1365999D01*
X1977146Y1365999D02*
G01*
X2002853Y1365999D01*
X2077146Y1365999D02*
G01*
X2102853Y1365999D01*
X2177146Y1365999D02*
G01*
X2202853Y1365999D01*
X2277146Y1365999D02*
G01*
X2302853Y1365999D01*
X2377146Y1365999D02*
G01*
X2402853Y1365999D01*
X1677146Y1264000D02*
G01*
X1702853Y1264000D01*
X1777146Y1264000D02*
G01*
X1802853Y1264000D01*
X1877146Y1264000D02*
G01*
X1902853Y1264000D01*
X1977146Y1264000D02*
G01*
X2002853Y1264000D01*
X2077146Y1264000D02*
G01*
X2102853Y1264000D01*
X2177146Y1264000D02*
G01*
X2202853Y1264000D01*
X2277146Y1264000D02*
G01*
X2302853Y1264000D01*
X2377146Y1264000D02*
G01*
X2402853Y1264000D01*
X2477146Y1264000D02*
G01*
X2480000Y1264000D01*
X1398824Y1228110D02*
G01*
X1477624Y1228110D01*
X1044525Y1208416D02*
G01*
X935000Y1208416D01*
X935000Y1010000D01*
X1044525Y1010000D01*
X1477624Y1228099D02*
G01*
X1489408Y1228099D01*
X1477595Y991889D02*
G01*
X1489408Y991889D01*
X1489408Y1228110D02*
G01*
X1489408Y991889D01*
X1044525Y991889D02*
G01*
X1044525Y1228110D01*
X1044525Y991889D02*
G01*
X1088575Y991889D01*
X1165829Y991889D02*
G01*
X1364165Y991889D01*
X1441419Y991889D02*
G01*
X1477595Y991889D01*
X1044525Y1228110D02*
G01*
X1167314Y1228110D01*
X1244570Y1228110D02*
G01*
X1398824Y1228110D01*
G75*
G01*
X1223609Y-59600D02*
G03*
X1223609Y-60000I-21259J-200D01*
G75*
G01*
X1198609Y590400D02*
G03*
X1198609Y590000I-21259J-200D01*
G75*
G01
X2621060Y-135000D02*
G03X2621060Y-135000I-246060J0D01*
G75*
G01
X2591060Y505000D02*
G03X2591060Y505000I-246060J0D01*
G75*
G01
X1891060Y-115000D02*
G03X1891060Y-115000I-246060J0D01*
G75*
G01
X1886060Y500000D02*
G03X1886060Y500000I-246060J0D01*
M02*
