G04 Layer: BottomLayer*
G04 EasyEDA v6.5.22, 2022-11-10 10:58:02*
G04 6b3d640ebf974b0b8646ff979dfa74d8,4d8ab2db40884aeb91e54047068f32cb,10*
G04 Gerber Generator version 0.2*
G04 Scale: 100 percent, Rotated: No, Reflected: No *
G04 Dimensions in inches *
G04 leading zeros omitted , absolute positions ,3 integer and 6 decimal *
%FSLAX36Y36*%
%MOIN*%

%ADD10C,0.0300*%
%ADD11C,0.0630*%
%ADD12C,0.0866*%
%ADD13C,0.0945*%
%ADD14C,0.0600*%
%ADD15R,0.0591X0.0921*%
%ADD16C,0.0240*%

%LPD*%
D10*
X1135000Y-270000D02*
G01*
X1043050Y-178049D01*
X1043050Y904250D01*
X1205789Y1066990D01*
X1205789Y1173420D01*
X2340000Y1396060D02*
G01*
X2283350Y1452710D01*
X1651049Y1452710D01*
X1541580Y1343240D01*
X1541580Y500000D01*
X2340000Y1315000D02*
G01*
X2340000Y1396060D01*
X2140000Y1315000D02*
G01*
X2140000Y133339D01*
X2357100Y-83760D01*
X2357100Y-166750D01*
X2307179Y-216669D01*
X1648249Y-216669D01*
X1546580Y-115000D01*
X2040000Y1396060D02*
G01*
X2039930Y1396129D01*
X1740069Y1396129D01*
X1740000Y1396060D01*
X2040000Y1315000D02*
G01*
X2040000Y1396060D01*
X1740000Y1317150D02*
G01*
X1740000Y1396060D01*
X1740000Y1317150D02*
G01*
X1740000Y1315000D01*
X3070000Y1155000D02*
G01*
X3090000Y1135000D01*
X3090000Y545000D01*
X3105000Y-85000D02*
G01*
X3105000Y530000D01*
X3090000Y545000D01*
X1740000Y1315000D02*
G01*
X1740000Y1049360D01*
X1740000Y1049360D02*
G01*
X1740000Y501570D01*
X1738429Y500000D01*
X1110000Y580000D02*
G01*
X1175739Y514259D01*
X1175739Y-29259D01*
X1135000Y-70000D01*
X2276580Y-135000D02*
G01*
X2027659Y113919D01*
X2027659Y997979D01*
X1840000Y1185639D01*
X1840000Y1315000D01*
X2440000Y1315000D02*
G01*
X2440000Y1021570D01*
X2423429Y1005000D01*
X1135000Y-170000D02*
G01*
X1640010Y335010D01*
X1640010Y978429D01*
X1666580Y1005000D01*
D11*
G01*
X1666580Y1005000D03*
G01*
X1863429Y1005000D03*
G01*
X2226580Y1005000D03*
G01*
X2423429Y1005000D03*
D12*
G01*
X2276580Y-135000D03*
G01*
X2473429Y-135000D03*
G01*
X2246580Y505000D03*
G01*
X2443429Y505000D03*
G01*
X1546580Y-115000D03*
G01*
X1743429Y-115000D03*
G01*
X1541580Y500000D03*
G01*
X1738419Y500000D03*
D13*
G01*
X2890000Y545000D03*
G01*
X3090000Y545000D03*
G01*
X2905000Y-85000D03*
G01*
X3105000Y-85000D03*
G01*
X2870000Y1155000D03*
G01*
X3070000Y1155000D03*
D14*
G01*
X1135000Y-170000D03*
G01*
X1135000Y-70000D03*
G01*
X1135000Y-270000D03*
G01*
X1110000Y480000D03*
G01*
X1110000Y580000D03*
G01*
X1110000Y380000D03*
D15*
G01*
X1640000Y1315000D03*
G01*
X1740000Y1315000D03*
G01*
X1840000Y1315000D03*
G01*
X1940000Y1315000D03*
G01*
X2040000Y1315000D03*
G01*
X2140000Y1315000D03*
G01*
X2240000Y1315000D03*
G01*
X2340000Y1315000D03*
G01*
X2440000Y1315000D03*
D16*
G01*
X1740000Y1049360D03*
G01*
X1205789Y1173420D03*
M02*
