M48
INCH,LZ
;FILE_FORMAT=2:4
;TYPE=PLATED
;Layer: PTH_Through_Via
;EasyEDA v6.5.22, 2022-11-10 13:02:32
;01bc966966e84c7b8353b39a3c1ed1af,4d8ab2db40884aeb91e54047068f32cb,10
;Gerber Generator version 0.2
;Holesize 1 = 0.0120 inch
T01C0.0120
%
G05
G90
T01
X045569Y014286
X037804Y-006089
X021794Y-001286
X034742Y-006977
X048778Y-022424
X048778Y016690
X012821Y004537
X025719Y013120
X023138Y-008153
X020736Y-000079
X022970Y001068
X022892Y008635
X027241Y011897
X008916Y005350
X006696Y002338
X010313Y006546
X017600Y016326
X045166Y015401
X013378Y011509
X019600Y014112
X009417Y007384
X023792Y018095
X010787Y008580
X012456Y003364
X032503Y-012133
X032273Y-009284
X031502Y-008433
X032936Y-004926
X035807Y008595
X035285Y-005559
X032003Y-008749
X032003Y-008276
X031394Y-015613
X040953Y-017973
X049279Y-017973
X032158Y-003281
X042532Y014417
X023561Y-015916
M30
