M48
INCH,LZ
;FILE_FORMAT=2:4
;TYPE=PLATED
;Layer: PTH_Through
;EasyEDA v6.5.22, 2022-11-10 13:02:32
;01bc966966e84c7b8353b39a3c1ed1af,4d8ab2db40884aeb91e54047068f32cb,10
;Gerber Generator version 0.2
;Holesize 1 = 0.0320 inch
T01C0.0320
;Holesize 2 = 0.0330 inch
T02C0.0330
;Holesize 3 = 0.0340 inch
T03C0.0340
;Holesize 4 = 0.0350 inch
T04C0.0350
;Holesize 5 = 0.0390 inch
T05C0.0390
;Holesize 6 = 0.0430 inch
T06C0.0430
;Holesize 7 = 0.0470 inch
T07C0.0470
;Holesize 8 = 0.0550 inch
T08C0.0550
;Holesize 9 = 0.0590 inch
T09C0.0590
%
G05
G90
T01
X018500Y-020650
X018500Y-018650
T02
X010998Y-015500
X013702Y-015500
T03
X013300Y-020950
X014300Y-020950
X015300Y-020950
X016300Y-020950
X016300Y-017950
X015300Y-017950
X014300Y-017950
X013300Y-017950
T04
X024250Y-009000
X024250Y-010000
X024250Y-013000
X024250Y-014000
X024250Y-011000
X024250Y-012000
X024250Y-015000
X027250Y-015000
X027250Y-014000
X027250Y-013000
X027250Y-012000
X027250Y-011000
X027250Y-010000
X027250Y-009000
T05
X033287Y-021300
X036713Y-021300
X019455Y000805
X018455Y000805
X017455Y000805
X020455Y000805
X016455Y000805
X016445Y006795
X020445Y006795
X019445Y006795
X017445Y006795
X018445Y006795
X026655Y000705
X025655Y000705
X024655Y000705
X027655Y000705
X023655Y000705
X023645Y006695
X027645Y006695
X026645Y006695
X024645Y006695
X025645Y006695
X033555Y000755
X032555Y000755
X031555Y000755
X034555Y000755
X030555Y000755
X030545Y006745
X034545Y006745
X033545Y006745
X031545Y006745
X032545Y006745
X040605Y000705
X039605Y000705
X038605Y000705
X041605Y000705
X037605Y000705
X037595Y006695
X041595Y006695
X040595Y006695
X038595Y006695
X039595Y006695
X011200Y007400
X011200Y006400
X011200Y005400
X011200Y004400
X011200Y003400
X011200Y002400
X011200Y001400
X011200Y000400
X008200Y000400
X008200Y001400
X008200Y002400
X008200Y003400
X008200Y004400
X008200Y005400
X008200Y006400
X008200Y007400
X015600Y017850
X016600Y017850
X017600Y017850
X018600Y017850
X019600Y017850
X020600Y017850
X021600Y017850
X022600Y017850
X022600Y014850
X021600Y014850
X020600Y014850
X019600Y014850
X018600Y014850
X017600Y014850
X016600Y014850
X015600Y014850
X033750Y-008250
X033750Y-009250
X033750Y-010250
X033750Y-011250
X033750Y-012250
X033750Y-013250
X033750Y-014250
X033750Y-015250
X030750Y-015250
X030750Y-014250
X030750Y-013250
X030750Y-012250
X030750Y-011250
X030750Y-010250
X030750Y-009250
X030750Y-008250
X047500Y015950
X047500Y014950
X047500Y013950
X047500Y012950
X047500Y011950
X047500Y010950
X047500Y009950
X047500Y008950
X044500Y008950
X044500Y009950
X044500Y010950
X044500Y011950
X044500Y012950
X044500Y013950
X044500Y014950
X044500Y015950
X021300Y-006550
X021300Y-007550
X021300Y-008550
X021300Y-009550
X021300Y-010550
X021300Y-011550
X021300Y-012550
X021300Y-013550
X018300Y-013550
X018300Y-012550
X018300Y-011550
X018300Y-010550
X018300Y-009550
X018300Y-008550
X018300Y-007550
X018300Y-006550
X039900Y-008150
X039900Y-009150
X039900Y-010150
X039900Y-011150
X039900Y-012150
X039900Y-013150
X039900Y-014150
X039900Y-015150
X036900Y-015150
X036900Y-014150
X036900Y-013150
X036900Y-012150
X036900Y-011150
X036900Y-010150
X036900Y-009150
X036900Y-008150
X046250Y-008300
X046250Y-009300
X046250Y-010300
X046250Y-011300
X046250Y-012300
X046250Y-013300
X046250Y-014300
X046250Y-015300
X043250Y-015300
X043250Y-014300
X043250Y-013300
X043250Y-012300
X043250Y-011300
X043250Y-010300
X043250Y-009300
X043250Y-008300
X026565Y-017950
X022235Y-017950
X032065Y-017900
X027735Y-017900
X020200Y-015335
X020200Y-019665
X014635Y-015400
X018965Y-015400
T06
X013216Y-009650
X015184Y-009650
T07
X023020Y-021686
X025580Y-021686
X025580Y-019914
X023020Y-019914
X028120Y-021636
X030680Y-021636
X030680Y-019864
X028120Y-019864
T08
X013600Y-002050
X013600Y-004050
X016550Y-002000
X016550Y-004000
X019350Y-002050
X019350Y-004050
X012000Y011950
X012000Y009950
X020450Y012050
X020450Y010050
X022850Y-002000
X022850Y-004000
X014900Y012050
X014900Y010050
X017750Y012100
X017750Y010100
X025350Y-002050
X025350Y-004050
X028000Y-002100
X028000Y-004100
X041150Y014900
X039150Y014900
X027150Y014900
X025150Y014900
X023100Y012000
X023100Y010000
X025800Y012050
X025800Y010050
X028350Y012000
X028350Y010000
X030950Y-002050
X030950Y-004050
X033550Y-002050
X033550Y-004050
X036200Y-002050
X036200Y-004050
X031100Y012050
X031100Y010050
X033700Y012050
X033700Y010050
X036200Y012100
X036200Y010100
X036250Y014900
X034250Y014900
X038800Y012050
X038800Y010050
X043850Y004350
X043850Y006350
X041450Y012050
X041450Y010050
X044350Y-002100
X044350Y-004100
X041550Y-002050
X041550Y-004050
X038900Y-001950
X038900Y-003950
X026850Y-006800
X024850Y-006800
T09
X008650Y-017700
X006650Y-017700
X008350Y-011000
X006350Y-011000
M30
