G04 Layer: TopLayer*
G04 EasyEDA v6.5.22, 2022-11-10 13:02:32*
G04 01bc966966e84c7b8353b39a3c1ed1af,4d8ab2db40884aeb91e54047068f32cb,10*
G04 Gerber Generator version 0.2*
G04 Scale: 100 percent, Rotated: No, Reflected: No *
G04 Dimensions in inches *
G04 leading zeros omitted , absolute positions ,3 integer and 6 decimal *
%FSLAX36Y36*%
%MOIN*%

%AMMACRO1*21,1,$1,$2,0,0,$3*%
%ADD10C,0.0300*%
%ADD11C,0.0630*%
%ADD12C,0.0866*%
%ADD13C,0.0709*%
%ADD14C,0.0787*%
%ADD15R,0.0630X0.0630*%
%ADD16C,0.0630*%
%ADD17O,0.098425X0.07873999999999999*%
%ADD18MACRO1,0.0788X0.0984X90.0000*%
%ADD19O,0.07873999999999999X0.098425*%
%ADD20MACRO1,0.0788X0.0984X0.0000*%
%ADD21MACRO1,0.0788X0.0984X-90.0000*%
%ADD22C,0.0490*%
%ADD23C,0.0984*%
%ADD24C,0.0240*%
%ADD25C,0.0135*%

%LPD*%
D10*
X2557950Y-2168580D02*
G01*
X2631719Y-2242350D01*
X4877799Y-2242350D01*
X809620Y629619D02*
G01*
X750659Y570659D01*
X750659Y109340D01*
X820000Y40000D01*
X820000Y640000D02*
G01*
X809620Y629619D01*
X809620Y629619D02*
G01*
X753290Y685940D01*
X753290Y937280D01*
X1371850Y1555839D01*
X1660000Y1555839D01*
X1660000Y1555839D02*
G01*
X2189160Y1555839D01*
X2260000Y1485000D01*
X1660000Y1485000D02*
G01*
X1660000Y1555839D01*
X1921080Y602919D02*
G01*
X2497920Y602919D01*
X2564499Y669499D01*
X1844499Y679499D02*
G01*
X1921080Y602919D01*
X1845500Y80500D02*
G01*
X1845500Y527339D01*
X1921080Y602919D01*
X3254499Y598000D02*
G01*
X2636000Y598000D01*
X2564499Y669499D01*
X3959499Y669499D02*
G01*
X3888000Y598000D01*
X3254499Y598000D01*
X3254499Y598000D02*
G01*
X3254499Y674499D01*
X4450000Y895000D02*
G01*
X4185000Y895000D01*
X3959499Y669499D01*
X1330000Y-2095000D02*
G01*
X1190000Y-2095000D01*
X865000Y-1770000D01*
X2773469Y-1790000D02*
G01*
X2483469Y-1500000D01*
X2425000Y-1500000D01*
X4556940Y1489989D02*
G01*
X4744989Y1489989D01*
X4750000Y1495000D01*
X4450000Y1495000D02*
G01*
X4455010Y1489989D01*
X4556940Y1489989D01*
X4556940Y1489989D02*
G01*
X4556940Y1428620D01*
X1830000Y-1355000D02*
G01*
X1941580Y-1466579D01*
X2391580Y-1466579D01*
X2425000Y-1500000D01*
X835000Y-1100000D02*
G01*
X1383429Y-1100000D01*
X1518429Y-965000D01*
X1630000Y-1795000D02*
G01*
X1780000Y-1795000D01*
X1850000Y-1865000D01*
X2020000Y-1966529D02*
G01*
X1701530Y-1966529D01*
X1530000Y-1795000D01*
X2179359Y-128609D02*
G01*
X2179359Y-215129D01*
X2248680Y-284450D01*
X2813180Y-284450D01*
X3137619Y-608890D01*
X3780420Y-608890D01*
X3067950Y-2163580D02*
G01*
X3101530Y-2130000D01*
X3328739Y-2130000D01*
X3990000Y-1015000D02*
G01*
X4057060Y-1082060D01*
X4057060Y-1544330D01*
X3471390Y-2130000D01*
X3328739Y-2130000D01*
X4325000Y-1230000D02*
G01*
X4107139Y-1012139D01*
X4107139Y-832040D01*
X3972780Y-697680D01*
X3474160Y-697680D01*
X4325000Y-1230000D02*
G01*
X4208890Y-1346109D01*
X4208890Y-1592370D01*
X3671260Y-2130000D01*
X2812049Y-2163580D02*
G01*
X2738919Y-2090450D01*
X2380180Y-2090450D01*
X2302049Y-2168580D01*
X1530000Y-2095000D02*
G01*
X1678909Y-2243910D01*
X2482619Y-2243910D01*
X2557950Y-2168580D01*
X4450000Y1595000D02*
G01*
X4516509Y1595000D01*
X4516509Y1595000D02*
G01*
X4590490Y1668980D01*
X4877799Y1668980D01*
X1282079Y453739D02*
G01*
X1418739Y453739D01*
X1644499Y679499D01*
X2045000Y1005000D02*
G01*
X2045000Y930590D01*
X2045000Y930590D02*
G01*
X1995590Y930590D01*
X1744499Y679499D01*
X2800000Y-210000D02*
G01*
X2665500Y-75500D01*
X2665500Y70500D01*
X2285000Y-200000D02*
G01*
X2365500Y-119499D01*
X2365500Y70500D01*
X2571909Y1312049D02*
G01*
X2397920Y1138060D01*
X2397920Y702919D01*
X2364499Y669499D01*
X2835000Y1000000D02*
G01*
X2835000Y925590D01*
X2764499Y669499D02*
G01*
X2764499Y855090D01*
X2835000Y925590D01*
X3620000Y-205000D02*
G01*
X3355500Y59499D01*
X3355500Y75500D01*
X3110000Y1005000D02*
G01*
X3110000Y730000D01*
X3054499Y674499D01*
X3620000Y935590D02*
G01*
X3585969Y935590D01*
X3354499Y704119D01*
X3354499Y674499D01*
X3620000Y1010000D02*
G01*
X3620000Y935590D01*
X4435000Y-210000D02*
G01*
X4341000Y-210000D01*
X4060500Y70500D01*
X4155000Y-205000D02*
G01*
X4136000Y-205000D01*
X3860500Y70500D01*
X2310000Y1200000D02*
G01*
X2225720Y1115720D01*
X2225720Y927020D01*
X2289240Y863499D01*
X2073569Y-7939D02*
G01*
X2182259Y-7939D01*
X2297049Y106849D01*
X2425000Y-900000D02*
G01*
X2358490Y-900000D01*
X2313750Y-815270D02*
G01*
X2358490Y-860010D01*
X2358490Y-900000D01*
X2160000Y1485000D02*
G01*
X2240119Y1404879D01*
X2629880Y1404879D01*
X2715000Y1490000D01*
X2725000Y-1500000D02*
G01*
X2525000Y-1300000D01*
X2425000Y-1300000D01*
X2835000Y1200000D02*
G01*
X2835000Y1486660D01*
X2643760Y1677899D01*
X2067100Y1677899D01*
X1960000Y1785000D01*
X2724139Y1189659D02*
G01*
X2595339Y1189659D01*
X2580000Y1205000D01*
X2725000Y-1200000D02*
G01*
X2889859Y-1364859D01*
X2889859Y-1436239D01*
X3065000Y-1611379D01*
X3693059Y-1611379D01*
X3765339Y-1539099D01*
X3765339Y-1139659D01*
X3990000Y-915000D01*
X2725000Y-1200000D02*
G01*
X2599669Y-1074670D01*
X2599669Y-962010D01*
X2392659Y-755000D01*
X2130000Y-755000D01*
X1200000Y1195000D02*
G01*
X1177290Y1195000D01*
X891589Y909299D01*
X891589Y535030D01*
X2725000Y-1100000D02*
G01*
X2658419Y-1033420D01*
X2658419Y-773629D01*
X2599489Y-714699D01*
X2599489Y-655790D01*
X2478879Y-535180D01*
X1349610Y-535180D01*
X1002259Y-187829D01*
X1002259Y-42260D01*
X820000Y140000D01*
X669619Y-586840D02*
G01*
X669619Y233820D01*
X665000Y-1770000D02*
G01*
X549009Y-1654009D01*
X549009Y-707449D01*
X669619Y-586840D01*
X669619Y-586840D02*
G01*
X2061840Y-586840D01*
X2130000Y-655000D01*
X2485000Y-680000D02*
G01*
X2155000Y-680000D01*
X2130000Y-655000D01*
X4450000Y1395000D02*
G01*
X3991679Y1853319D01*
X2406239Y1853319D01*
X2399960Y1859600D01*
X2358500Y1859600D01*
X2352219Y1853319D01*
X1628320Y1853319D01*
X1560000Y1785000D01*
X3075000Y-1025000D02*
G01*
X3201450Y-1025000D01*
X3277330Y-949119D01*
X3277330Y-922669D01*
X3375000Y-825000D01*
X1120000Y740000D02*
G01*
X1034600Y654600D01*
X1031270Y654600D01*
X1560000Y1785000D02*
G01*
X1712420Y1632579D01*
X1760000Y1632579D01*
X3990000Y-815000D02*
G01*
X3923090Y-748090D01*
X3451909Y-748090D01*
X3375000Y-825000D01*
X3075000Y-1025000D02*
G01*
X2850000Y-1025000D01*
X2725000Y-900000D01*
X4750000Y1595000D02*
G01*
X4695060Y1540059D01*
X4516580Y1540059D01*
X1330000Y-1795000D02*
G01*
X1630000Y-2095000D01*
X635000Y-1100000D02*
G01*
X820249Y-1285250D01*
X1105489Y-1285250D01*
X1370240Y-1550000D01*
X1099759Y-1550000D02*
G01*
X1185000Y-1550000D01*
X1430000Y-1795000D01*
X1775000Y1210000D02*
G01*
X1690720Y1125720D01*
X1690720Y933180D01*
X1232010Y474470D01*
X1232010Y452010D01*
X1120000Y340000D01*
X1360000Y-405000D02*
G01*
X1360000Y-330590D01*
X1360000Y-330590D02*
G01*
X1052340Y-22930D01*
X1052340Y172339D01*
X1120000Y240000D01*
X1490000Y1205000D02*
G01*
X1391909Y1205000D01*
X1337780Y1150870D01*
X1655000Y-400000D02*
G01*
X1655000Y-325590D01*
X1655000Y-325590D02*
G01*
X1289409Y40000D01*
X1120000Y40000D01*
X820000Y240000D02*
G01*
X962989Y382989D01*
X962989Y677660D01*
X1093299Y807970D01*
X1152500Y807970D01*
X1445320Y1100790D01*
X1505540Y1100790D01*
X1689219Y1284470D01*
X1965529Y1284470D01*
X2045000Y1205000D01*
X820000Y740000D02*
G01*
X820000Y930599D01*
X1300590Y1411190D01*
X1960000Y1411190D01*
X941660Y738350D02*
G01*
X1061360Y858049D01*
X1078680Y858049D01*
X2535000Y-479409D02*
G01*
X2169229Y-479409D01*
X1999350Y-309529D01*
X1891620Y-309529D01*
X1245640Y336449D01*
X2535000Y-405000D02*
G01*
X2535000Y-479409D01*
X2260000Y1785000D02*
G01*
X2354700Y1785000D01*
X2379229Y1809529D01*
X3620000Y-405000D02*
G01*
X3620000Y-479409D01*
X3620000Y-479409D02*
G01*
X3606760Y-492649D01*
X3293630Y-492649D01*
X3150180Y-843330D02*
G01*
X3150180Y-897370D01*
X3181199Y-928389D01*
X3227259Y-928389D01*
X3375000Y-1125000D02*
G01*
X3286719Y-1213279D01*
X3250339Y-1213279D01*
X3625000Y1490000D02*
G01*
X3709369Y1405630D01*
X3709369Y947080D01*
X3621769Y859479D01*
X3580659Y859479D01*
X3095000Y-479409D02*
G01*
X3171509Y-555920D01*
X3528490Y-555920D01*
X3095000Y-405000D02*
G01*
X3095000Y-479409D01*
X3200259Y-827590D02*
G01*
X3200259Y-874929D01*
X4095259Y-1797339D02*
G01*
X4927870Y-1797339D01*
X3139449Y-1561309D02*
G01*
X3141580Y-1559180D01*
X3141580Y-1391579D01*
X3075000Y-1325000D01*
X3688130Y-328099D02*
G01*
X3215829Y-328099D01*
X4625000Y-1030000D02*
G01*
X4457309Y-862310D01*
X4457309Y-843550D01*
X4253890Y-640129D01*
X3992470Y-640129D01*
X3780180Y-427840D01*
X3780180Y-420149D01*
X3688130Y-328099D01*
X4450000Y1195000D02*
G01*
X4519769Y1125230D01*
X4519769Y869710D01*
X4366620Y716559D01*
X4312410Y716559D01*
X3690780Y94929D01*
X3690780Y-114459D01*
X3709759Y-133440D01*
X3709759Y-306469D01*
X3688130Y-328099D01*
X4385000Y435000D02*
G01*
X4607020Y657020D01*
X4607020Y852020D01*
X4750000Y995000D01*
X4115000Y1490000D02*
G01*
X4204930Y1490000D01*
X4253220Y1441709D01*
X3880000Y1205000D02*
G01*
X3958339Y1283339D01*
X4261660Y1283339D01*
X4450000Y1095000D01*
X3990000Y-1215000D02*
G01*
X3887110Y-1317890D01*
X3887110Y-1494580D01*
X3519179Y-1862510D01*
X2626959Y-1862510D01*
X2356059Y-1591610D01*
X1896540Y-1540000D02*
G01*
X2013459Y-1540000D01*
X2020000Y-1533460D01*
D11*
G01*
X1850000Y-2065000D03*
G01*
X1850000Y-1865000D03*
D12*
G01*
X1321580Y-965000D03*
G01*
X1518419Y-965000D03*
D13*
G01*
X3328739Y-2130000D03*
G01*
X3671260Y-2130000D03*
D14*
G01*
X2302049Y-2168580D03*
G01*
X2557950Y-2168580D03*
G01*
X2557950Y-1991419D03*
G01*
X2302049Y-1991419D03*
G01*
X2812049Y-2163580D03*
G01*
X3067950Y-2163580D03*
G01*
X3067950Y-1986419D03*
G01*
X2812049Y-1986419D03*
D11*
G01*
X1945500Y80500D03*
G01*
X1845500Y80500D03*
G01*
X1745500Y80500D03*
G01*
X2045500Y80500D03*
G01*
X1645500Y80500D03*
G01*
X1644499Y679499D03*
G01*
X2044499Y679499D03*
G01*
X1944499Y679499D03*
G01*
X1744499Y679499D03*
G01*
X1844499Y679499D03*
G01*
X2665500Y70500D03*
G01*
X2565500Y70500D03*
G01*
X2465500Y70500D03*
G01*
X2765500Y70500D03*
G01*
X2365500Y70500D03*
G01*
X2364499Y669499D03*
G01*
X2764499Y669499D03*
G01*
X2664499Y669499D03*
G01*
X2464499Y669499D03*
G01*
X2564499Y669499D03*
G01*
X3355500Y75500D03*
G01*
X3255500Y75500D03*
G01*
X3155500Y75500D03*
G01*
X3455500Y75500D03*
G01*
X3055500Y75500D03*
G01*
X3054499Y674499D03*
G01*
X3454499Y674499D03*
G01*
X3354499Y674499D03*
G01*
X3154499Y674499D03*
G01*
X3254499Y674499D03*
G01*
X4060500Y70500D03*
G01*
X3960500Y70500D03*
G01*
X3860500Y70500D03*
G01*
X4160500Y70500D03*
G01*
X3760500Y70500D03*
G01*
X3759499Y669499D03*
G01*
X4159499Y669499D03*
G01*
X4059499Y669499D03*
G01*
X3859499Y669499D03*
G01*
X3959499Y669499D03*
D15*
G01*
X2425000Y-900000D03*
D16*
G01*
X2425000Y-1000000D03*
G01*
X2425000Y-1300000D03*
G01*
X2425000Y-1400000D03*
G01*
X2425000Y-1100000D03*
G01*
X2425000Y-1200000D03*
G01*
X2425000Y-1500000D03*
G01*
X2725000Y-1500000D03*
G01*
X2725000Y-1400000D03*
G01*
X2725000Y-1300000D03*
G01*
X2725000Y-1200000D03*
G01*
X2725000Y-1100000D03*
G01*
X2725000Y-1000000D03*
G01*
X2725000Y-900000D03*
D15*
G01*
X1330000Y-2095000D03*
D16*
G01*
X1430000Y-2095000D03*
G01*
X1530000Y-2095000D03*
G01*
X1630000Y-2095000D03*
G01*
X1630000Y-1795000D03*
G01*
X1530000Y-1795000D03*
G01*
X1430000Y-1795000D03*
G01*
X1330000Y-1795000D03*
D11*
G01*
X1120000Y740000D03*
G01*
X1120000Y640000D03*
G01*
X1120000Y540000D03*
G01*
X1120000Y440000D03*
G01*
X1120000Y340000D03*
G01*
X1120000Y240000D03*
G01*
X1120000Y140000D03*
G01*
X1120000Y40000D03*
G01*
X820000Y40000D03*
G01*
X820000Y140000D03*
G01*
X820000Y240000D03*
G01*
X820000Y340000D03*
G01*
X820000Y440000D03*
G01*
X820000Y540000D03*
G01*
X820000Y640000D03*
D15*
G01*
X820000Y740000D03*
D11*
G01*
X1560000Y1785000D03*
G01*
X1660000Y1785000D03*
G01*
X1760000Y1785000D03*
G01*
X1860000Y1785000D03*
G01*
X1960000Y1785000D03*
G01*
X2060000Y1785000D03*
G01*
X2160000Y1785000D03*
G01*
X2260000Y1785000D03*
G01*
X2260000Y1485000D03*
G01*
X2160000Y1485000D03*
G01*
X2060000Y1485000D03*
G01*
X1960000Y1485000D03*
G01*
X1860000Y1485000D03*
G01*
X1760000Y1485000D03*
G01*
X1660000Y1485000D03*
D15*
G01*
X1560000Y1485000D03*
D11*
G01*
X3375000Y-825000D03*
G01*
X3375000Y-925000D03*
G01*
X3375000Y-1025000D03*
G01*
X3375000Y-1125000D03*
G01*
X3375000Y-1225000D03*
G01*
X3375000Y-1325000D03*
G01*
X3375000Y-1425000D03*
G01*
X3375000Y-1525000D03*
G01*
X3075000Y-1525000D03*
G01*
X3075000Y-1425000D03*
G01*
X3075000Y-1325000D03*
G01*
X3075000Y-1225000D03*
G01*
X3075000Y-1125000D03*
G01*
X3075000Y-1025000D03*
G01*
X3075000Y-925000D03*
D15*
G01*
X3075000Y-825000D03*
D11*
G01*
X4750000Y1595000D03*
G01*
X4750000Y1495000D03*
G01*
X4750000Y1395000D03*
G01*
X4750000Y1295000D03*
G01*
X4750000Y1195000D03*
G01*
X4750000Y1095000D03*
G01*
X4750000Y995000D03*
G01*
X4750000Y895000D03*
G01*
X4450000Y895000D03*
G01*
X4450000Y995000D03*
G01*
X4450000Y1095000D03*
G01*
X4450000Y1195000D03*
G01*
X4450000Y1295000D03*
G01*
X4450000Y1395000D03*
G01*
X4450000Y1495000D03*
D15*
G01*
X4450000Y1595000D03*
D11*
G01*
X2130000Y-655000D03*
G01*
X2130000Y-755000D03*
G01*
X2130000Y-855000D03*
G01*
X2130000Y-955000D03*
G01*
X2130000Y-1055000D03*
G01*
X2130000Y-1155000D03*
G01*
X2130000Y-1255000D03*
G01*
X2130000Y-1355000D03*
G01*
X1830000Y-1355000D03*
G01*
X1830000Y-1255000D03*
G01*
X1830000Y-1155000D03*
G01*
X1830000Y-1055000D03*
G01*
X1830000Y-955000D03*
G01*
X1830000Y-855000D03*
G01*
X1830000Y-755000D03*
D15*
G01*
X1830000Y-655000D03*
D11*
G01*
X3990000Y-815000D03*
G01*
X3990000Y-915000D03*
G01*
X3990000Y-1015000D03*
G01*
X3990000Y-1115000D03*
G01*
X3990000Y-1215000D03*
G01*
X3990000Y-1315000D03*
G01*
X3990000Y-1415000D03*
G01*
X3990000Y-1515000D03*
G01*
X3690000Y-1515000D03*
G01*
X3690000Y-1415000D03*
G01*
X3690000Y-1315000D03*
G01*
X3690000Y-1215000D03*
G01*
X3690000Y-1115000D03*
G01*
X3690000Y-1015000D03*
G01*
X3690000Y-915000D03*
D15*
G01*
X3690000Y-815000D03*
D11*
G01*
X4625000Y-830000D03*
G01*
X4625000Y-930000D03*
G01*
X4625000Y-1030000D03*
G01*
X4625000Y-1130000D03*
G01*
X4625000Y-1230000D03*
G01*
X4625000Y-1330000D03*
G01*
X4625000Y-1430000D03*
G01*
X4625000Y-1530000D03*
G01*
X4325000Y-1530000D03*
G01*
X4325000Y-1430000D03*
G01*
X4325000Y-1330000D03*
G01*
X4325000Y-1230000D03*
G01*
X4325000Y-1130000D03*
G01*
X4325000Y-1030000D03*
G01*
X4325000Y-930000D03*
D15*
G01*
X4325000Y-830000D03*
D17*
G01*
X1360000Y-205000D03*
D18*
G01*
X1360000Y-405000D03*
D17*
G01*
X1655000Y-200000D03*
D18*
G01*
X1655000Y-400000D03*
D17*
G01*
X1935000Y-205000D03*
D18*
G01*
X1935000Y-405000D03*
D17*
G01*
X1200000Y1195000D03*
D18*
G01*
X1200000Y995000D03*
D17*
G01*
X2045000Y1205000D03*
D18*
G01*
X2045000Y1005000D03*
D17*
G01*
X2285000Y-200000D03*
D18*
G01*
X2285000Y-400000D03*
D17*
G01*
X1490000Y1205000D03*
D18*
G01*
X1490000Y1005000D03*
D17*
G01*
X1775000Y1210000D03*
D18*
G01*
X1775000Y1010000D03*
D17*
G01*
X2535000Y-205000D03*
D18*
G01*
X2535000Y-405000D03*
D17*
G01*
X2800000Y-210000D03*
D18*
G01*
X2800000Y-410000D03*
D19*
G01*
X4115000Y1490000D03*
D20*
G01*
X3915000Y1490000D03*
D19*
G01*
X2715000Y1490000D03*
D20*
G01*
X2515000Y1490000D03*
D17*
G01*
X2310000Y1200000D03*
D18*
G01*
X2310000Y1000000D03*
D17*
G01*
X2580000Y1205000D03*
D18*
G01*
X2580000Y1005000D03*
D17*
G01*
X2835000Y1200000D03*
D18*
G01*
X2835000Y1000000D03*
D17*
G01*
X3095000Y-205000D03*
D18*
G01*
X3095000Y-405000D03*
D17*
G01*
X3355000Y-205000D03*
D18*
G01*
X3355000Y-405000D03*
D17*
G01*
X3620000Y-205000D03*
D18*
G01*
X3620000Y-405000D03*
D17*
G01*
X3110000Y1205000D03*
D18*
G01*
X3110000Y1005000D03*
D17*
G01*
X3370000Y1205000D03*
D18*
G01*
X3370000Y1005000D03*
D17*
G01*
X3620000Y1210000D03*
D18*
G01*
X3620000Y1010000D03*
D19*
G01*
X3625000Y1490000D03*
D20*
G01*
X3425000Y1490000D03*
D17*
G01*
X3880000Y1205000D03*
D18*
G01*
X3880000Y1005000D03*
D17*
G01*
X4385000Y435000D03*
D21*
G01*
X4385000Y635000D03*
D17*
G01*
X4145000Y1205000D03*
D18*
G01*
X4145000Y1005000D03*
D17*
G01*
X4435000Y-210000D03*
D18*
G01*
X4435000Y-410000D03*
D17*
G01*
X4155000Y-205000D03*
D18*
G01*
X4155000Y-405000D03*
D17*
G01*
X3890000Y-195000D03*
D18*
G01*
X3890000Y-395000D03*
D11*
G01*
X2656540Y-1795000D03*
G01*
X2223469Y-1795000D03*
G01*
X3206540Y-1790000D03*
G01*
X2773469Y-1790000D03*
G01*
X2020000Y-1533470D03*
G01*
X2020000Y-1966540D03*
G01*
X1463459Y-1540000D03*
G01*
X1896540Y-1540000D03*
D22*
G01*
X1099759Y-1550000D03*
G01*
X1370240Y-1550000D03*
D23*
G01*
X865000Y-1770000D03*
G01*
X665000Y-1770000D03*
G01*
X835000Y-1100000D03*
G01*
X635000Y-1100000D03*
D19*
G01*
X2685000Y-680000D03*
D20*
G01*
X2485000Y-680000D03*
D24*
G01*
X4556940Y1428620D03*
G01*
X3780420Y-608890D03*
G01*
X2179359Y-128609D03*
G01*
X3474160Y-697680D03*
G01*
X4877799Y-2242350D03*
G01*
X4877799Y1668980D03*
G01*
X1282079Y453739D03*
G01*
X2571909Y1312049D03*
G01*
X2313750Y-815270D03*
G01*
X2073569Y-7939D03*
G01*
X2297049Y106849D03*
G01*
X2289240Y863499D03*
G01*
X2724139Y1189659D03*
G01*
X891589Y535030D03*
G01*
X669619Y233820D03*
G01*
X1031270Y654600D03*
G01*
X1760000Y1632579D03*
G01*
X4516580Y1540059D03*
G01*
X1337780Y1150870D03*
G01*
X1960000Y1411190D03*
G01*
X941660Y738350D03*
G01*
X2379229Y1809529D03*
G01*
X1078680Y858049D03*
G01*
X1245640Y336449D03*
G01*
X3250339Y-1213279D03*
G01*
X3227259Y-928389D03*
G01*
X3150180Y-843330D03*
G01*
X3293630Y-492649D03*
G01*
X3580659Y859479D03*
G01*
X3528490Y-555920D03*
G01*
X3200259Y-874929D03*
G01*
X3200259Y-827590D03*
G01*
X3139449Y-1561309D03*
G01*
X4095259Y-1797339D03*
G01*
X4927870Y-1797339D03*
G01*
X3215829Y-328099D03*
G01*
X4253220Y1441709D03*
G01*
X2356059Y-1591610D03*
M02*
