G04 Layer: TopSilkscreenLayer*
G04 EasyEDA v6.5.22, 2022-11-10 13:02:32*
G04 01bc966966e84c7b8353b39a3c1ed1af,4d8ab2db40884aeb91e54047068f32cb,10*
G04 Gerber Generator version 0.2*
G04 Scale: 100 percent, Rotated: No, Reflected: No *
G04 Dimensions in inches *
G04 leading zeros omitted , absolute positions ,3 integer and 6 decimal *
%FSLAX36Y36*%
%MOIN*%

%ADD10C,0.0060*%
%ADD11C,0.0100*%
%ADD12C,0.0394*%
%ADD13C,0.0118*%
%ADD14C,0.0157*%
%ADD15C,0.0102*%

%LPD*%
D10*
X1754799Y-1944299D02*
G01*
X1750699Y-1946399D01*
X1746599Y-1950500D01*
X1744600Y-1954499D01*
X1744600Y-1962699D01*
X1746599Y-1966799D01*
X1750699Y-1970900D01*
X1754799Y-1973000D01*
X1761000Y-1975000D01*
X1771199Y-1975000D01*
X1777299Y-1973000D01*
X1781400Y-1970900D01*
X1785500Y-1966799D01*
X1787500Y-1962699D01*
X1787500Y-1954499D01*
X1785500Y-1950500D01*
X1781400Y-1946399D01*
X1777299Y-1944299D01*
X1752799Y-1930799D02*
G01*
X1750699Y-1926700D01*
X1744600Y-1920599D01*
X1787500Y-1920599D01*
X1440694Y-674800D02*
G01*
X1438594Y-670700D01*
X1434494Y-666599D01*
X1430495Y-664600D01*
X1422295Y-664600D01*
X1418194Y-666599D01*
X1414094Y-670700D01*
X1411994Y-674800D01*
X1409994Y-680999D01*
X1409994Y-691199D01*
X1411994Y-697300D01*
X1414094Y-701399D01*
X1418194Y-705500D01*
X1422295Y-707500D01*
X1430495Y-707500D01*
X1434494Y-705500D01*
X1438594Y-701399D01*
X1440694Y-697300D01*
X1456194Y-674800D02*
G01*
X1456194Y-672800D01*
X1458294Y-668699D01*
X1460294Y-666599D01*
X1464395Y-664600D01*
X1472595Y-664600D01*
X1476694Y-666599D01*
X1478694Y-668699D01*
X1480794Y-672800D01*
X1480794Y-676900D01*
X1478694Y-680999D01*
X1474594Y-687100D01*
X1454194Y-707500D01*
X1482794Y-707500D01*
X3497500Y-1974600D02*
G01*
X3497500Y-2017500D01*
X3497500Y-1974600D02*
G01*
X3511800Y-1974600D01*
X3518000Y-1976599D01*
X3521999Y-1980700D01*
X3524099Y-1984800D01*
X3526099Y-1990999D01*
X3526099Y-2001199D01*
X3524099Y-2007300D01*
X3521999Y-2011399D01*
X3518000Y-2015500D01*
X3511800Y-2017500D01*
X3497500Y-2017500D01*
X3539600Y-1982800D02*
G01*
X3543699Y-1980700D01*
X3549899Y-1974600D01*
X3549899Y-2017500D01*
X2430000Y-1894600D02*
G01*
X2430000Y-1937500D01*
X2458599Y-1894600D02*
G01*
X2430000Y-1923200D01*
X2440200Y-1913000D02*
G01*
X2458599Y-1937500D01*
X2472100Y-1894600D02*
G01*
X2472100Y-1937500D01*
X2472100Y-1894600D02*
G01*
X2498699Y-1894600D01*
X2472100Y-1915000D02*
G01*
X2488500Y-1915000D01*
X2472100Y-1937500D02*
G01*
X2498699Y-1937500D01*
X2512200Y-1894600D02*
G01*
X2528599Y-1915000D01*
X2528599Y-1937500D01*
X2545000Y-1894600D02*
G01*
X2528599Y-1915000D01*
X2558500Y-1902800D02*
G01*
X2562500Y-1900700D01*
X2568699Y-1894600D01*
X2568699Y-1937500D01*
X2940000Y-1889600D02*
G01*
X2940000Y-1932500D01*
X2968599Y-1889600D02*
G01*
X2940000Y-1918200D01*
X2950200Y-1908000D02*
G01*
X2968599Y-1932500D01*
X2982100Y-1889600D02*
G01*
X2982100Y-1932500D01*
X2982100Y-1889600D02*
G01*
X3008699Y-1889600D01*
X2982100Y-1910000D02*
G01*
X2998500Y-1910000D01*
X2982100Y-1932500D02*
G01*
X3008699Y-1932500D01*
X3022200Y-1889600D02*
G01*
X3038599Y-1910000D01*
X3038599Y-1932500D01*
X3055000Y-1889600D02*
G01*
X3038599Y-1910000D01*
X3070500Y-1899800D02*
G01*
X3070500Y-1897800D01*
X3072500Y-1893699D01*
X3074600Y-1891599D01*
X3078699Y-1889600D01*
X3086899Y-1889600D01*
X3091000Y-1891599D01*
X3093000Y-1893699D01*
X3095000Y-1897800D01*
X3095000Y-1901900D01*
X3093000Y-1905999D01*
X3088900Y-1912100D01*
X3068500Y-1932500D01*
X3097100Y-1932500D01*
X1835730Y810109D02*
G01*
X1835730Y767210D01*
X1835730Y767210D02*
G01*
X1860230Y767210D01*
X1873729Y810109D02*
G01*
X1873729Y767210D01*
X1873729Y810109D02*
G01*
X1900330Y810109D01*
X1873729Y789710D02*
G01*
X1890129Y789710D01*
X1873729Y767210D02*
G01*
X1900330Y767210D01*
X1913829Y810109D02*
G01*
X1913829Y767210D01*
X1913829Y810109D02*
G01*
X1928230Y810109D01*
X1934330Y808110D01*
X1938429Y804009D01*
X1940429Y799909D01*
X1942529Y793710D01*
X1942529Y783510D01*
X1940429Y777409D01*
X1938429Y773310D01*
X1934330Y769209D01*
X1928230Y767210D01*
X1913829Y767210D01*
X1956030Y801909D02*
G01*
X1960129Y804009D01*
X1966229Y810109D01*
X1966229Y767210D01*
X2555730Y800109D02*
G01*
X2555730Y757210D01*
X2555730Y757210D02*
G01*
X2580230Y757210D01*
X2593729Y800109D02*
G01*
X2593729Y757210D01*
X2593729Y800109D02*
G01*
X2620330Y800109D01*
X2593729Y779710D02*
G01*
X2610129Y779710D01*
X2593729Y757210D02*
G01*
X2620330Y757210D01*
X2633829Y800109D02*
G01*
X2633829Y757210D01*
X2633829Y800109D02*
G01*
X2648230Y800109D01*
X2654330Y798110D01*
X2658429Y794009D01*
X2660429Y789909D01*
X2662529Y783710D01*
X2662529Y773510D01*
X2660429Y767409D01*
X2658429Y763310D01*
X2654330Y759209D01*
X2648230Y757210D01*
X2633829Y757210D01*
X2678029Y789909D02*
G01*
X2678029Y791909D01*
X2680129Y796010D01*
X2682129Y798110D01*
X2686229Y800109D01*
X2694430Y800109D01*
X2698530Y798110D01*
X2700529Y796010D01*
X2702629Y791909D01*
X2702629Y787809D01*
X2700529Y783710D01*
X2696430Y777609D01*
X2676030Y757210D01*
X2704629Y757210D01*
X3245730Y805109D02*
G01*
X3245730Y762210D01*
X3245730Y762210D02*
G01*
X3270230Y762210D01*
X3283729Y805109D02*
G01*
X3283729Y762210D01*
X3283729Y805109D02*
G01*
X3310330Y805109D01*
X3283729Y784710D02*
G01*
X3300129Y784710D01*
X3283729Y762210D02*
G01*
X3310330Y762210D01*
X3323829Y805109D02*
G01*
X3323829Y762210D01*
X3323829Y805109D02*
G01*
X3338230Y805109D01*
X3344330Y803110D01*
X3348429Y799009D01*
X3350429Y794909D01*
X3352529Y788710D01*
X3352529Y778510D01*
X3350429Y772409D01*
X3348429Y768310D01*
X3344330Y764209D01*
X3338230Y762210D01*
X3323829Y762210D01*
X3370129Y805109D02*
G01*
X3392629Y805109D01*
X3380330Y788710D01*
X3386430Y788710D01*
X3390529Y786709D01*
X3392629Y784710D01*
X3394629Y778510D01*
X3394629Y774409D01*
X3392629Y768310D01*
X3388530Y764209D01*
X3382330Y762210D01*
X3376229Y762210D01*
X3370129Y764209D01*
X3368029Y766210D01*
X3366030Y770309D01*
X3950730Y800109D02*
G01*
X3950730Y757210D01*
X3950730Y757210D02*
G01*
X3975230Y757210D01*
X3988729Y800109D02*
G01*
X3988729Y757210D01*
X3988729Y800109D02*
G01*
X4015330Y800109D01*
X3988729Y779710D02*
G01*
X4005129Y779710D01*
X3988729Y757210D02*
G01*
X4015330Y757210D01*
X4028829Y800109D02*
G01*
X4028829Y757210D01*
X4028829Y800109D02*
G01*
X4043230Y800109D01*
X4049330Y798110D01*
X4053429Y794009D01*
X4055429Y789909D01*
X4057529Y783710D01*
X4057529Y773510D01*
X4055429Y767409D01*
X4053429Y763310D01*
X4049330Y759209D01*
X4043230Y757210D01*
X4028829Y757210D01*
X4091430Y800109D02*
G01*
X4071030Y771509D01*
X4101729Y771509D01*
X4091430Y800109D02*
G01*
X4091430Y757210D01*
X2824300Y-1218600D02*
G01*
X2828400Y-1214499D01*
X2830399Y-1208400D01*
X2830399Y-1200199D01*
X2828400Y-1194099D01*
X2824300Y-1190000D01*
X2820200Y-1190000D01*
X2816099Y-1191999D01*
X2813999Y-1194099D01*
X2811999Y-1198200D01*
X2807899Y-1210500D01*
X2805900Y-1214499D01*
X2803800Y-1216599D01*
X2799700Y-1218600D01*
X2793599Y-1218600D01*
X2789499Y-1214499D01*
X2787500Y-1208400D01*
X2787500Y-1200199D01*
X2789499Y-1194099D01*
X2793599Y-1190000D01*
X2830399Y-1232100D02*
G01*
X2787500Y-1232100D01*
X2830399Y-1260799D02*
G01*
X2801800Y-1232100D01*
X2811999Y-1242399D02*
G01*
X2787500Y-1260799D01*
X2822200Y-1274299D02*
G01*
X2824300Y-1278400D01*
X2830399Y-1284499D01*
X2787500Y-1284499D01*
X1508599Y-1695700D02*
G01*
X1504499Y-1691599D01*
X1498400Y-1689600D01*
X1490200Y-1689600D01*
X1484099Y-1691599D01*
X1480000Y-1695700D01*
X1480000Y-1699800D01*
X1481999Y-1703899D01*
X1484099Y-1705999D01*
X1488199Y-1708000D01*
X1500500Y-1712100D01*
X1504499Y-1714099D01*
X1506599Y-1716199D01*
X1508599Y-1720300D01*
X1508599Y-1726399D01*
X1504499Y-1730500D01*
X1498400Y-1732500D01*
X1490200Y-1732500D01*
X1484099Y-1730500D01*
X1480000Y-1726399D01*
X1522100Y-1689600D02*
G01*
X1522100Y-1732500D01*
X1550799Y-1689600D02*
G01*
X1522100Y-1718200D01*
X1532399Y-1708000D02*
G01*
X1550799Y-1732500D01*
X1566300Y-1699800D02*
G01*
X1566300Y-1697800D01*
X1568400Y-1693699D01*
X1570399Y-1691599D01*
X1574499Y-1689600D01*
X1582700Y-1689600D01*
X1586800Y-1691599D01*
X1588800Y-1693699D01*
X1590900Y-1697800D01*
X1590900Y-1701900D01*
X1588800Y-1705999D01*
X1584700Y-1712100D01*
X1564300Y-1732500D01*
X1592899Y-1732500D01*
X1214070Y394659D02*
G01*
X1183370Y394659D01*
X1177269Y392660D01*
X1173170Y388560D01*
X1171170Y382359D01*
X1171170Y378260D01*
X1173170Y372159D01*
X1177269Y368060D01*
X1183370Y366060D01*
X1214070Y366060D01*
X1205870Y352559D02*
G01*
X1207969Y348460D01*
X1214070Y342260D01*
X1171170Y342260D01*
X1905339Y1879070D02*
G01*
X1905339Y1848370D01*
X1907340Y1842269D01*
X1911440Y1838170D01*
X1917640Y1836170D01*
X1921739Y1836170D01*
X1927839Y1838170D01*
X1931940Y1842269D01*
X1933940Y1848370D01*
X1933940Y1879070D01*
X1949539Y1868870D02*
G01*
X1949539Y1870870D01*
X1951540Y1874969D01*
X1953639Y1877069D01*
X1957740Y1879070D01*
X1965839Y1879070D01*
X1969939Y1877069D01*
X1972039Y1874969D01*
X1974040Y1870870D01*
X1974040Y1866770D01*
X1972039Y1862669D01*
X1967939Y1856570D01*
X1947439Y1836170D01*
X1976139Y1836170D01*
X3469070Y-1170340D02*
G01*
X3438370Y-1170340D01*
X3432269Y-1172339D01*
X3428170Y-1176439D01*
X3426170Y-1182640D01*
X3426170Y-1186739D01*
X3428170Y-1192840D01*
X3432269Y-1196939D01*
X3438370Y-1198939D01*
X3469070Y-1198939D01*
X3469070Y-1216540D02*
G01*
X3469070Y-1239040D01*
X3452669Y-1226840D01*
X3452669Y-1232939D01*
X3450670Y-1237040D01*
X3448670Y-1239040D01*
X3442470Y-1241140D01*
X3438370Y-1241140D01*
X3432269Y-1239040D01*
X3428170Y-1234940D01*
X3426170Y-1228840D01*
X3426170Y-1222739D01*
X3428170Y-1216540D01*
X3430169Y-1214540D01*
X3434269Y-1212440D01*
X4844070Y1249659D02*
G01*
X4813370Y1249659D01*
X4807269Y1247660D01*
X4803170Y1243560D01*
X4801170Y1237359D01*
X4801170Y1233260D01*
X4803170Y1227159D01*
X4807269Y1223060D01*
X4813370Y1221060D01*
X4844070Y1221060D01*
X4844070Y1187060D02*
G01*
X4815469Y1207559D01*
X4815469Y1176860D01*
X4844070Y1187060D02*
G01*
X4801170Y1187060D01*
X2224070Y-1000340D02*
G01*
X2193370Y-1000340D01*
X2187269Y-1002339D01*
X2183170Y-1006439D01*
X2181170Y-1012640D01*
X2181170Y-1016739D01*
X2183170Y-1022840D01*
X2187269Y-1026939D01*
X2193370Y-1028939D01*
X2224070Y-1028939D01*
X2224070Y-1067040D02*
G01*
X2224070Y-1046540D01*
X2205670Y-1044540D01*
X2207669Y-1046540D01*
X2209769Y-1052739D01*
X2209769Y-1058840D01*
X2207669Y-1064940D01*
X2203670Y-1069040D01*
X2197470Y-1071140D01*
X2193370Y-1071140D01*
X2187269Y-1069040D01*
X2183170Y-1064940D01*
X2181170Y-1058840D01*
X2181170Y-1052739D01*
X2183170Y-1046540D01*
X2185169Y-1044540D01*
X2189269Y-1042440D01*
X4084070Y-1160340D02*
G01*
X4053370Y-1160340D01*
X4047269Y-1162339D01*
X4043170Y-1166439D01*
X4041170Y-1172640D01*
X4041170Y-1176739D01*
X4043170Y-1182840D01*
X4047269Y-1186939D01*
X4053370Y-1188939D01*
X4084070Y-1188939D01*
X4077969Y-1227040D02*
G01*
X4082070Y-1224940D01*
X4084070Y-1218840D01*
X4084070Y-1214740D01*
X4082070Y-1208640D01*
X4075870Y-1204540D01*
X4065670Y-1202440D01*
X4055469Y-1202440D01*
X4047269Y-1204540D01*
X4043170Y-1208640D01*
X4041170Y-1214740D01*
X4041170Y-1216840D01*
X4043170Y-1222939D01*
X4047269Y-1227040D01*
X4053370Y-1229040D01*
X4055469Y-1229040D01*
X4061570Y-1227040D01*
X4065670Y-1222939D01*
X4067669Y-1216840D01*
X4067669Y-1214740D01*
X4065670Y-1208640D01*
X4061570Y-1204540D01*
X4055469Y-1202440D01*
X4719070Y-1175340D02*
G01*
X4688370Y-1175340D01*
X4682269Y-1177339D01*
X4678170Y-1181439D01*
X4676170Y-1187640D01*
X4676170Y-1191739D01*
X4678170Y-1197840D01*
X4682269Y-1201939D01*
X4688370Y-1203939D01*
X4719070Y-1203939D01*
X4719070Y-1246140D02*
G01*
X4676170Y-1225639D01*
X4719070Y-1217440D02*
G01*
X4719070Y-1246140D01*
X1195100Y-305000D02*
G01*
X1225799Y-305000D01*
X1231899Y-303000D01*
X1236000Y-298899D01*
X1238000Y-292699D01*
X1238000Y-288600D01*
X1236000Y-282500D01*
X1231899Y-278400D01*
X1225799Y-276399D01*
X1195100Y-276399D01*
X1195100Y-252600D02*
G01*
X1197100Y-258800D01*
X1201199Y-260799D01*
X1205299Y-260799D01*
X1209399Y-258800D01*
X1211499Y-254699D01*
X1213500Y-246500D01*
X1215500Y-240399D01*
X1219600Y-236300D01*
X1223699Y-234200D01*
X1229899Y-234200D01*
X1233999Y-236300D01*
X1236000Y-238299D01*
X1238000Y-244499D01*
X1238000Y-252600D01*
X1236000Y-258800D01*
X1233999Y-260799D01*
X1229899Y-262899D01*
X1223699Y-262899D01*
X1219600Y-260799D01*
X1215500Y-256700D01*
X1213500Y-250599D01*
X1211499Y-242399D01*
X1209399Y-238299D01*
X1205299Y-236300D01*
X1201199Y-236300D01*
X1197100Y-238299D01*
X1195100Y-244499D01*
X1195100Y-252600D01*
X1490100Y-300000D02*
G01*
X1520799Y-300000D01*
X1526899Y-298000D01*
X1531000Y-293899D01*
X1533000Y-287699D01*
X1533000Y-283600D01*
X1531000Y-277500D01*
X1526899Y-273400D01*
X1520799Y-271399D01*
X1490100Y-271399D01*
X1504399Y-231300D02*
G01*
X1510500Y-233299D01*
X1514600Y-237399D01*
X1516700Y-243499D01*
X1516700Y-245599D01*
X1514600Y-251700D01*
X1510500Y-255799D01*
X1504399Y-257899D01*
X1502399Y-257899D01*
X1496199Y-255799D01*
X1492100Y-251700D01*
X1490100Y-245599D01*
X1490100Y-243499D01*
X1492100Y-237399D01*
X1496199Y-233299D01*
X1504399Y-231300D01*
X1514600Y-231300D01*
X1524899Y-233299D01*
X1531000Y-237399D01*
X1533000Y-243499D01*
X1533000Y-247600D01*
X1531000Y-253800D01*
X1526899Y-255799D01*
X1770100Y-305000D02*
G01*
X1800799Y-305000D01*
X1806899Y-303000D01*
X1811000Y-298899D01*
X1813000Y-292699D01*
X1813000Y-288600D01*
X1811000Y-282500D01*
X1806899Y-278400D01*
X1800799Y-276399D01*
X1770100Y-276399D01*
X1778299Y-262899D02*
G01*
X1776199Y-258800D01*
X1770100Y-252600D01*
X1813000Y-252600D01*
X1770100Y-226900D02*
G01*
X1772100Y-233000D01*
X1778299Y-237100D01*
X1788500Y-239099D01*
X1794600Y-239099D01*
X1804899Y-237100D01*
X1811000Y-233000D01*
X1813000Y-226900D01*
X1813000Y-222800D01*
X1811000Y-216599D01*
X1804899Y-212500D01*
X1794600Y-210500D01*
X1788500Y-210500D01*
X1778299Y-212500D01*
X1772100Y-216599D01*
X1770100Y-222800D01*
X1770100Y-226900D01*
X1035100Y1095000D02*
G01*
X1065799Y1095000D01*
X1071899Y1096999D01*
X1076000Y1101100D01*
X1078000Y1107300D01*
X1078000Y1111399D01*
X1076000Y1117500D01*
X1071899Y1121599D01*
X1065799Y1123600D01*
X1035100Y1123600D01*
X1043299Y1137100D02*
G01*
X1041199Y1141199D01*
X1035100Y1147399D01*
X1078000Y1147399D01*
X1043299Y1160900D02*
G01*
X1041199Y1165000D01*
X1035100Y1171100D01*
X1078000Y1171100D01*
X1880100Y1105000D02*
G01*
X1910799Y1105000D01*
X1916899Y1106999D01*
X1921000Y1111100D01*
X1923000Y1117300D01*
X1923000Y1121399D01*
X1921000Y1127500D01*
X1916899Y1131599D01*
X1910799Y1133600D01*
X1880100Y1133600D01*
X1888299Y1147100D02*
G01*
X1886199Y1151199D01*
X1880100Y1157399D01*
X1923000Y1157399D01*
X1890299Y1172899D02*
G01*
X1888299Y1172899D01*
X1884200Y1175000D01*
X1882100Y1176999D01*
X1880100Y1181100D01*
X1880100Y1189299D01*
X1882100Y1193400D01*
X1884200Y1195399D01*
X1888299Y1197500D01*
X1892399Y1197500D01*
X1896499Y1195399D01*
X1902600Y1191300D01*
X1923000Y1170900D01*
X1923000Y1199499D01*
X2120100Y-300000D02*
G01*
X2150799Y-300000D01*
X2156899Y-298000D01*
X2161000Y-293899D01*
X2163000Y-287699D01*
X2163000Y-283600D01*
X2161000Y-277500D01*
X2156899Y-273400D01*
X2150799Y-271399D01*
X2120100Y-271399D01*
X2128299Y-257899D02*
G01*
X2126199Y-253800D01*
X2120100Y-247600D01*
X2163000Y-247600D01*
X2120100Y-230000D02*
G01*
X2120100Y-207500D01*
X2136499Y-219800D01*
X2136499Y-213699D01*
X2138500Y-209600D01*
X2140500Y-207500D01*
X2146700Y-205500D01*
X2150799Y-205500D01*
X2156899Y-207500D01*
X2161000Y-211599D01*
X2163000Y-217800D01*
X2163000Y-223899D01*
X2161000Y-230000D01*
X2158999Y-232100D01*
X2154899Y-234099D01*
X1325100Y1105000D02*
G01*
X1355799Y1105000D01*
X1361899Y1106999D01*
X1366000Y1111100D01*
X1368000Y1117300D01*
X1368000Y1121399D01*
X1366000Y1127500D01*
X1361899Y1131599D01*
X1355799Y1133600D01*
X1325100Y1133600D01*
X1333299Y1147100D02*
G01*
X1331199Y1151199D01*
X1325100Y1157399D01*
X1368000Y1157399D01*
X1325100Y1191300D02*
G01*
X1353699Y1170900D01*
X1353699Y1201500D01*
X1325100Y1191300D02*
G01*
X1368000Y1191300D01*
X1610100Y1110000D02*
G01*
X1640799Y1110000D01*
X1646899Y1111999D01*
X1651000Y1116100D01*
X1653000Y1122300D01*
X1653000Y1126399D01*
X1651000Y1132500D01*
X1646899Y1136599D01*
X1640799Y1138600D01*
X1610100Y1138600D01*
X1618299Y1152100D02*
G01*
X1616199Y1156199D01*
X1610100Y1162399D01*
X1653000Y1162399D01*
X1610100Y1200399D02*
G01*
X1610100Y1180000D01*
X1628500Y1177899D01*
X1626499Y1180000D01*
X1624399Y1186100D01*
X1624399Y1192199D01*
X1626499Y1198400D01*
X1630500Y1202500D01*
X1636700Y1204499D01*
X1640799Y1204499D01*
X1646899Y1202500D01*
X1651000Y1198400D01*
X1653000Y1192199D01*
X1653000Y1186100D01*
X1651000Y1180000D01*
X1648999Y1177899D01*
X1644899Y1175900D01*
X2370100Y-305000D02*
G01*
X2400799Y-305000D01*
X2406899Y-303000D01*
X2411000Y-298899D01*
X2413000Y-292699D01*
X2413000Y-288600D01*
X2411000Y-282500D01*
X2406899Y-278400D01*
X2400799Y-276399D01*
X2370100Y-276399D01*
X2378299Y-262899D02*
G01*
X2376199Y-258800D01*
X2370100Y-252600D01*
X2413000Y-252600D01*
X2376199Y-214600D02*
G01*
X2372100Y-216599D01*
X2370100Y-222800D01*
X2370100Y-226900D01*
X2372100Y-233000D01*
X2378299Y-237100D01*
X2388500Y-239099D01*
X2398699Y-239099D01*
X2406899Y-237100D01*
X2411000Y-233000D01*
X2413000Y-226900D01*
X2413000Y-224800D01*
X2411000Y-218699D01*
X2406899Y-214600D01*
X2400799Y-212500D01*
X2398699Y-212500D01*
X2392600Y-214600D01*
X2388500Y-218699D01*
X2386499Y-224800D01*
X2386499Y-226900D01*
X2388500Y-233000D01*
X2392600Y-237100D01*
X2398699Y-239099D01*
X2635100Y-310000D02*
G01*
X2665799Y-310000D01*
X2671899Y-308000D01*
X2676000Y-303899D01*
X2678000Y-297699D01*
X2678000Y-293600D01*
X2676000Y-287500D01*
X2671899Y-283400D01*
X2665799Y-281399D01*
X2635100Y-281399D01*
X2643299Y-267899D02*
G01*
X2641199Y-263800D01*
X2635100Y-257600D01*
X2678000Y-257600D01*
X2635100Y-215500D02*
G01*
X2678000Y-235999D01*
X2635100Y-244099D02*
G01*
X2635100Y-215500D01*
X4015000Y1654899D02*
G01*
X4015000Y1624200D01*
X4016999Y1618099D01*
X4021099Y1614000D01*
X4027299Y1611999D01*
X4031400Y1611999D01*
X4037500Y1614000D01*
X4041599Y1618099D01*
X4043599Y1624200D01*
X4043599Y1654899D01*
X4057100Y1646700D02*
G01*
X4061199Y1648800D01*
X4067399Y1654899D01*
X4067399Y1611999D01*
X4091099Y1654899D02*
G01*
X4085000Y1652899D01*
X4082899Y1648800D01*
X4082899Y1644699D01*
X4085000Y1640599D01*
X4088999Y1638499D01*
X4097200Y1636500D01*
X4103400Y1634499D01*
X4107500Y1630399D01*
X4109499Y1626300D01*
X4109499Y1620100D01*
X4107500Y1615999D01*
X4105399Y1614000D01*
X4099300Y1611999D01*
X4091099Y1611999D01*
X4085000Y1614000D01*
X4082899Y1615999D01*
X4080900Y1620100D01*
X4080900Y1626300D01*
X4082899Y1630399D01*
X4086999Y1634499D01*
X4093100Y1636500D01*
X4101300Y1638499D01*
X4105399Y1640599D01*
X4107500Y1644699D01*
X4107500Y1648800D01*
X4105399Y1652899D01*
X4099300Y1654899D01*
X4091099Y1654899D01*
X2615000Y1654899D02*
G01*
X2615000Y1624200D01*
X2616999Y1618099D01*
X2621099Y1614000D01*
X2627299Y1611999D01*
X2631400Y1611999D01*
X2637500Y1614000D01*
X2641599Y1618099D01*
X2643599Y1624200D01*
X2643599Y1654899D01*
X2657100Y1646700D02*
G01*
X2661199Y1648800D01*
X2667399Y1654899D01*
X2667399Y1611999D01*
X2707500Y1640599D02*
G01*
X2705399Y1634499D01*
X2701300Y1630399D01*
X2695200Y1628299D01*
X2693100Y1628299D01*
X2686999Y1630399D01*
X2682899Y1634499D01*
X2680900Y1640599D01*
X2680900Y1642600D01*
X2682899Y1648800D01*
X2686999Y1652899D01*
X2693100Y1654899D01*
X2695200Y1654899D01*
X2701300Y1652899D01*
X2705399Y1648800D01*
X2707500Y1640599D01*
X2707500Y1630399D01*
X2705399Y1620100D01*
X2701300Y1614000D01*
X2695200Y1611999D01*
X2691099Y1611999D01*
X2685000Y1614000D01*
X2682899Y1618099D01*
X2145100Y1100000D02*
G01*
X2175799Y1100000D01*
X2181899Y1101999D01*
X2186000Y1106100D01*
X2188000Y1112300D01*
X2188000Y1116399D01*
X2186000Y1122500D01*
X2181899Y1126599D01*
X2175799Y1128600D01*
X2145100Y1128600D01*
X2155299Y1144200D02*
G01*
X2153299Y1144200D01*
X2149200Y1146199D01*
X2147100Y1148299D01*
X2145100Y1152399D01*
X2145100Y1160500D01*
X2147100Y1164600D01*
X2149200Y1166700D01*
X2153299Y1168699D01*
X2157399Y1168699D01*
X2161499Y1166700D01*
X2167600Y1162600D01*
X2188000Y1142100D01*
X2188000Y1170799D01*
X2145100Y1196500D02*
G01*
X2147100Y1190399D01*
X2153299Y1186300D01*
X2163500Y1184299D01*
X2169600Y1184299D01*
X2179899Y1186300D01*
X2186000Y1190399D01*
X2188000Y1196500D01*
X2188000Y1200599D01*
X2186000Y1206799D01*
X2179899Y1210900D01*
X2169600Y1212899D01*
X2163500Y1212899D01*
X2153299Y1210900D01*
X2147100Y1206799D01*
X2145100Y1200599D01*
X2145100Y1196500D01*
X2415100Y1105000D02*
G01*
X2445799Y1105000D01*
X2451899Y1106999D01*
X2456000Y1111100D01*
X2458000Y1117300D01*
X2458000Y1121399D01*
X2456000Y1127500D01*
X2451899Y1131599D01*
X2445799Y1133600D01*
X2415100Y1133600D01*
X2425299Y1149200D02*
G01*
X2423299Y1149200D01*
X2419200Y1151199D01*
X2417100Y1153299D01*
X2415100Y1157399D01*
X2415100Y1165500D01*
X2417100Y1169600D01*
X2419200Y1171700D01*
X2423299Y1173699D01*
X2427399Y1173699D01*
X2431499Y1171700D01*
X2437600Y1167600D01*
X2458000Y1147100D01*
X2458000Y1175799D01*
X2423299Y1189299D02*
G01*
X2421199Y1193400D01*
X2415100Y1199499D01*
X2458000Y1199499D01*
X2670100Y1100000D02*
G01*
X2700799Y1100000D01*
X2706899Y1101999D01*
X2711000Y1106100D01*
X2713000Y1112300D01*
X2713000Y1116399D01*
X2711000Y1122500D01*
X2706899Y1126599D01*
X2700799Y1128600D01*
X2670100Y1128600D01*
X2680299Y1144200D02*
G01*
X2678299Y1144200D01*
X2674200Y1146199D01*
X2672100Y1148299D01*
X2670100Y1152399D01*
X2670100Y1160500D01*
X2672100Y1164600D01*
X2674200Y1166700D01*
X2678299Y1168699D01*
X2682399Y1168699D01*
X2686499Y1166700D01*
X2692600Y1162600D01*
X2713000Y1142100D01*
X2713000Y1170799D01*
X2680299Y1186300D02*
G01*
X2678299Y1186300D01*
X2674200Y1188400D01*
X2672100Y1190399D01*
X2670100Y1194499D01*
X2670100Y1202699D01*
X2672100Y1206799D01*
X2674200Y1208800D01*
X2678299Y1210900D01*
X2682399Y1210900D01*
X2686499Y1208800D01*
X2692600Y1204699D01*
X2713000Y1184299D01*
X2713000Y1212899D01*
X2930100Y-305000D02*
G01*
X2960799Y-305000D01*
X2966899Y-303000D01*
X2971000Y-298899D01*
X2973000Y-292699D01*
X2973000Y-288600D01*
X2971000Y-282500D01*
X2966899Y-278400D01*
X2960799Y-276399D01*
X2930100Y-276399D01*
X2940299Y-260799D02*
G01*
X2938299Y-260799D01*
X2934200Y-258800D01*
X2932100Y-256700D01*
X2930100Y-252600D01*
X2930100Y-244499D01*
X2932100Y-240399D01*
X2934200Y-238299D01*
X2938299Y-236300D01*
X2942399Y-236300D01*
X2946499Y-238299D01*
X2952600Y-242399D01*
X2973000Y-262899D01*
X2973000Y-234200D01*
X2930100Y-216599D02*
G01*
X2930100Y-194099D01*
X2946499Y-206399D01*
X2946499Y-200300D01*
X2948500Y-196199D01*
X2950500Y-194099D01*
X2956700Y-192100D01*
X2960799Y-192100D01*
X2966899Y-194099D01*
X2971000Y-198200D01*
X2973000Y-204400D01*
X2973000Y-210500D01*
X2971000Y-216599D01*
X2968999Y-218699D01*
X2964899Y-220700D01*
X3190100Y-305000D02*
G01*
X3220799Y-305000D01*
X3226899Y-303000D01*
X3231000Y-298899D01*
X3233000Y-292699D01*
X3233000Y-288600D01*
X3231000Y-282500D01*
X3226899Y-278400D01*
X3220799Y-276399D01*
X3190100Y-276399D01*
X3200299Y-260799D02*
G01*
X3198299Y-260799D01*
X3194200Y-258800D01*
X3192100Y-256700D01*
X3190100Y-252600D01*
X3190100Y-244499D01*
X3192100Y-240399D01*
X3194200Y-238299D01*
X3198299Y-236300D01*
X3202399Y-236300D01*
X3206499Y-238299D01*
X3212600Y-242399D01*
X3233000Y-262899D01*
X3233000Y-234200D01*
X3190100Y-200300D02*
G01*
X3218699Y-220700D01*
X3218699Y-190000D01*
X3190100Y-200300D02*
G01*
X3233000Y-200300D01*
X3455100Y-305000D02*
G01*
X3485799Y-305000D01*
X3491899Y-303000D01*
X3496000Y-298899D01*
X3498000Y-292699D01*
X3498000Y-288600D01*
X3496000Y-282500D01*
X3491899Y-278400D01*
X3485799Y-276399D01*
X3455100Y-276399D01*
X3465299Y-260799D02*
G01*
X3463299Y-260799D01*
X3459200Y-258800D01*
X3457100Y-256700D01*
X3455100Y-252600D01*
X3455100Y-244499D01*
X3457100Y-240399D01*
X3459200Y-238299D01*
X3463299Y-236300D01*
X3467399Y-236300D01*
X3471499Y-238299D01*
X3477600Y-242399D01*
X3498000Y-262899D01*
X3498000Y-234200D01*
X3455100Y-196199D02*
G01*
X3455100Y-216599D01*
X3473500Y-218699D01*
X3471499Y-216599D01*
X3469399Y-210500D01*
X3469399Y-204400D01*
X3471499Y-198200D01*
X3475500Y-194099D01*
X3481700Y-192100D01*
X3485799Y-192100D01*
X3491899Y-194099D01*
X3496000Y-198200D01*
X3498000Y-204400D01*
X3498000Y-210500D01*
X3496000Y-216599D01*
X3493999Y-218699D01*
X3489899Y-220700D01*
X2945100Y1105000D02*
G01*
X2975799Y1105000D01*
X2981899Y1106999D01*
X2986000Y1111100D01*
X2988000Y1117300D01*
X2988000Y1121399D01*
X2986000Y1127500D01*
X2981899Y1131599D01*
X2975799Y1133600D01*
X2945100Y1133600D01*
X2955299Y1149200D02*
G01*
X2953299Y1149200D01*
X2949200Y1151199D01*
X2947100Y1153299D01*
X2945100Y1157399D01*
X2945100Y1165500D01*
X2947100Y1169600D01*
X2949200Y1171700D01*
X2953299Y1173699D01*
X2957399Y1173699D01*
X2961499Y1171700D01*
X2967600Y1167600D01*
X2988000Y1147100D01*
X2988000Y1175799D01*
X2951199Y1213800D02*
G01*
X2947100Y1211799D01*
X2945100Y1205599D01*
X2945100Y1201500D01*
X2947100Y1195399D01*
X2953299Y1191300D01*
X2963500Y1189299D01*
X2973699Y1189299D01*
X2981899Y1191300D01*
X2986000Y1195399D01*
X2988000Y1201500D01*
X2988000Y1203600D01*
X2986000Y1209699D01*
X2981899Y1213800D01*
X2975799Y1215900D01*
X2973699Y1215900D01*
X2967600Y1213800D01*
X2963500Y1209699D01*
X2961499Y1203600D01*
X2961499Y1201500D01*
X2963500Y1195399D01*
X2967600Y1191300D01*
X2973699Y1189299D01*
X3205100Y1105000D02*
G01*
X3235799Y1105000D01*
X3241899Y1106999D01*
X3246000Y1111100D01*
X3248000Y1117300D01*
X3248000Y1121399D01*
X3246000Y1127500D01*
X3241899Y1131599D01*
X3235799Y1133600D01*
X3205100Y1133600D01*
X3215299Y1149200D02*
G01*
X3213299Y1149200D01*
X3209200Y1151199D01*
X3207100Y1153299D01*
X3205100Y1157399D01*
X3205100Y1165500D01*
X3207100Y1169600D01*
X3209200Y1171700D01*
X3213299Y1173699D01*
X3217399Y1173699D01*
X3221499Y1171700D01*
X3227600Y1167600D01*
X3248000Y1147100D01*
X3248000Y1175799D01*
X3205100Y1217899D02*
G01*
X3248000Y1197500D01*
X3205100Y1189299D02*
G01*
X3205100Y1217899D01*
X3455100Y1110000D02*
G01*
X3485799Y1110000D01*
X3491899Y1111999D01*
X3496000Y1116100D01*
X3498000Y1122300D01*
X3498000Y1126399D01*
X3496000Y1132500D01*
X3491899Y1136599D01*
X3485799Y1138600D01*
X3455100Y1138600D01*
X3465299Y1154200D02*
G01*
X3463299Y1154200D01*
X3459200Y1156199D01*
X3457100Y1158299D01*
X3455100Y1162399D01*
X3455100Y1170500D01*
X3457100Y1174600D01*
X3459200Y1176700D01*
X3463299Y1178699D01*
X3467399Y1178699D01*
X3471499Y1176700D01*
X3477600Y1172600D01*
X3498000Y1152100D01*
X3498000Y1180799D01*
X3455100Y1204499D02*
G01*
X3457100Y1198400D01*
X3461199Y1196300D01*
X3465299Y1196300D01*
X3469399Y1198400D01*
X3471499Y1202500D01*
X3473500Y1210599D01*
X3475500Y1216799D01*
X3479600Y1220900D01*
X3483699Y1222899D01*
X3489899Y1222899D01*
X3493999Y1220900D01*
X3496000Y1218800D01*
X3498000Y1212699D01*
X3498000Y1204499D01*
X3496000Y1198400D01*
X3493999Y1196300D01*
X3489899Y1194299D01*
X3483699Y1194299D01*
X3479600Y1196300D01*
X3475500Y1200399D01*
X3473500Y1206500D01*
X3471499Y1214699D01*
X3469399Y1218800D01*
X3465299Y1220900D01*
X3461199Y1220900D01*
X3457100Y1218800D01*
X3455100Y1212699D01*
X3455100Y1204499D01*
X3525000Y1654899D02*
G01*
X3525000Y1624200D01*
X3526999Y1618099D01*
X3531099Y1614000D01*
X3537299Y1611999D01*
X3541400Y1611999D01*
X3547500Y1614000D01*
X3551599Y1618099D01*
X3553599Y1624200D01*
X3553599Y1654899D01*
X3569200Y1644699D02*
G01*
X3569200Y1646700D01*
X3571199Y1650799D01*
X3573299Y1652899D01*
X3577399Y1654899D01*
X3585500Y1654899D01*
X3589600Y1652899D01*
X3591700Y1650799D01*
X3593699Y1646700D01*
X3593699Y1642600D01*
X3591700Y1638499D01*
X3587600Y1632399D01*
X3567100Y1611999D01*
X3595799Y1611999D01*
X3635900Y1640599D02*
G01*
X3633800Y1634499D01*
X3629700Y1630399D01*
X3623599Y1628299D01*
X3621499Y1628299D01*
X3615399Y1630399D01*
X3611300Y1634499D01*
X3609300Y1640599D01*
X3609300Y1642600D01*
X3611300Y1648800D01*
X3615399Y1652899D01*
X3621499Y1654899D01*
X3623599Y1654899D01*
X3629700Y1652899D01*
X3633800Y1648800D01*
X3635900Y1640599D01*
X3635900Y1630399D01*
X3633800Y1620100D01*
X3629700Y1614000D01*
X3623599Y1611999D01*
X3619499Y1611999D01*
X3613400Y1614000D01*
X3611300Y1618099D01*
X3715100Y1105000D02*
G01*
X3745799Y1105000D01*
X3751899Y1106999D01*
X3756000Y1111100D01*
X3758000Y1117300D01*
X3758000Y1121399D01*
X3756000Y1127500D01*
X3751899Y1131599D01*
X3745799Y1133600D01*
X3715100Y1133600D01*
X3715100Y1151199D02*
G01*
X3715100Y1173699D01*
X3731499Y1161500D01*
X3731499Y1167600D01*
X3733500Y1171700D01*
X3735500Y1173699D01*
X3741700Y1175799D01*
X3745799Y1175799D01*
X3751899Y1173699D01*
X3756000Y1169600D01*
X3758000Y1163499D01*
X3758000Y1157399D01*
X3756000Y1151199D01*
X3753999Y1149200D01*
X3749899Y1147100D01*
X3715100Y1201500D02*
G01*
X3717100Y1195399D01*
X3723299Y1191300D01*
X3733500Y1189299D01*
X3739600Y1189299D01*
X3749899Y1191300D01*
X3756000Y1195399D01*
X3758000Y1201500D01*
X3758000Y1205599D01*
X3756000Y1211799D01*
X3749899Y1215900D01*
X3739600Y1217899D01*
X3733500Y1217899D01*
X3723299Y1215900D01*
X3717100Y1211799D01*
X3715100Y1205599D01*
X3715100Y1201500D01*
X4549899Y535000D02*
G01*
X4519200Y535000D01*
X4513100Y533000D01*
X4508999Y528899D01*
X4506999Y522699D01*
X4506999Y518600D01*
X4508999Y512500D01*
X4513100Y508400D01*
X4519200Y506399D01*
X4549899Y506399D01*
X4549899Y488800D02*
G01*
X4549899Y466300D01*
X4533500Y478499D01*
X4533500Y472399D01*
X4531499Y468299D01*
X4529499Y466300D01*
X4523299Y464200D01*
X4519200Y464200D01*
X4513100Y466300D01*
X4508999Y470399D01*
X4506999Y476500D01*
X4506999Y482600D01*
X4508999Y488800D01*
X4511000Y490799D01*
X4515100Y492899D01*
X4541700Y450700D02*
G01*
X4543800Y446599D01*
X4549899Y440500D01*
X4506999Y440500D01*
X3980100Y1105000D02*
G01*
X4010799Y1105000D01*
X4016899Y1106999D01*
X4021000Y1111100D01*
X4023000Y1117300D01*
X4023000Y1121399D01*
X4021000Y1127500D01*
X4016899Y1131599D01*
X4010799Y1133600D01*
X3980100Y1133600D01*
X3980100Y1151199D02*
G01*
X3980100Y1173699D01*
X3996499Y1161500D01*
X3996499Y1167600D01*
X3998500Y1171700D01*
X4000500Y1173699D01*
X4006700Y1175799D01*
X4010799Y1175799D01*
X4016899Y1173699D01*
X4021000Y1169600D01*
X4023000Y1163499D01*
X4023000Y1157399D01*
X4021000Y1151199D01*
X4018999Y1149200D01*
X4014899Y1147100D01*
X3990299Y1191300D02*
G01*
X3988299Y1191300D01*
X3984200Y1193400D01*
X3982100Y1195399D01*
X3980100Y1199499D01*
X3980100Y1207699D01*
X3982100Y1211799D01*
X3984200Y1213800D01*
X3988299Y1215900D01*
X3992399Y1215900D01*
X3996499Y1213800D01*
X4002600Y1209699D01*
X4023000Y1189299D01*
X4023000Y1217899D01*
X4270100Y-310000D02*
G01*
X4300799Y-310000D01*
X4306899Y-308000D01*
X4311000Y-303899D01*
X4313000Y-297699D01*
X4313000Y-293600D01*
X4311000Y-287500D01*
X4306899Y-283400D01*
X4300799Y-281399D01*
X4270100Y-281399D01*
X4270100Y-263800D02*
G01*
X4270100Y-241300D01*
X4286499Y-253499D01*
X4286499Y-247399D01*
X4288500Y-243299D01*
X4290500Y-241300D01*
X4296700Y-239200D01*
X4300799Y-239200D01*
X4306899Y-241300D01*
X4311000Y-245399D01*
X4313000Y-251500D01*
X4313000Y-257600D01*
X4311000Y-263800D01*
X4308999Y-265799D01*
X4304899Y-267899D01*
X4270100Y-221599D02*
G01*
X4270100Y-199099D01*
X4286499Y-211399D01*
X4286499Y-205300D01*
X4288500Y-201199D01*
X4290500Y-199099D01*
X4296700Y-197100D01*
X4300799Y-197100D01*
X4306899Y-199099D01*
X4311000Y-203200D01*
X4313000Y-209400D01*
X4313000Y-215500D01*
X4311000Y-221599D01*
X4308999Y-223699D01*
X4304899Y-225700D01*
X3990100Y-305000D02*
G01*
X4020799Y-305000D01*
X4026899Y-303000D01*
X4031000Y-298899D01*
X4033000Y-292699D01*
X4033000Y-288600D01*
X4031000Y-282500D01*
X4026899Y-278400D01*
X4020799Y-276399D01*
X3990100Y-276399D01*
X3990100Y-258800D02*
G01*
X3990100Y-236300D01*
X4006499Y-248499D01*
X4006499Y-242399D01*
X4008500Y-238299D01*
X4010500Y-236300D01*
X4016700Y-234200D01*
X4020799Y-234200D01*
X4026899Y-236300D01*
X4031000Y-240399D01*
X4033000Y-246500D01*
X4033000Y-252600D01*
X4031000Y-258800D01*
X4028999Y-260799D01*
X4024899Y-262899D01*
X3990100Y-200300D02*
G01*
X4018699Y-220700D01*
X4018699Y-190000D01*
X3990100Y-200300D02*
G01*
X4033000Y-200300D01*
X3725100Y-295000D02*
G01*
X3755799Y-295000D01*
X3761899Y-293000D01*
X3766000Y-288899D01*
X3768000Y-282699D01*
X3768000Y-278600D01*
X3766000Y-272500D01*
X3761899Y-268400D01*
X3755799Y-266399D01*
X3725100Y-266399D01*
X3725100Y-248800D02*
G01*
X3725100Y-226300D01*
X3741499Y-238499D01*
X3741499Y-232399D01*
X3743500Y-228299D01*
X3745500Y-226300D01*
X3751700Y-224200D01*
X3755799Y-224200D01*
X3761899Y-226300D01*
X3766000Y-230399D01*
X3768000Y-236500D01*
X3768000Y-242600D01*
X3766000Y-248800D01*
X3763999Y-250799D01*
X3759899Y-252899D01*
X3725100Y-186199D02*
G01*
X3725100Y-206599D01*
X3743500Y-208699D01*
X3741499Y-206599D01*
X3739399Y-200500D01*
X3739399Y-194400D01*
X3741499Y-188200D01*
X3745500Y-184099D01*
X3751700Y-182100D01*
X3755799Y-182100D01*
X3761899Y-184099D01*
X3766000Y-188200D01*
X3768000Y-194400D01*
X3768000Y-200500D01*
X3766000Y-206599D01*
X3763999Y-208699D01*
X3759899Y-210700D01*
X2439994Y-1679600D02*
G01*
X2439994Y-1710300D01*
X2441994Y-1716399D01*
X2446094Y-1720500D01*
X2452295Y-1722500D01*
X2456395Y-1722500D01*
X2462494Y-1720500D01*
X2466594Y-1716399D01*
X2468594Y-1710300D01*
X2468594Y-1679600D01*
X2486194Y-1679600D02*
G01*
X2508694Y-1679600D01*
X2496495Y-1695999D01*
X2502595Y-1695999D01*
X2506694Y-1698000D01*
X2508694Y-1700000D01*
X2510794Y-1706199D01*
X2510794Y-1710300D01*
X2508694Y-1716399D01*
X2504594Y-1720500D01*
X2498495Y-1722500D01*
X2492394Y-1722500D01*
X2486194Y-1720500D01*
X2484194Y-1718499D01*
X2482094Y-1714400D01*
X2548795Y-1685700D02*
G01*
X2546795Y-1681599D01*
X2540595Y-1679600D01*
X2536495Y-1679600D01*
X2530394Y-1681599D01*
X2526295Y-1687800D01*
X2524295Y-1698000D01*
X2524295Y-1708200D01*
X2526295Y-1716399D01*
X2530394Y-1720500D01*
X2536495Y-1722500D01*
X2538594Y-1722500D01*
X2544695Y-1720500D01*
X2548795Y-1716399D01*
X2550895Y-1710300D01*
X2550895Y-1708200D01*
X2548795Y-1702100D01*
X2544695Y-1698000D01*
X2538594Y-1695999D01*
X2536495Y-1695999D01*
X2530394Y-1698000D01*
X2526295Y-1702100D01*
X2524295Y-1708200D01*
X2989994Y-1674600D02*
G01*
X2989994Y-1705300D01*
X2991994Y-1711399D01*
X2996094Y-1715500D01*
X3002295Y-1717500D01*
X3006395Y-1717500D01*
X3012494Y-1715500D01*
X3016594Y-1711399D01*
X3018594Y-1705300D01*
X3018594Y-1674600D01*
X3036194Y-1674600D02*
G01*
X3058694Y-1674600D01*
X3046495Y-1690999D01*
X3052595Y-1690999D01*
X3056694Y-1693000D01*
X3058694Y-1695000D01*
X3060794Y-1701199D01*
X3060794Y-1705300D01*
X3058694Y-1711399D01*
X3054594Y-1715500D01*
X3048495Y-1717500D01*
X3042394Y-1717500D01*
X3036194Y-1715500D01*
X3034194Y-1713499D01*
X3032094Y-1709400D01*
X3102894Y-1674600D02*
G01*
X3082494Y-1717500D01*
X3074295Y-1674600D02*
G01*
X3102894Y-1674600D01*
X1904600Y-1750005D02*
G01*
X1935299Y-1750005D01*
X1941400Y-1748004D01*
X1945500Y-1743904D01*
X1947500Y-1737705D01*
X1947500Y-1733604D01*
X1945500Y-1727505D01*
X1941400Y-1723404D01*
X1935299Y-1721404D01*
X1904600Y-1721404D01*
X1904600Y-1703805D02*
G01*
X1904600Y-1681305D01*
X1921000Y-1693505D01*
X1921000Y-1687404D01*
X1923000Y-1683305D01*
X1925000Y-1681305D01*
X1931199Y-1679205D01*
X1935299Y-1679205D01*
X1941400Y-1681305D01*
X1945500Y-1685405D01*
X1947500Y-1691505D01*
X1947500Y-1697604D01*
X1945500Y-1703805D01*
X1943500Y-1705805D01*
X1939399Y-1707905D01*
X1918900Y-1639104D02*
G01*
X1925000Y-1641205D01*
X1929099Y-1645304D01*
X1931199Y-1651404D01*
X1931199Y-1653505D01*
X1929099Y-1659605D01*
X1925000Y-1663705D01*
X1918900Y-1665704D01*
X1916899Y-1665704D01*
X1910699Y-1663705D01*
X1906599Y-1659605D01*
X1904600Y-1653505D01*
X1904600Y-1651404D01*
X1906599Y-1645304D01*
X1910699Y-1641205D01*
X1918900Y-1639104D01*
X1929099Y-1639104D01*
X1939399Y-1641205D01*
X1945500Y-1645304D01*
X1947500Y-1651404D01*
X1947500Y-1655504D01*
X1945500Y-1661604D01*
X1941400Y-1663705D01*
X1680005Y-1655399D02*
G01*
X1680005Y-1624699D01*
X1678005Y-1618600D01*
X1673905Y-1614499D01*
X1667704Y-1612500D01*
X1663604Y-1612500D01*
X1657505Y-1614499D01*
X1653405Y-1618600D01*
X1651405Y-1624699D01*
X1651405Y-1655399D01*
X1617404Y-1655399D02*
G01*
X1637905Y-1626799D01*
X1607205Y-1626799D01*
X1617404Y-1655399D02*
G01*
X1617404Y-1612500D01*
X1581405Y-1655399D02*
G01*
X1587505Y-1653400D01*
X1591604Y-1647199D01*
X1593705Y-1636999D01*
X1593705Y-1630900D01*
X1591604Y-1620599D01*
X1587505Y-1614499D01*
X1581405Y-1612500D01*
X1577304Y-1612500D01*
X1571205Y-1614499D01*
X1567105Y-1620599D01*
X1565005Y-1630900D01*
X1565005Y-1636999D01*
X1567105Y-1647199D01*
X1571205Y-1653400D01*
X1577304Y-1655399D01*
X1581405Y-1655399D01*
X1235000Y-1454600D02*
G01*
X1235000Y-1485300D01*
X1236999Y-1491399D01*
X1241099Y-1495500D01*
X1247299Y-1497500D01*
X1251400Y-1497500D01*
X1257500Y-1495500D01*
X1261599Y-1491399D01*
X1263599Y-1485300D01*
X1263599Y-1454600D01*
X1281199Y-1454600D02*
G01*
X1303699Y-1454600D01*
X1291499Y-1470999D01*
X1297600Y-1470999D01*
X1301700Y-1473000D01*
X1303699Y-1475000D01*
X1305799Y-1481199D01*
X1305799Y-1485300D01*
X1303699Y-1491399D01*
X1299600Y-1495500D01*
X1293500Y-1497500D01*
X1287399Y-1497500D01*
X1281199Y-1495500D01*
X1279200Y-1493499D01*
X1277100Y-1489400D01*
X1329499Y-1454600D02*
G01*
X1323400Y-1456599D01*
X1321300Y-1460700D01*
X1321300Y-1464800D01*
X1323400Y-1468899D01*
X1327500Y-1470999D01*
X1335600Y-1473000D01*
X1341800Y-1475000D01*
X1345900Y-1479099D01*
X1347899Y-1483200D01*
X1347899Y-1489400D01*
X1345900Y-1493499D01*
X1343800Y-1495500D01*
X1337700Y-1497500D01*
X1329499Y-1497500D01*
X1323400Y-1495500D01*
X1321300Y-1493499D01*
X1319300Y-1489400D01*
X1319300Y-1483200D01*
X1321300Y-1479099D01*
X1325399Y-1475000D01*
X1331499Y-1473000D01*
X1339700Y-1470999D01*
X1343800Y-1468899D01*
X1345900Y-1464800D01*
X1345900Y-1460700D01*
X1343800Y-1456599D01*
X1337700Y-1454600D01*
X1329499Y-1454600D01*
X755000Y-1644600D02*
G01*
X755000Y-1675300D01*
X756999Y-1681399D01*
X761099Y-1685500D01*
X767299Y-1687500D01*
X771400Y-1687500D01*
X777500Y-1685500D01*
X781599Y-1681399D01*
X783599Y-1675300D01*
X783599Y-1644600D01*
X817600Y-1644600D02*
G01*
X797100Y-1673200D01*
X827799Y-1673200D01*
X817600Y-1644600D02*
G01*
X817600Y-1687500D01*
X841300Y-1652800D02*
G01*
X845399Y-1650700D01*
X851499Y-1644600D01*
X851499Y-1687500D01*
X725000Y-974600D02*
G01*
X725000Y-1005300D01*
X726999Y-1011399D01*
X731100Y-1015500D01*
X737300Y-1017500D01*
X741399Y-1017500D01*
X747500Y-1015500D01*
X751599Y-1011399D01*
X753600Y-1005300D01*
X753600Y-974600D01*
X787600Y-974600D02*
G01*
X767100Y-1003200D01*
X797799Y-1003200D01*
X787600Y-974600D02*
G01*
X787600Y-1017500D01*
X813400Y-984800D02*
G01*
X813400Y-982800D01*
X815399Y-978699D01*
X817500Y-976599D01*
X821499Y-974600D01*
X829700Y-974600D01*
X833800Y-976599D01*
X835900Y-978699D01*
X837899Y-982800D01*
X837899Y-986900D01*
X835900Y-990999D01*
X831800Y-997100D01*
X811300Y-1017500D01*
X840000Y-1017500D01*
X2585000Y-515100D02*
G01*
X2585000Y-545799D01*
X2586999Y-551900D01*
X2591099Y-555999D01*
X2597299Y-558000D01*
X2601400Y-558000D01*
X2607500Y-555999D01*
X2611599Y-551900D01*
X2613599Y-545799D01*
X2613599Y-515100D01*
X2647600Y-515100D02*
G01*
X2627100Y-543699D01*
X2657799Y-543699D01*
X2647600Y-515100D02*
G01*
X2647600Y-558000D01*
X2675399Y-515100D02*
G01*
X2697899Y-515100D01*
X2685600Y-531500D01*
X2691800Y-531500D01*
X2695900Y-533499D01*
X2697899Y-535500D01*
X2700000Y-541700D01*
X2700000Y-545799D01*
X2697899Y-551900D01*
X2693800Y-555999D01*
X2687700Y-558000D01*
X2681499Y-558000D01*
X2675399Y-555999D01*
X2673400Y-554000D01*
X2671300Y-549899D01*
G36*
X1567640Y-768160D02*
G01*
X1567640Y-1161840D01*
X1599580Y-1129860D01*
X1605620Y-1123340D01*
X1611420Y-1116600D01*
X1616960Y-1109660D01*
X1622240Y-1102500D01*
X1627240Y-1095160D01*
X1631960Y-1087640D01*
X1636399Y-1079940D01*
X1640560Y-1072080D01*
X1644420Y-1064080D01*
X1647980Y-1055940D01*
X1651220Y-1047660D01*
X1654160Y-1039280D01*
X1656780Y-1030780D01*
X1659079Y-1022200D01*
X1661040Y-1013540D01*
X1661920Y-1009180D01*
X1663400Y-1000420D01*
X1664560Y-991600D01*
X1665400Y-982760D01*
X1665900Y-973880D01*
X1666060Y-965000D01*
X1665900Y-956120D01*
X1665400Y-947240D01*
X1664560Y-938400D01*
X1663400Y-929580D01*
X1661920Y-920819D01*
X1660100Y-912120D01*
X1659079Y-907800D01*
X1656780Y-899220D01*
X1654160Y-890720D01*
X1651220Y-882340D01*
X1647980Y-874060D01*
X1644420Y-865920D01*
X1640560Y-857920D01*
X1636399Y-850060D01*
X1631960Y-842360D01*
X1627240Y-834840D01*
X1622240Y-827500D01*
X1616960Y-820340D01*
X1611420Y-813400D01*
X1605620Y-806660D01*
X1599580Y-800140D01*
G37*
D11*
X1800789Y-2106729D02*
G01*
X1899210Y-2106729D01*
X1800789Y-2106729D02*
G01*
X1800789Y-1823270D01*
X1899210Y-1823270D02*
G01*
X1800789Y-1823270D01*
X1899210Y-1823270D02*
G01*
X1899210Y-2106729D01*
X1256994Y-958000D02*
G01*
X1190995Y-958000D01*
X1222995Y-990999D02*
G01*
X1222995Y-923000D01*
X3397637Y-2074881D02*
G01*
X3602362Y-2074881D01*
X3602362Y-2074881D02*
G01*
X3602362Y-2185118D01*
X3397637Y-2185118D02*
G01*
X3602362Y-2185118D01*
X3397637Y-2074881D02*
G01*
X3397637Y-2185118D01*
X3435403Y-2074881D02*
G01*
X3435403Y-2185118D01*
X2340460Y-1961889D02*
G01*
X2516613Y-1961889D01*
X2548109Y-2038879D02*
G01*
X2548109Y-2121120D01*
X2311890Y-2038879D02*
G01*
X2311890Y-2121120D01*
X2340460Y-2198110D02*
G01*
X2519539Y-2198110D01*
X2850460Y-1956889D02*
G01*
X3026613Y-1956889D01*
X3058109Y-2033879D02*
G01*
X3058109Y-2116120D01*
X2821890Y-2033879D02*
G01*
X2821890Y-2116120D01*
X2850460Y-2193110D02*
G01*
X3029539Y-2193110D01*
D12*
X1701994Y204501D02*
G01*
X1723995Y327501D01*
X1912995Y197501D02*
G01*
X1934994Y320500D01*
X1873995Y161500D02*
G01*
X1729994Y161500D01*
X1905995Y366500D02*
G01*
X1761994Y366500D01*
X1944994Y402501D02*
G01*
X1966994Y525500D01*
X1935995Y571500D02*
G01*
X1791994Y571500D01*
X1733995Y409501D02*
G01*
X1755995Y532501D01*
D13*
X1597183Y753501D02*
G01*
X1597183Y5470D01*
X2093247Y5470D01*
X2093247Y753501D01*
X1597183Y753501D01*
D12*
X2421994Y194501D02*
G01*
X2443995Y317501D01*
X2632995Y187501D02*
G01*
X2654994Y310500D01*
X2593995Y151500D02*
G01*
X2449994Y151500D01*
X2625995Y356500D02*
G01*
X2481994Y356500D01*
X2664994Y392501D02*
G01*
X2686994Y515500D01*
X2655995Y561500D02*
G01*
X2511994Y561500D01*
X2453995Y399501D02*
G01*
X2475995Y522501D01*
D13*
X2317183Y743501D02*
G01*
X2317183Y-4529D01*
X2813247Y-4529D01*
X2813247Y743501D01*
X2317183Y743501D01*
D12*
X3111994Y199501D02*
G01*
X3133995Y322501D01*
X3322995Y192501D02*
G01*
X3344994Y315500D01*
X3283995Y156500D02*
G01*
X3139994Y156500D01*
X3315995Y361500D02*
G01*
X3171994Y361500D01*
X3354994Y397501D02*
G01*
X3376994Y520500D01*
X3345995Y566500D02*
G01*
X3201994Y566500D01*
X3143995Y404501D02*
G01*
X3165995Y527501D01*
D13*
X3007183Y748501D02*
G01*
X3007183Y470D01*
X3503247Y470D01*
X3503247Y748501D01*
X3007183Y748501D01*
D12*
X3816994Y194501D02*
G01*
X3838995Y317501D01*
X4027995Y187501D02*
G01*
X4049994Y310500D01*
X3988995Y151500D02*
G01*
X3844994Y151500D01*
X4020995Y356500D02*
G01*
X3876994Y356500D01*
X4059994Y392501D02*
G01*
X4081994Y515500D01*
X4050995Y561500D02*
G01*
X3906994Y561500D01*
X3848995Y399501D02*
G01*
X3870995Y522501D01*
D13*
X3712183Y743501D02*
G01*
X3712183Y-4529D01*
X4208247Y-4529D01*
X4208247Y743501D01*
X3712183Y743501D01*
D11*
X2775000Y-1550000D02*
G01*
X2775000Y-850000D01*
X2375000Y-850000D02*
G01*
X2375000Y-1550000D01*
X2775000Y-1550000D02*
G01*
X2675000Y-1550000D01*
X2775000Y-850000D02*
G01*
X2675000Y-850000D01*
X2375000Y-850000D02*
G01*
X2475000Y-850000D01*
X2675000Y-850000D02*
G01*
X2675000Y-1550000D01*
X2675000Y-850000D02*
G01*
X2615000Y-850000D01*
X2675000Y-1550000D02*
G01*
X2475000Y-1550000D01*
X2475000Y-850000D02*
G01*
X2475000Y-1550000D01*
X2475000Y-850000D02*
G01*
X2535000Y-850000D01*
X2475000Y-1550000D02*
G01*
X2375000Y-1550000D01*
X1275280Y-1748150D02*
G01*
X1684729Y-1748150D01*
X1684729Y-2149729D01*
X1275280Y-2149729D01*
X1275280Y-1748150D01*
X1009300Y783703D02*
G01*
X1095910Y783703D01*
X844021Y783703D02*
G01*
X930631Y783703D01*
X1095979Y-3695D02*
G01*
X1095979Y783703D01*
X844021Y-3695D02*
G01*
X844021Y783703D01*
X844021Y-3695D02*
G01*
X1095979Y-3695D01*
X1516297Y1674299D02*
G01*
X1516297Y1760909D01*
X1516297Y1509020D02*
G01*
X1516297Y1595630D01*
X2303696Y1760979D02*
G01*
X1516297Y1760979D01*
X2303696Y1509020D02*
G01*
X1516297Y1509020D01*
X2303696Y1509020D02*
G01*
X2303696Y1760979D01*
X3264300Y-781296D02*
G01*
X3350910Y-781296D01*
X3099021Y-781296D02*
G01*
X3185631Y-781296D01*
X3350979Y-1568696D02*
G01*
X3350979Y-781296D01*
X3099021Y-1568696D02*
G01*
X3099021Y-781296D01*
X3099021Y-1568696D02*
G01*
X3350979Y-1568696D01*
X4639300Y1638703D02*
G01*
X4725910Y1638703D01*
X4474021Y1638703D02*
G01*
X4560631Y1638703D01*
X4725980Y851304D02*
G01*
X4725980Y1638703D01*
X4474021Y851304D02*
G01*
X4474021Y1638703D01*
X4474021Y851304D02*
G01*
X4725980Y851304D01*
X2019300Y-611296D02*
G01*
X2105910Y-611296D01*
X1854021Y-611296D02*
G01*
X1940631Y-611296D01*
X2105979Y-1398696D02*
G01*
X2105979Y-611296D01*
X1854021Y-1398696D02*
G01*
X1854021Y-611296D01*
X1854021Y-1398696D02*
G01*
X2105979Y-1398696D01*
X3879300Y-771296D02*
G01*
X3965910Y-771296D01*
X3714021Y-771296D02*
G01*
X3800631Y-771296D01*
X3965979Y-1558696D02*
G01*
X3965979Y-771296D01*
X3714021Y-1558696D02*
G01*
X3714021Y-771296D01*
X3714021Y-1558696D02*
G01*
X3965979Y-1558696D01*
X4514300Y-786296D02*
G01*
X4600910Y-786296D01*
X4349021Y-786296D02*
G01*
X4435631Y-786296D01*
X4600980Y-1573696D02*
G01*
X4600980Y-786296D01*
X4349021Y-1573696D02*
G01*
X4349021Y-786296D01*
X4349021Y-1573696D02*
G01*
X4600980Y-1573696D01*
X1261575Y-104212D02*
G01*
X1261575Y-505787D01*
X1261575Y-104212D02*
G01*
X1438739Y-104212D01*
X1261575Y-505787D02*
G01*
X1438739Y-505787D01*
X1438739Y-505787D02*
G01*
X1438739Y-104212D01*
X1358981Y-505787D02*
G01*
X1358981Y-453499D01*
X1358981Y-356500D02*
G01*
X1358981Y-253470D01*
X1358981Y-156529D02*
G01*
X1358981Y-104212D01*
X1556575Y-99212D02*
G01*
X1556575Y-500787D01*
X1556575Y-99212D02*
G01*
X1733739Y-99212D01*
X1556575Y-500787D02*
G01*
X1733739Y-500787D01*
X1733739Y-500787D02*
G01*
X1733739Y-99212D01*
X1653981Y-500787D02*
G01*
X1653981Y-448499D01*
X1653981Y-351500D02*
G01*
X1653981Y-248470D01*
X1653981Y-151529D02*
G01*
X1653981Y-99212D01*
X1836575Y-104212D02*
G01*
X1836575Y-505787D01*
X1836575Y-104212D02*
G01*
X2013739Y-104212D01*
X1836575Y-505787D02*
G01*
X2013739Y-505787D01*
X2013739Y-505787D02*
G01*
X2013739Y-104212D01*
X1933981Y-505787D02*
G01*
X1933981Y-453499D01*
X1933981Y-356500D02*
G01*
X1933981Y-253470D01*
X1933981Y-156529D02*
G01*
X1933981Y-104212D01*
X1101575Y1295787D02*
G01*
X1101575Y894212D01*
X1101575Y1295787D02*
G01*
X1278739Y1295787D01*
X1101575Y894212D02*
G01*
X1278739Y894212D01*
X1278739Y894212D02*
G01*
X1278739Y1295787D01*
X1198981Y894212D02*
G01*
X1198981Y946500D01*
X1198981Y1043499D02*
G01*
X1198981Y1146529D01*
X1198981Y1243470D02*
G01*
X1198981Y1295787D01*
X1946575Y1305787D02*
G01*
X1946575Y904212D01*
X1946575Y1305787D02*
G01*
X2123739Y1305787D01*
X1946575Y904212D02*
G01*
X2123739Y904212D01*
X2123739Y904212D02*
G01*
X2123739Y1305787D01*
X2043981Y904212D02*
G01*
X2043981Y956500D01*
X2043981Y1053499D02*
G01*
X2043981Y1156529D01*
X2043981Y1253470D02*
G01*
X2043981Y1305787D01*
X2186575Y-99212D02*
G01*
X2186575Y-500787D01*
X2186575Y-99212D02*
G01*
X2363739Y-99212D01*
X2186575Y-500787D02*
G01*
X2363739Y-500787D01*
X2363739Y-500787D02*
G01*
X2363739Y-99212D01*
X2283981Y-500787D02*
G01*
X2283981Y-448499D01*
X2283981Y-351500D02*
G01*
X2283981Y-248470D01*
X2283981Y-151529D02*
G01*
X2283981Y-99212D01*
X1391575Y1305787D02*
G01*
X1391575Y904212D01*
X1391575Y1305787D02*
G01*
X1568739Y1305787D01*
X1391575Y904212D02*
G01*
X1568739Y904212D01*
X1568739Y904212D02*
G01*
X1568739Y1305787D01*
X1488981Y904212D02*
G01*
X1488981Y956500D01*
X1488981Y1053499D02*
G01*
X1488981Y1156529D01*
X1488981Y1253470D02*
G01*
X1488981Y1305787D01*
X1676575Y1310787D02*
G01*
X1676575Y909212D01*
X1676575Y1310787D02*
G01*
X1853739Y1310787D01*
X1676575Y909212D02*
G01*
X1853739Y909212D01*
X1853739Y909212D02*
G01*
X1853739Y1310787D01*
X1773981Y909212D02*
G01*
X1773981Y961500D01*
X1773981Y1058499D02*
G01*
X1773981Y1161529D01*
X1773981Y1258470D02*
G01*
X1773981Y1310787D01*
X2436575Y-104212D02*
G01*
X2436575Y-505787D01*
X2436575Y-104212D02*
G01*
X2613739Y-104212D01*
X2436575Y-505787D02*
G01*
X2613739Y-505787D01*
X2613739Y-505787D02*
G01*
X2613739Y-104212D01*
X2533981Y-505787D02*
G01*
X2533981Y-453499D01*
X2533981Y-356500D02*
G01*
X2533981Y-253470D01*
X2533981Y-156529D02*
G01*
X2533981Y-104212D01*
X2701575Y-109212D02*
G01*
X2701575Y-510787D01*
X2701575Y-109212D02*
G01*
X2878739Y-109212D01*
X2701575Y-510787D02*
G01*
X2878739Y-510787D01*
X2878739Y-510787D02*
G01*
X2878739Y-109212D01*
X2798981Y-510787D02*
G01*
X2798981Y-458499D01*
X2798981Y-361500D02*
G01*
X2798981Y-258470D01*
X2798981Y-161529D02*
G01*
X2798981Y-109212D01*
X4215787Y1588425D02*
G01*
X3814212Y1588425D01*
X4215787Y1588425D02*
G01*
X4215787Y1411260D01*
X3814212Y1588425D02*
G01*
X3814212Y1411260D01*
X3814212Y1411260D02*
G01*
X4215787Y1411260D01*
X3814212Y1491019D02*
G01*
X3866499Y1491019D01*
X3963500Y1491019D02*
G01*
X4066530Y1491019D01*
X4163469Y1491019D02*
G01*
X4215787Y1491019D01*
X2815787Y1588425D02*
G01*
X2414212Y1588425D01*
X2815787Y1588425D02*
G01*
X2815787Y1411260D01*
X2414212Y1588425D02*
G01*
X2414212Y1411260D01*
X2414212Y1411260D02*
G01*
X2815787Y1411260D01*
X2414212Y1491019D02*
G01*
X2466499Y1491019D01*
X2563500Y1491019D02*
G01*
X2666530Y1491019D01*
X2763469Y1491019D02*
G01*
X2815787Y1491019D01*
X2211575Y1300787D02*
G01*
X2211575Y899212D01*
X2211575Y1300787D02*
G01*
X2388739Y1300787D01*
X2211575Y899212D02*
G01*
X2388739Y899212D01*
X2388739Y899212D02*
G01*
X2388739Y1300787D01*
X2308981Y899212D02*
G01*
X2308981Y951500D01*
X2308981Y1048499D02*
G01*
X2308981Y1151529D01*
X2308981Y1248470D02*
G01*
X2308981Y1300787D01*
X2481575Y1305787D02*
G01*
X2481575Y904212D01*
X2481575Y1305787D02*
G01*
X2658739Y1305787D01*
X2481575Y904212D02*
G01*
X2658739Y904212D01*
X2658739Y904212D02*
G01*
X2658739Y1305787D01*
X2578981Y904212D02*
G01*
X2578981Y956500D01*
X2578981Y1053499D02*
G01*
X2578981Y1156529D01*
X2578981Y1253470D02*
G01*
X2578981Y1305787D01*
X2736575Y1300787D02*
G01*
X2736575Y899212D01*
X2736575Y1300787D02*
G01*
X2913739Y1300787D01*
X2736575Y899212D02*
G01*
X2913739Y899212D01*
X2913739Y899212D02*
G01*
X2913739Y1300787D01*
X2833981Y899212D02*
G01*
X2833981Y951500D01*
X2833981Y1048499D02*
G01*
X2833981Y1151529D01*
X2833981Y1248470D02*
G01*
X2833981Y1300787D01*
X2996575Y-104212D02*
G01*
X2996575Y-505787D01*
X2996575Y-104212D02*
G01*
X3173739Y-104212D01*
X2996575Y-505787D02*
G01*
X3173739Y-505787D01*
X3173739Y-505787D02*
G01*
X3173739Y-104212D01*
X3093981Y-505787D02*
G01*
X3093981Y-453499D01*
X3093981Y-356500D02*
G01*
X3093981Y-253470D01*
X3093981Y-156529D02*
G01*
X3093981Y-104212D01*
X3256575Y-104212D02*
G01*
X3256575Y-505787D01*
X3256575Y-104212D02*
G01*
X3433739Y-104212D01*
X3256575Y-505787D02*
G01*
X3433739Y-505787D01*
X3433739Y-505787D02*
G01*
X3433739Y-104212D01*
X3353981Y-505787D02*
G01*
X3353981Y-453499D01*
X3353981Y-356500D02*
G01*
X3353981Y-253470D01*
X3353981Y-156529D02*
G01*
X3353981Y-104212D01*
X3521575Y-104212D02*
G01*
X3521575Y-505787D01*
X3521575Y-104212D02*
G01*
X3698739Y-104212D01*
X3521575Y-505787D02*
G01*
X3698739Y-505787D01*
X3698739Y-505787D02*
G01*
X3698739Y-104212D01*
X3618981Y-505787D02*
G01*
X3618981Y-453499D01*
X3618981Y-356500D02*
G01*
X3618981Y-253470D01*
X3618981Y-156529D02*
G01*
X3618981Y-104212D01*
X3011575Y1305787D02*
G01*
X3011575Y904212D01*
X3011575Y1305787D02*
G01*
X3188739Y1305787D01*
X3011575Y904212D02*
G01*
X3188739Y904212D01*
X3188739Y904212D02*
G01*
X3188739Y1305787D01*
X3108981Y904212D02*
G01*
X3108981Y956500D01*
X3108981Y1053499D02*
G01*
X3108981Y1156529D01*
X3108981Y1253470D02*
G01*
X3108981Y1305787D01*
X3271575Y1305787D02*
G01*
X3271575Y904212D01*
X3271575Y1305787D02*
G01*
X3448739Y1305787D01*
X3271575Y904212D02*
G01*
X3448739Y904212D01*
X3448739Y904212D02*
G01*
X3448739Y1305787D01*
X3368981Y904212D02*
G01*
X3368981Y956500D01*
X3368981Y1053499D02*
G01*
X3368981Y1156529D01*
X3368981Y1253470D02*
G01*
X3368981Y1305787D01*
X3521575Y1310787D02*
G01*
X3521575Y909212D01*
X3521575Y1310787D02*
G01*
X3698739Y1310787D01*
X3521575Y909212D02*
G01*
X3698739Y909212D01*
X3698739Y909212D02*
G01*
X3698739Y1310787D01*
X3618981Y909212D02*
G01*
X3618981Y961500D01*
X3618981Y1058499D02*
G01*
X3618981Y1161529D01*
X3618981Y1258470D02*
G01*
X3618981Y1310787D01*
X3725787Y1588425D02*
G01*
X3324212Y1588425D01*
X3725787Y1588425D02*
G01*
X3725787Y1411260D01*
X3324212Y1588425D02*
G01*
X3324212Y1411260D01*
X3324212Y1411260D02*
G01*
X3725787Y1411260D01*
X3324212Y1491019D02*
G01*
X3376499Y1491019D01*
X3473500Y1491019D02*
G01*
X3576530Y1491019D01*
X3673469Y1491019D02*
G01*
X3725787Y1491019D01*
X3781575Y1305787D02*
G01*
X3781575Y904212D01*
X3781575Y1305787D02*
G01*
X3958739Y1305787D01*
X3781575Y904212D02*
G01*
X3958739Y904212D01*
X3958739Y904212D02*
G01*
X3958739Y1305787D01*
X3878981Y904212D02*
G01*
X3878981Y956500D01*
X3878981Y1053499D02*
G01*
X3878981Y1156529D01*
X3878981Y1253470D02*
G01*
X3878981Y1305787D01*
X4483424Y334212D02*
G01*
X4483424Y735787D01*
X4483424Y334212D02*
G01*
X4306260Y334212D01*
X4483424Y735787D02*
G01*
X4306260Y735787D01*
X4306260Y735787D02*
G01*
X4306260Y334212D01*
X4386018Y735787D02*
G01*
X4386018Y683499D01*
X4386018Y586500D02*
G01*
X4386018Y483470D01*
X4386018Y386529D02*
G01*
X4386018Y334212D01*
X4046575Y1305787D02*
G01*
X4046575Y904212D01*
X4046575Y1305787D02*
G01*
X4223739Y1305787D01*
X4046575Y904212D02*
G01*
X4223739Y904212D01*
X4223739Y904212D02*
G01*
X4223739Y1305787D01*
X4143981Y904212D02*
G01*
X4143981Y956500D01*
X4143981Y1053499D02*
G01*
X4143981Y1156529D01*
X4143981Y1253470D02*
G01*
X4143981Y1305787D01*
X4336575Y-109212D02*
G01*
X4336575Y-510787D01*
X4336575Y-109212D02*
G01*
X4513739Y-109212D01*
X4336575Y-510787D02*
G01*
X4513739Y-510787D01*
X4513739Y-510787D02*
G01*
X4513739Y-109212D01*
X4433981Y-510787D02*
G01*
X4433981Y-458499D01*
X4433981Y-361500D02*
G01*
X4433981Y-258470D01*
X4433981Y-161529D02*
G01*
X4433981Y-109212D01*
X4056575Y-104212D02*
G01*
X4056575Y-505787D01*
X4056575Y-104212D02*
G01*
X4233739Y-104212D01*
X4056575Y-505787D02*
G01*
X4233739Y-505787D01*
X4233739Y-505787D02*
G01*
X4233739Y-104212D01*
X4153981Y-505787D02*
G01*
X4153981Y-453499D01*
X4153981Y-356500D02*
G01*
X4153981Y-253470D01*
X4153981Y-156529D02*
G01*
X4153981Y-104212D01*
X3791575Y-94212D02*
G01*
X3791575Y-495787D01*
X3791575Y-94212D02*
G01*
X3968739Y-94212D01*
X3791575Y-495787D02*
G01*
X3968739Y-495787D01*
X3968739Y-495787D02*
G01*
X3968739Y-94212D01*
X3888981Y-495787D02*
G01*
X3888981Y-443499D01*
X3888981Y-346500D02*
G01*
X3888981Y-243470D01*
X3888981Y-146529D02*
G01*
X3888981Y-94212D01*
D10*
X2299200Y-1742788D02*
G01*
X2580789Y-1742788D01*
X2580789Y-1847213D01*
X2299200Y-1847213D01*
X2299200Y-1742788D01*
X2849200Y-1737788D02*
G01*
X3130789Y-1737788D01*
X3130789Y-1842213D01*
X2849200Y-1842213D01*
X2849200Y-1737788D01*
X1967788Y-1890799D02*
G01*
X1967788Y-1609209D01*
X2072213Y-1609209D01*
X2072213Y-1890799D01*
X1967788Y-1890799D01*
X1820799Y-1592211D02*
G01*
X1539210Y-1592211D01*
X1539210Y-1487786D01*
X1820799Y-1487786D01*
X1820799Y-1592211D01*
X1163103Y-1510583D02*
G01*
X1306898Y-1510583D01*
X1306898Y-1589416D01*
X1163103Y-1589416D01*
X1163103Y-1510583D01*
D11*
X540196Y-2203071D02*
G01*
X540192Y-1707006D01*
X540192Y-1707006D02*
G01*
X989803Y-1707006D01*
X989801Y-1707006D02*
G01*
X989803Y-2203071D01*
X989803Y-2203071D02*
G01*
X540192Y-2203071D01*
X510196Y-1533071D02*
G01*
X510192Y-1037006D01*
X510192Y-1037006D02*
G01*
X959803Y-1037006D01*
X959801Y-1037006D02*
G01*
X959803Y-1533071D01*
X959803Y-1533071D02*
G01*
X510192Y-1533071D01*
X2785787Y-581574D02*
G01*
X2384212Y-581574D01*
X2785787Y-581574D02*
G01*
X2785787Y-758739D01*
X2384212Y-581574D02*
G01*
X2384212Y-758739D01*
X2384212Y-758739D02*
G01*
X2785787Y-758739D01*
X2384212Y-678980D02*
G01*
X2436499Y-678980D01*
X2533500Y-678980D02*
G01*
X2636530Y-678980D01*
X2733469Y-678980D02*
G01*
X2785787Y-678980D01*
D12*
G75*
G01*
X2009295Y182201D02*
G03*
X2009595Y182201I150J-11652D01*
G75*
G01*
X2729295Y172201D02*
G03*
X2729595Y172201I150J-11652D01*
G75*
G01*
X3419295Y177201D02*
G03*
X3419595Y177201I150J-11652D01*
G75*
G01*
X4124295Y172201D02*
G03*
X4124595Y172201I150J-11652D01*
D11*
G75*
G01*
X2615000Y-850001D02*
G02*
X2535000Y-850001I-40000J0D01*
G75*
G01*
X1275275Y-1976496D02*
G03*
X1275275Y-1905630I0J35433D01*
G75*
G01*
X1009370Y783703D02*
G02*
X930631Y781734I-39369J-984D01*
G75*
G01*
X1516297Y1674370D02*
G02*
X1518266Y1595631I985J-39370D01*
G75*
G01*
X3264370Y-781297D02*
G02*
X3185631Y-783266I-39369J-984D01*
G75*
G01*
X4639370Y1638703D02*
G02*
X4560631Y1636734I-39369J-984D01*
G75*
G01*
X2019370Y-611297D02*
G02*
X1940631Y-613266I-39369J-984D01*
G75*
G01*
X3879370Y-771297D02*
G02*
X3800631Y-773266I-39369J-984D01*
G75*
G01*
X4514370Y-786297D02*
G02*
X4435631Y-788266I-39369J-984D01*
D14*
G75*
G01*
X1457000Y-414000D02*
G03*
X1457000Y-413900I7874J50D01*
G75*
G01*
X1752000Y-409000D02*
G03*
X1752000Y-408900I7874J50D01*
G75*
G01*
X2032000Y-414000D02*
G03*
X2032000Y-413900I7874J50D01*
G75*
G01*
X1297000Y986000D02*
G03*
X1297000Y986100I7874J50D01*
G75*
G01*
X2142000Y996000D02*
G03*
X2142000Y996100I7874J50D01*
G75*
G01*
X2382000Y-409000D02*
G03*
X2382000Y-408900I7874J50D01*
G75*
G01*
X1587000Y996000D02*
G03*
X1587000Y996100I7874J50D01*
G75*
G01*
X1872000Y1001000D02*
G03*
X1872000Y1001100I7874J50D01*
G75*
G01*
X2632000Y-414000D02*
G03*
X2632000Y-413900I7874J50D01*
G75*
G01*
X2897000Y-419000D02*
G03*
X2897000Y-418900I7874J50D01*
G75*
G01*
X3906000Y1393000D02*
G03*
X3906100Y1393000I50J-7874D01*
G75*
G01*
X2506000Y1393000D02*
G03*
X2506100Y1393000I50J-7874D01*
G75*
G01*
X2407000Y991000D02*
G03*
X2407000Y991100I7874J50D01*
G75*
G01*
X2677000Y996000D02*
G03*
X2677000Y996100I7874J50D01*
G75*
G01*
X2932000Y991000D02*
G03*
X2932000Y991100I7874J50D01*
G75*
G01*
X3192000Y-414000D02*
G03*
X3192000Y-413900I7874J50D01*
G75*
G01*
X3452000Y-414000D02*
G03*
X3452000Y-413900I7874J50D01*
G75*
G01*
X3717000Y-414000D02*
G03*
X3717000Y-413900I7874J50D01*
G75*
G01*
X3207000Y996000D02*
G03*
X3207000Y996100I7874J50D01*
G75*
G01*
X3467000Y996000D02*
G03*
X3467000Y996100I7874J50D01*
G75*
G01*
X3717000Y1001000D02*
G03*
X3717000Y1001100I7874J50D01*
G75*
G01*
X3416000Y1393000D02*
G03*
X3416100Y1393000I50J-7874D01*
G75*
G01*
X3977000Y996000D02*
G03*
X3977000Y996100I7874J50D01*
G75*
G01*
X4288000Y644000D02*
G03*
X4288000Y643900I-7874J-50D01*
G75*
G01*
X4242000Y996000D02*
G03*
X4242000Y996100I7874J50D01*
G75*
G01*
X4532000Y-419000D02*
G03*
X4532000Y-418900I7874J50D01*
G75*
G01*
X4252000Y-414000D02*
G03*
X4252000Y-413900I7874J50D01*
G75*
G01*
X3987000Y-404000D02*
G03*
X3987000Y-403900I7874J50D01*
G75*
G01*
X2476000Y-777000D02*
G03*
X2476100Y-777000I50J-7874D01*
D11*
G75*
G01
X1666060Y-965000D02*
G03X1666060Y-965000I-246060J0D01*
G75*
G01
X2457700Y-2078100D02*
G03X2457700Y-2078100I-29500J0D01*
G75*
G01
X2497100Y-2078100D02*
G03X2497100Y-2078100I-68900J0D01*
G75*
G01
X2967700Y-2073100D02*
G03X2967700Y-2073100I-29500J0D01*
G75*
G01
X3007100Y-2073100D02*
G03X3007100Y-2073100I-68900J0D01*
D14*
G75*
G01
X1291020Y-2181220D02*
G03X1291020Y-2181220I-7870J0D01*
M02*
