M48
INCH,LZ
;FILE_FORMAT=2:4
;TYPE=PLATED
;Layer: PTH_Through
;EasyEDA v6.5.22, 2022-11-10 10:58:02
;b15eef10417c41dab364ff867fe718c8,4d8ab2db40884aeb91e54047068f32cb,10
;Gerber Generator version 0.2
;Holesize 1 = 0.0280 inch
T01C0.0280
;Holesize 2 = 0.0320 inch
T02C0.0320
;Holesize 3 = 0.0390 inch
T03C0.0390
;Holesize 4 = 0.0630 inch
T04C0.0630
%
G05
G90
T01
X013150Y006906
X013150Y007694
X010230Y001000G85X010170Y001000
X010230Y001500G85X010170Y001500
X010230Y002000G85X010170Y002000
X014750Y003950
X014750Y000950
X012600Y000850
X012600Y003850
X011450Y003900
X008450Y003900
X015100Y015950
X018100Y015950
X017150Y009700
X017150Y012700
X015200Y009700
X015200Y012700
X013300Y009700
X013300Y012700
X015350Y005900
X015350Y008900
X020558Y002300
X021542Y003284
X021542Y001316
X020558Y006750
X021542Y007734
X021542Y005766
X020558Y011000
X021542Y011984
X021542Y010016
X020558Y015450
X021542Y016434
X021542Y014466
T02
X016200Y014150
X018200Y014150
X012600Y014000
X014600Y014000
T03
X008916Y014000
X010884Y014000
X009950Y005582
X009950Y009518
X017500Y001124
X017500Y004076
X009516Y011600
X011484Y011600
X016566Y006750
X018534Y006750
T04
X005800Y015450
X005800Y013450
X005750Y009800
X005750Y007800
X005800Y004050
X005800Y002050
M30
