G04 Layer: TopLayer*
G04 EasyEDA v6.5.22, 2022-11-10 10:58:02*
G04 b15eef10417c41dab364ff867fe718c8,4d8ab2db40884aeb91e54047068f32cb,10*
G04 Gerber Generator version 0.2*
G04 Scale: 100 percent, Rotated: No, Reflected: No *
G04 Dimensions in inches *
G04 leading zeros omitted , absolute positions ,3 integer and 6 decimal *
%FSLAX36Y36*%
%MOIN*%

%ADD10C,0.0300*%
%ADD11C,0.0945*%
%ADD12C,0.0709*%
%ADD13C,0.0630*%
%ADD14C,0.0433*%
%ADD15R,0.0472X0.0394*%
%ADD16O,0.047244X0.039369999999999995*%
%ADD17C,0.0512*%
%ADD18C,0.0600*%
%ADD19C,0.0240*%

%LPD*%
D10*
X1260001Y356970D02*
G01*
X1053031Y150000D01*
X1020000Y150000D01*
X1475001Y395000D02*
G01*
X1427650Y442350D01*
X1234050Y442350D01*
X1202501Y410799D01*
X1202501Y363220D01*
X1039281Y200000D01*
X1020001Y200000D01*
X2154210Y1446579D02*
G01*
X2025711Y1446579D01*
X1980221Y1492069D01*
X632930Y1492069D01*
X580001Y1545000D01*
X845001Y390000D02*
G01*
X595001Y390000D01*
X580001Y405000D01*
X2055790Y230010D02*
G01*
X1839620Y230010D01*
X1535001Y534630D01*
X1535001Y590000D01*
X1656601Y675000D02*
G01*
X1571601Y590000D01*
X1535001Y590000D01*
X1535001Y590000D02*
G01*
X1261531Y590000D01*
X885131Y966399D01*
X885131Y1393530D01*
X891601Y1400000D01*
X2055790Y675010D02*
G01*
X1897880Y832919D01*
X1113931Y832919D01*
X995001Y951849D01*
X2154210Y1001579D02*
G01*
X1882511Y1001579D01*
X1484090Y1400000D01*
X1460001Y1400000D01*
X2055790Y1545010D02*
G01*
X2262710Y1545010D01*
X1260001Y356970D02*
G01*
X1283181Y333789D01*
X1654501Y333789D01*
X1260001Y385000D02*
G01*
X1260001Y356970D01*
X2154210Y1198429D02*
G01*
X2217671Y1134969D01*
X2217671Y971860D01*
X2185051Y939239D01*
X1875321Y939239D01*
X1654561Y1160000D01*
X1148401Y1160000D01*
X1330001Y970000D02*
G01*
X1141601Y970000D01*
X951601Y1160000D01*
X1715001Y970000D02*
G01*
X1656881Y1028119D01*
X1388121Y1028119D01*
X1330001Y970000D01*
X1475001Y95000D02*
G01*
X1405311Y25309D01*
X759690Y25309D01*
X580001Y205000D01*
X2154210Y773429D02*
G01*
X2263550Y882770D01*
X2263550Y1179330D01*
X2172880Y1270000D01*
X1715001Y1270000D01*
X1260001Y85000D02*
G01*
X1088650Y85000D01*
X1073650Y100000D01*
X1020001Y100000D02*
G01*
X1073650Y100000D01*
X1520001Y1270000D02*
G01*
X1464331Y1325670D01*
X1334331Y1325670D01*
X1260001Y1400000D01*
X1315001Y769369D02*
G01*
X1175480Y769369D01*
X1158981Y785869D01*
X1535001Y890000D02*
G01*
X1989440Y890000D01*
D11*
G01*
X580000Y1545000D03*
G01*
X580000Y1345000D03*
G01*
X575000Y980000D03*
G01*
X575000Y780000D03*
G01*
X580000Y405000D03*
G01*
X580000Y205000D03*
D12*
G01*
X891599Y1400000D03*
G01*
X1088400Y1400000D03*
G01*
X995000Y558150D03*
G01*
X995000Y951849D03*
D13*
G01*
X1620000Y1415000D03*
G01*
X1820000Y1415000D03*
G01*
X1260000Y1400000D03*
G01*
X1460000Y1400000D03*
G01*
X1750000Y112364D03*
G01*
X1750000Y407635D03*
D14*
G01*
X1315000Y690630D03*
G01*
X1315000Y769369D03*
D15*
G01*
X1020000Y100000D03*
D16*
G01*
X1020000Y150000D03*
G01*
X1020000Y200000D03*
D13*
G01*
X951599Y1160000D03*
G01*
X1148400Y1160000D03*
G01*
X1656599Y675000D03*
G01*
X1853400Y675000D03*
D17*
G01*
X1475000Y395000D03*
G01*
X1475000Y95000D03*
G01*
X1260000Y85000D03*
G01*
X1260000Y385000D03*
G01*
X1145000Y390000D03*
G01*
X845000Y390000D03*
G01*
X1510000Y1595000D03*
G01*
X1810000Y1595000D03*
G01*
X1715000Y970000D03*
G01*
X1715000Y1270000D03*
G01*
X1520000Y970000D03*
G01*
X1520000Y1270000D03*
G01*
X1330000Y970000D03*
G01*
X1330000Y1270000D03*
G01*
X1535000Y590000D03*
G01*
X1535000Y890000D03*
D18*
G01*
X2055787Y230005D03*
G01*
X2154206Y328425D03*
G01*
X2154206Y131574D03*
G01*
X2055787Y675005D03*
G01*
X2154206Y773425D03*
G01*
X2154206Y576574D03*
G01*
X2055787Y1100005D03*
G01*
X2154206Y1198425D03*
G01*
X2154206Y1001574D03*
G01*
X2055787Y1545005D03*
G01*
X2154206Y1643425D03*
G01*
X2154206Y1446574D03*
D19*
G01*
X1989440Y890000D03*
G01*
X1158981Y785869D03*
G01*
X1654501Y333789D03*
G01*
X2262710Y1545010D03*
M02*
